<mxfile host="app.diagrams.net" modified="2023-08-14T07:00:32.269Z" agent="Mozilla/5.0 (Macintosh; Intel Mac OS X 10_15_7) AppleWebKit/537.36 (KHTML, like Gecko) Chrome/114.0.0.0 Safari/537.36" etag="mmTgoOUJi9roGlEt4RKd" version="21.6.6" type="device">
  <diagram name="PÃ¡gina-1" id="T5mSu5KWAw16yF7jo7xi">
    <mxGraphModel dx="1830" dy="328" grid="0" gridSize="10" guides="1" tooltips="1" connect="1" arrows="1" fold="1" page="0" pageScale="1" pageWidth="827" pageHeight="1169" math="0" shadow="0">
      <root>
        <mxCell id="0" />
        <mxCell id="1" parent="0" />
        <mxCell id="aUk0upNt8_hWJUNDJRNM-1" value="" style="shape=image;verticalLabelPosition=bottom;labelBackgroundColor=default;verticalAlign=top;aspect=fixed;imageAspect=0;image=data:image/png,iVBORw0KGgoAAAANSUhEUgAAAZIAAAKECAIAAACihyu2AAAK1WlDQ1BJQ0MgUHJvZmlsZQAASImVlwdUk8kWx+f70hstgHRC70gRCCAlhBZAQTqISkgCCSWGhCBiRxZXcC2IiIC6oosUBVdXQGyIBQuLogL2DbIIqM/Fgg2V9wGPsLvvvPfOu+dM5pebO3funTNzzj8AUHzZIlE6rARAhjBLHB7gQ4uNi6fhhgAE8IACLACezZGIGGFhIQCxmfmv9r4XiUbsjs1krn///b+aCpcn4QAAJSCcxJVwMhBuQ8YzjkicBQCqBvEbrcgSTXInwqpipECEZZOcMs3vJjlpitH4qZjIcCbCOgDgyWy2OAUAsjnip2VzUpA85ECE7YRcgRDhHIQ9OXw2F+EWhK0zMpZP8u8ImyPxIgAoZITpSX/KmfKX/Eny/Gx2ipyn+5oyvK9AIkpnr/w/j+Z/W0a6dGYPU2SQ+eLAcGRWQM7vXtryYDkLkxaGzrCAOxU/xXxpYNQMcyTM+Bnmsn2D5WvTF4bMcLLAnyXPk8WKnGGexC9ihsXLw+V7JYuZjBlmi2f3laZFyf18HkueP5cfGTPD2YLohTMsSYsIno1hyv1iabi8fp4wwGd2X3957xmSP/UrYMnXZvEjA+W9s2fr5wkZszklsfLauDxfv9mYKHm8KMtHvpcoPUwez0sPkPsl2RHytVnI5ZxdGyY/w1R2UNgMgzDAAA7ABdABE0QDkMXLyZpsgrlctFIsSOFn0RjIS+PRWEKOrTXNwc7BEYDJdzt9Fd7em3qPkDp+1peZhlxh5J3ARrO+ROSenioCQM1i1meC3GtKHgCnZRypOHvah578wAAiUASqQBPoASNgDmyQ+pyBO/AGfiAIhIJIEAeWAg7ggwwgBivAarABFIAisB3sAuVgPzgIasBRcBw0gzPgArgCboBboAc8BDIwCF6AUfAejEMQhIMoEBXShPQhE8gKcoDokCfkB4VA4VAclAilQEJICq2GNkJFUDFUDh2AaqGfoVPQBega1A3dh/qhEegN9BlGwWRYFdaFTeG5MB1mwMFwJLwEToEz4Vw4H94Kl8FV8BG4Cb4A34B7YBn8Ah5DARQJpY4yQNmg6CgmKhQVj0pGiVFrUYWoUlQVqgHViupA3UHJUC9Rn9BYNBVNQ9ug3dGB6Cg0B52JXovegi5H16Cb0JfQd9D96FH0NwwFo4OxwrhhWJhYTApmBaYAU4qpxpzEXMb0YAYx77FYrDrWDOuCDcTGYVOxq7BbsHuxjdg2bDd2ADuGw+E0cVY4D1wojo3LwhXg9uCO4M7jbuMGcR/xJLw+3gHvj4/HC/F5+FJ8Hf4c/jZ+CD9OUCKYENwIoQQuYSVhG+EQoZVwkzBIGCcqE82IHsRIYipxA7GM2EC8THxEfEsikQxJrqRFJAFpPamMdIx0ldRP+kRWIVuSmeQEspS8lXyY3Ea+T35LoVBMKd6UeEoWZSullnKR8oTyUYGqYKvAUuAqrFOoUGhSuK3wSpGgaKLIUFyqmKtYqnhC8abiSyWCkqkSU4mttFapQumUUp/SmDJV2V45VDlDeYtynfI15WEVnIqpip8KVyVf5aDKRZUBKopqRGVSOdSN1EPUy9RBVayqmSpLNVW1SPWoapfqqJqK2jy1aLUctQq1s2oydZS6qTpLPV19m/px9V71z3N05zDm8OZsntMw5/acDxraGt4aPI1CjUaNHo3PmjRNP800zR2azZqPtdBallqLtFZo7dO6rPVSW1XbXZujXah9XPuBDqxjqROus0rnoE6nzpiunm6Arkh3j+5F3Zd66nreeql6JXrn9Eb0qfqe+gL9Ev3z+s9pajQGLZ1WRrtEGzXQMQg0kBocMOgyGDc0M4wyzDNsNHxsRDSiGyUblRi1G40a6xsvMF5tXG/8wIRgQjfhm+w26TD5YGpmGmO6ybTZdNhMw4xllmtWb/bInGLuZZ5pXmV+1wJrQbdIs9hrccsStnSy5FtWWN60gq2crQRWe626rTHWrtZC6yrrPhuyDcMm26bept9W3TbENs+22fbVXOO58XN3zO2Y+83OyS7d7pDdQ3sV+yD7PPtW+zcOlg4chwqHu44UR3/HdY4tjq/nWc3jzds3754T1WmB0yandqevzi7OYucG5xEXY5dEl0qXProqPYy+hX7VFePq47rO9YzrJzdntyy3425/uNu4p7nXuQ/PN5vPm39o/oCHoQfb44CHzJPmmej5o6fMy8CL7VXl9dTbyJvrXe09xLBgpDKOMF752PmIfU76fGC6Mdcw23xRvgG+hb5dfip+UX7lfk/8Df1T/Ov9RwOcAlYFtAViAoMDdwT2sXRZHFYtazTIJWhN0KVgcnBEcHnw0xDLEHFI6wJ4QdCCnQseLTRZKFzYHApCWaE7Qx+HmYVlhp1ehF0Utqhi0bNw+/DV4R0R1IhlEXUR7yN9IrdFPowyj5JGtUcrRidE10Z/iPGNKY6Rxc6NXRN7I04rThDXEo+Lj46vjh9b7Ld41+LBBKeEgoTeJWZLcpZcW6q1NH3p2WWKy9jLTiRiEmMS6xK/sEPZVeyxJFZSZdIoh8nZzXnB9eaWcEd4Hrxi3lCyR3Jx8nCKR8rOlBG+F7+U/1LAFJQLXqcGpu5P/ZAWmnY4bSI9Jr0xA5+RmHFKqCJME15arrc8Z3m3yEpUIJJlumXuyhwVB4urJZBkiaQlSxURSJ1Sc+l30v5sz+yK7I8rolecyFHOEeZ0rrRcuXnlUK5/7k+r0Ks4q9pXG6zesLp/DWPNgbXQ2qS17euM1uWvG1wfsL5mA3FD2oZf8+zyivPebYzZ2Jqvm78+f+C7gO/qCxQKxAV9m9w37f8e/b3g+67Njpv3bP5WyC28XmRXVFr0ZQtny/Uf7H8o+2Fia/LWrm3O2/Ztx24Xbu/d4bWjpli5OLd4YOeCnU0ltJLCkne7lu26VjqvdP9u4m7pbllZSFnLHuM92/d8KeeX91T4VDRW6lRurvywl7v39j7vfQ37dfcX7f/8o+DHewcCDjRVmVaVHsQezD747FD0oY6f6D/VVmtVF1V/PSw8LKsJr7lU61JbW6dTt60erpfWjxxJOHLrqO/RlgabhgON6o1Fx8Ax6bHnPyf+3Hs8+Hj7CfqJhl9Mfqk8ST1Z2AQ1rWwabeY3y1riWrpPBZ1qb3VvPXna9vThMwZnKs6qnd12jngu/9zE+dzzY22itpcXUi4MtC9rf3gx9uLdS4sudV0Ovnz1iv+Vix2MjvNXPa6eueZ27dR1+vXmG843mjqdOk/+6vTryS7nrqabLjdbbrneau2e333uttftC3d871y5y7p7o2dhT3dvVO+9voQ+2T3uveH76fdfP8h+MP5w/SPMo8LHSo9Ln+g8qfrN4rdGmbPsbL9vf+fTiKcPBzgDL36X/P5lMP8Z5VnpkP5Q7bDD8JkR/5Fbzxc/H3whejH+suAfyv+ofGX+6pc/vP/oHI0dHXwtfj3xZstbzbeH38171z4WNvbkfcb78Q+FHzU/1nyif+r4HPN5aHzFF9yXsq8WX1u/BX97NJExMSFii9lTUgCFDDg5GYA3hxGdEAcA9RYAxMXTunrKoOn/AlME/hNPa+8pcwagug2AyPUAhHgDsG9SyiJMQUYY8j3SG8COjvLxL5MkOzpM5yI1I9KkdGLiLaIbcRYAfO2bmBhvnpj4Wo0U+wCAtvfTen7SsCcAMMtAVAb0aJe7CPzNprX+n3r8+wzkFfxl/ieb8hVzGvjWVgAAADhlWElmTU0AKgAAAAgAAYdpAAQAAAABAAAAGgAAAAAAAqACAAQAAAABAAABkqADAAQAAAABAAAChAAAAAD/MZ7dAABAAElEQVR4AeydB4BURdLH38TdZYlLBlHAdAZEJCqIouQgZgznqXgGUMEcEPUw54TonX7mMyvqKSIIomeOeCQRUDBgACQuGyZ+v+p60zssu8ByrCfQ7djTr7u6ul4x/d+qev26A+l02qtKSntrPS8c8ELknnYNJDwvmEynQoEw3AJeIB2Ie+mgFwik0l4yUBoS+mDQC6VTiQA0qVSAq2TcC8EkyOBJLxUMBJMefGAarlCcZDIZEnrPFlKpVBA+lSRthRgapFJKES8QqKTH1lGdSCTC4bDmSKx3tA3c19ahfSflH0MDAX7xVZIk7ZWCQZ4XkV50FRAAnUwCE7yUlAJUAGQeYJTyEgAZl8BYIl4ajkQE0Rg0KJ3AE4URLlKmb8gAmWFXPtswTpWj1plMF3CKpLdJoRzZ1nhpQcoWtsa7cDI7DWy2BqoMWzISGCOYo5jlYV8J5pDElkkrlqXToaQBiUBSEEso0hhHkNEzxHxLecl0APNJDCgYKKxIuRJkKUdQWlqak5MjfCtPdlYr3imHyvhXzuaP1WJvSm+HW0M+tUP/WII6aZwGqk0DVYctBawMbBnMEul8O0vwK5hMBbGocPmSxgkEtQAm8CkkrSnBuUBIYMu3wuTLh0LBtE26V5291mFcv085AqW0c359+q2rZgM3vnXdiJPWaWAzNFBxIKlCRhmkMo2CNOskEzVKJxOpQCicCHoxzyumQ8CLG+TKlaCVl4PXmA5GAl5aTLAQrbiXfMSBVGY6xjqM/QsQh7lKWCfbVdyAlYFVBaUlUCNrG4AtbsrehUa4uCRtIMxXkTpdndPAVqyBKlhbGdjCXDJen0GaTCVIZALtATGyCNp/MOO3j2cvjqdzi8ME20tbNy3ovHezVg0kJBZKeyGQyziWxLgoa6hMIvvw3KC1xfwEgMhRuQJTZdNVKSFTN0oD8wpeW/E/V0Z0vTu1ubJxPNPuvp0GtmUNbJK1pdikasA8wo7JqCRosEtQLBCQHNMpFhBT65tla5d5NZM5dYtS0WAoXrik5Nt3Fg09qmUN8xgSUuWZDHh5Jrwv9UHC9EBXxSJZwDLQI1kymQ6FZNAKE/RqbVWGaxX22ioqAW0D2WUhLYdcW8U/nBNyS2lgk6ytbNjyzDIF36cTKQAOngwa24l4VsAr9rzVnnfnszNXhJsWpfJS4XzxDJMl0XRJbroo6sV4xBj0UvFULJoTDiRjLRvW2a1Jzfa716sdBLEkNFbZvVkDink7b9782bNnH3HE4ZVE8L25c+d+/PHHf/7zn/ET7ay2HCob4o9f/957HyDkAQccgGe9DdzOH1/hTsI/oAYqxQgcEBX3nnvufe211ykbz4xvrCE+Bq2yIUYWPYiTxxcmUywYjgcj8XBuPJRKeDxEjMSDeUWhmitD9ZZHC5ZFG6zMabrMa7Qi0Hju0tS0L74lHCbjgW9m3HicmJj/eJHJSUoQNTMQxaMzvmfOnHnttddCY56kieWl4tn8xRdfuvHGm9euBUWJnfm3CYd4MoGEmuPuUjbs0zoixJqoBOwoqzyaa43NCS1B4A8sBelqKSvkoF2EziRouC+KyO9XZcq2xhaU4KWXXnrhhRcUrLkdBlUClcoy0YKVrVy9u3Qa2Ko1UClsaTCbmbv77rtPmjRpwoSJTBWdmRnHMAu5qNKZZJDLaITFDsFkgEhVKk1wXFaTRmOBvFggtyRYA/ziU2zykmCt0mAefiWwxTNGxmXmRyIRphzTUlGAQjgc1BmuECQAFI8jjzE66EWFiOdLGPCuuOLyt99+u3btmopr+o/EDA+HxAklTyQN6DCmCd4zokUcCEABwA6UUT2QIw810CgIkvN8AErqdQgdGkoEoxW25MqHXDnQBQ6mi6AVBe6LjhDr3VHJvdgcznppiMk8ldP+WxCghwCWKpVQGLbkDCRKcclpYJvTQKWwpXdKwKp3n179+w+cNOnN11+fLBNM7BPzMRTrXvk2GLOZBQ4hTKyUxyck60uDaQl+8WGasm4dRAvGxcIKUzBNvqPJTFakgL2Wmc933nn3wIGHde3adcSI837++VeaoGHdls7KhQsXnXHGWW3btjvooINvu+22WCyBnK+88up5550HJbjWt2//xx574i9/OaVjx47Dhp29dOlvl102qmOHzv37DZw6ZVosngyGQgu+WfjX08/ct137nr36PPro4wZlPLMeXfCFZNBNxv388+kwadOmLYNOm/YOI7z11lu9evWZN28e48bjyeHDz7nmmuuAksLCojFjrj344EP2318kX758pYGhEPp85pnnkGe//TpAvHTpslGjRnXo0KFPn35Tp05T/KL8/PMvDh8+HJqTTjr5zTenKlQlkkl5lCgCeb/8unT0lVd26XLAscce+/jj/8ygpwAx7VaNIr1LTgPbkAY2Altmfnh9+vTq27fvG2+8AXiJH6h/wmXqSMpMa5y3FC3YVzCVx4WYQtImmEWDATgZTqsxrECrJFEuarKMAmN3iB1kYAIzJXXzzTffd999gwcPPv/884lnnXrqqUADMzcWi9EPdDjzzDOXLFlyww03HHfccQ888MCzzz6L2EVFRd9++62Il/Lmz59/4403HnTQQRdeeCEQQ4HVqtA3atTorLPOEpHS3imnnALPe+655+ijj77pppuADxUKawgCEmgCAv7ww+K//OUvIAI0NWvWBFYIonXv3r2goGDMmDHYPjhx7777LkJiBN11111cDhs27IILLpg+ffrll1+utuFXX3111VVX0euSSy558803DznkEMw6JESeM844AzGQZ8GCBdDXr1//b3/7GwA9YsSIOXPmIhJqUTwqLY2fc845//nPfy666CJY4TIzlpFTtOeS08A2rAFxc7ZE8rFLWQmyGbuMB41xYItrg3F4i3wbnBJCaMwbPkIulyAczWZmcqmO1erVq5944gkQ4YQTjqOyU6dO9957LyBFWdZhyLKv9G23377TTjvVrl2LWf3F9OkfEYk/6USsEmyopAmE8UbRyaecMvS0U+k056uvJk6ciFEGrOywww7vv/8+oNa0adPFixcDLgce2JUPKNCgQQPtC4KANaQQZqLnvfDii02bNbv1ttui0Wiv3r3nL1jwr1dfvfTSi2+6+WbQ56GHHwb4Rl1xxQ4tmkM8cNCgU4cObdKkCRzWFhXdeeed8KQczckZOnToaX8dCubOnDXr9ddfv/6GG6LR8I477TRo0KBvvv129913pXu3bt2uvU7idwxE/Yvjx++x5yiUBGpT+emnn3755ZdTp07dcccduFyxcuXjTzxxxBGD8SK5NNgnZheJS5ecBrYlDWwEtvQ3j5GFqYXBhdklCyBEAWYqS1CGkmIWueCIgSCJUpmQVuaaPhTLEn6idBTkymrgkneArHfD3Fu0aFE8Hsc9pCsI0rp1y1tuuQULCFAjmkMNayBatGgxefJk0GfFihXEs3bddVfqSYZGemGX7bnnnqbGq1u3buvWrQk9cQk2KVmdOnUY4rLLLpsyZQoP6fr371+vXp01a9YedthhECAGYx1yyCGjR496+eWXf/311+uuu44a+GM3YbgBWzvuuCOOHhYTfujxxx+v/lrbtm0mTpz05JNPrlq16umnn6aL4YbhllB5gM569epRBrOQEzFAGe4XMgq9e/dGvdTn5EQPPPBAzDrKMFH9YI5B+eijjyr9c889R0FDbwgscOUACz26tC1qYCOwxfTDi8EcALP69u/NtDHgZKApg0jZagGtIMAYSAZTSeLXoaSxp6gUm4tG1kIQ2KIrlMBcKJ0M8JiRfSIMrGE/yX8mnKyTs7CwEPOBxNB8mImCWUlY4YxKWr16zcCBA5muwApGEzNWY14USMhPF4uD4AY+FsF0hQNaw+EoOfUPPvgQ0AzqXX31GD4vvvjin/70p9NOOz0lu1bIgnvADsqSkhJiZ40aNaEGtgMGDAKnDJp4TZo0g3ONGjVBUkWMM84YDg4iXsuWLXfZZbeFCxcyEEy4ccTgkam8kxkKAXwqA5BEUhjijhgCUmVOPYanstX7Wr26EIsPR5UmyDDHGjduXFxagmmJwIpf1DvwQgkubWMaqBS2+N0zo5gRX3/9dZ8+fQYM6CPvEArWkIyppUUDXn61qWGqCSrxwSUk2kWJpLBET+PZ0UxUC27G2sJ8k/lJ4gs0YlrqZGPe7rHHHtgmhLSaNWsCwcqVq1977TVC6WbqsiTC++yzz3755RfgZocdmnM5a9Ysw0mi6RSQ3+CdH+Y3OKDtUg+NCZDJMgKw4/DDB/IZPXr0EUccgVV15ZVX/PnPx9EEW4UVeoJBM2fOPvfc4VrJAgsFl99+W0XHk0466bHHHnv55VePOGLQkiXL8eAIbx12WH86gi8E6VgyYeRSF1jYciOCVRk54ZaXl8egIPWMGTM87wQDSh4xrDZt2lCveEQlqAoxsbCaNVmri/xxbLpaNWtRBvjoTsElp4FtUgNZALTu/amFAtqMHHHOoIF9KegmW0kmDgEr3sQx8XbBIxOSSmACGdyBo0Tlk4mIFwulikrDSb5oEfySB4ipWDhWGkmsTRfzrBEHLirE8pQRIjHTzGN7hS1mM7O9d++eo0Zd9s4778yd+9Wll156++2359XI4Y1GPoxeu3ZtjA7swR9/XPzQQ4+89957aq2AR9yCgg7cFFyQkD2/WP4qUvOSYyIWDgW4XLRwUbt997l37Lglvy798YfvCtesatVyRwggSyVZQuuxGp+cbSvwk2f8Z/ptt9427+v5H3344QH7d37o/x4AhW+4/toWOzQbdfmlZ5897Nprx/z661LWXkQioWnTpn7//Y9Tp067++47wRrMKxIFBSNyBAM9CXKBg8gJigHTlJH/lVdeefLJp+fOnXfHHXd98cUX2LvUJxMlvECFMJ077Ve/oO5FF54/e9YsPscNOebcc4ZjXtKkmGVvWYZ0yWlgG9JApbBV2T2qkcTUW5cgGMLhAyTEG5RUK5SOJorzEkX5ibU1E0U1ksU1kmszn6IaqcJ64UReem3NdHE4XrhTk/pMZwE7cjOz7ZRjBhLMIvB0+umnE3Li4eCDDz6Yl5dj5jZg5HXs2P7EE0/EqOH5IDZXz549sVYQID8/X+e/eQIoOwUqhMGfegiIKwGLIAVASciMB4sPP/wwA7GY4PDDDz/qqKMgAE3UalN5QBmGM88Zp/Jkk3GPOeaYs88+G09wwoQJ11xzDTjF073c3FyCX7m5UfJp06YhGE08W4SJ2mjIQDKmlkAMkjEWIgG4QDBkiIqrS9j+n//8J8I8//zzmHLdunWlC8wRmy4EwhAYCwsCYnDE7G699VZtgpUaZXLPLjkNbHMa2KSXe7LvGoMIcPFdPxrMygZDgAmAq4Pl5BV53oezV89fWrTol98I4OAuEtLiwwoJ4zlitbB1TTAVi2Nq1Qonu+zdqstetXB1BPmM00QOoFhnh0kI1lDJpLXCMIeNtSJOXGlpjKhT3bq1bStoZWNMilxq4IBEYIRCGMREscEa7QXDNWvWgHoEyG2N9jKII8hCUpto5cqVGHrExxmdpGwpwJmP9uISnsSksBlVGOJiMEceInTaRZ8t2u620LJl67///e+gMM8ZWAYBQ21KZXZ5RSHq5KpsSAXkqd40R2lUAmQin0tOA9uQBiqNbVV2j4JZtGX/FTfzFn9PLAaCWclgTsjrvEftdnvVTntNQKjsRD9qtDfkChjRJHvaiKsJvCl75huzUS0RumfME2EGEJCYjDofyanBtOFjMQjgsOutaNUyBYjVrlGrh0swCzjQB4tcGnyR+7FIBwSY4WTyIxIooDlPAKkh0Q43C4WKYlqv+GXBlEsFRO5OMYgcHxViumeLRz33DmojecOG9SGgVSVHFYrmagYCVaZVBKMAVEFAgWQLeulyp4FtRgNVtrZ8yLHAw7yVeWcSjwXlW6YNpRibamFpmRYyxS8ubYF5ph86CHxKd578SSw5e/pZsKBeJ6dBEgELSwkN+MJEtYaGLUNDJQyZ59qqNWCHXip/4WWAiXqSXtqc7gxNvRLTkSbtTqVlS6t0zqqxQ2i9DpG5C//Jgx0lWxJWq7HogfVodLS9IKCsrKxI1DAKSdla4mwCKl1yGthmNLC5sJWtAOMnynorDazjJ/IqHw/MmNrMuAwCZANWpk5gK5VO0JFHZLA0yxokcFNu5kuTP3tlYGNYiAGSKfi2hkUNaJSJLTCHATI7k5WSVthSlkkvrwcKeHLJ/Ndcu1syrVfUoNIm+lKmixo4XCpbpdRLJaZMWh+26GuJoaRs6bWs8qtUcLAESqY5biMCqBiV0WTTu7LTwFanAX7YyFxl2FIsYpL6N0zESthIBkOdbjK7LFzxDrWfxLTyu+uX5MCd7C9o5i3PKsG6sjm//gzX2cj8ZObr5Dfj+tPYMJE7okkps2e7SGVwTpu0I/n6EGDRTQVXtpZMeVbY3XK2YykZ9SQdHT60Uq+XFY6l45LroMoNDtRQVnBUGnuDUCox9eV4KqXLnQa2GQ1sBmyZFwZFAQawFLa4MsjFOiRZVeqvpFctWdhSIgnbS4OPXHiSlATRNDgN+DH9mKI6CW2BHtlYwKXO2Oxc2Jpk57mdyZbP+k2WrRbsJZzoRVJ8Uc5cKs9sPrasXaBXsmxW5borpRUvuzV7COp1dFuplNmcbRMFWi1P1YzSu9xpYFvSQJVhi4dvTA2ZHwZrBKzMhW9wlZlhPoXZpdkSUSDcZWBL2uGE3aGGmyCXj2Xa5HKnAacBp4GKNFDlJ4kZJgZl1GYydlamXsDM4pCp1CGw0RTeLKEaaFkQltXiik4DTgNOA5VpYDOsLQBIMAsQAp4UdXwH0R9kXSSyYJW1Az0IVvb80fQqZ7VVJq6rdxpwGnAaqLq1JS6eH3C3+AQ0Zd4rNI5etl5Nm1TQMYNcYJZaZEoIH0uV3dWVnQacBpwG1tdA1WELuwiM4aGhYVbOaPIHgICkFGU5SCX7ba2byhxK3eNUydelcVdOA04DTgNlGqg6bGEnAS2ZsHpmWbv1F40F5kNVGSTpgNmYZS01moztlV1RJp8rOQ04DTgNlNNAlWErKYjF2kjjDIJDglAKT1hgAj2+ueS/q8iGBFJpAItCFkE2hmXhYKZ/OTndpdOA04DTgK+BKsMWaANKhSQzES5BLilbFLJuo4KZoWQwASw/lZFSkakXPhkC9+004DTgNFC5BjKoUTlFuZYEbxlzzKBsuWU+QcJVYewsvoCdQDoeSCcCKbbVSrMjlpcKr/VWJb1Ss/WDQB2PIRM8vWTXrUCMnQIlGXjDhKNe9pH6HyUWcOrIumiTshZYkZ9db1srEzObQHmy7LMyYlPPuPZjKkBw+9lgT9foNLB9aqDKsMXR0SFz7r2xjgRmBK2wmnivUFZpwxC/ULa801XvES/X7MFlKI0baV6vTgFq/ti4k7wVyCGwhs//6p/BLi63BZXEvqiYXZ+NTeUEhszilC5wz34Xpxyxu3QacBrYDA1U2UmMpjO7/QoQZZI+WMQ/lC1HJbGZKdBlDJicMC5kgg22BM0wXgJmzFQizlk46iQGOJAMarbhkncaq4ykOuJ/mWejEqwsMInA5owvakhKVo44e2h9pQY7S2m4VODLptlIOVuxGyF1zU4D26MGqr7cVH0pppadXdhYNplIfJwa83QQ7wgq2ZcGXDP72AiUyS6B2l3j+hxoQbNy9IHM8vs9C6CSyGVeB88ul5PBgle5entpCeybg7bG0mQVVKFa8b+B7CxhXNFpYCvQQNVhK/umsgHLQFUCzzAUJERV6skep5qIGtXicEDwi0YvIVjFy9KBcGkiHsW3lGvpjKmWBsHYtv1/lLKhygIN5hK+XjnzyrauL6kyIVcPke701fL6xK7GacBpYDM0UGXYMujkr2jQ8fTRoRwtIdGqYMzz1nre+7N++3j2d3EvmkzlRgLJFg3zO7XZoXUjAS+IsKzUxsBfxD4DuKRSvv9XPqLcygbAyDp9kAFD1oxSDVSYq7eoPDeFvkImrtJpwGlgfQ1UObZV9loOKGP8RGo4+iIo+2oRwkrHvBB7RCxcWrw8XTcVqV2SkL3aVywvmvvuovZ7tuyyh+y/rKMSJKOcI3YWQCAnARn/bH0hf6eaciYVowI9JN34WFu5BJ0NQFcqFVBF0h37lHJ9zpV2dg1OA04DG9NAlWGrjKEG3H3kEkePou7wjiW1+JcVqXDDokQ4KiDGEalJwG36rHmzZsRCyXgknWTz05xAaYe9W3Xep7nYXDiOWFzZcZ6ykX6nElij+KK2FZfE48ePH8/p0BxCoYAFgdJsQCYIOCuMEx532WUXJdtolw1wc01OA04D5TRQKWwxY3kEJquxsKYy2x/TmblMPEpcO3NQoqzaYulDKggucdQE6KNHCkaIXSUSB3SsW5CMczg05hREkVSC8HwIavZgjidyokEOUgSsCIWb1RCcvYiBE8BO0VMeFEfIGZcaPYzLQEAZDtizJPSECL09emR4ivBqxL311jQO6WrXrp1SQkC9pdTjM/ROybkVEscdjho1un37jvXq1Ucq08XgNABrdKKja9koxx/3pptu4eSx3XffXeUh19N6rHg6NJecSYSetdWKRKtyhsBIKPuyWlRVJi53GthuNVApbDGXDF74Z8wwM5lLfIJm/UJSgMrjCLBwIBRPpYmse9QLvJh5K34jABaq38Dbt66/YILpLpiV0XTGrqpfyInNsNUmNqQPRbFr9MwegMPaOGCWYlmGgY84mTNvCNJJCxIqAFGghhPp9dgeUOCpp55q2LBhhw77KcpAQCXRdl0/hisLdnAsGL20C5doIOPr+ThCKx/RgzkxiNH10iIX9bBFbEw25KFVEzy1TF+S0lOjeqbV1qjk2dhKTF8xyyGXr033tX1roFLYwoy6//5/tGzZsn//vjq9mU6vvfb6om+/GzZsmExsppxsvpyOcASiHLojqx3SwTD4RlQ+Hg6VhCKvTCudkFopr1t7qRA4lmZhvGAXp1DHzHzOCSbzkqv67NOsyx41a6TDkWCciQ5S6D+KogYwdO+9906ePJmjCTt37nzxxRc3b94UkWbOnPnAAw+8/8EHHCt/5JFHHnvs0VQuWrSI8+UvuugiToFdsGBBp06drr/++kaNGp5w4okff/wxaPjJJ5+MHTu2Ro0aQ4cOHT58+JNPPsnBiE8//SSG1T333MPZ11hkHJlz4YUXhjmx2mAMOfiSwUcfv5Bw/vz5Z511FgevcqAhZY6GPf/883fZpTX0gCzCQ0P26KOPPvfcc7/88gtycqp2u3Zt4dqnT99TTz31zTff/Pzzz1u3bn3llVfus88+IGg8kRw3btykSZNKS0sPPvjgSy6+ODc3B3NVJVG1uNxpYDvXAFZOxYmpxWlXb7zxxoQJE5mxXFJgOu28++4h7CcDOmaluxgPEtaS1aJxY+JIhArkigUjsVBOUaje2nC9onD9wnC9NZEGq8P1VocaFAYbFOc1KIwWLA/UK4nWX/DzcvgBgSkvwkj4p/CkgMFCuvnmm++77z6OiR45cuTs2bNPOeUUDBPg6eSTT2ZuX3fddW3btr388stfeeVV5CwqKvr++++vuuqq4447DngFFAAmhAehdt11144dO44aNapZs2Zr16794YcfOIm6V69eeHPFxaWA3UcffTRixAgG4hRoONBLwcKsOBUtUcPQjAIY8aF+4cKFQGT37t2vuOIKyn/961+LikogU4ORLpxWjfwDBgzgYGq4ITwnvFL/zTffAFXIg+Sc/8rJ22qOUeCs6eOPPx5WL774IjQQ4yGiBwouOQ04DaCBSq0tpuWAAf2YLZg5hKrxZSZPntK3b/9D+hzCtCOIxaQWDeKI8fohcR+PR2wR0Ie1pjLhg+F4QMyuqPh/gnJsp8XME3dQYu9eQmJeydxoJFZS2rhhgcInBBhaLEqHwABEaPXqQk4MHDNmzAknHEdl+/bt//GPf4A4xLwLCgowTHJyo/3792fmY9QcdtggE4FKY2H17t0T4wsbh5Puzz//vO7duzU36dCeh8Dnx8WL8QCvv+GGfv36cKf//ve7M2bOfOutt1q23BHfsKB+fcDowosuMncSiGA6GXnMfRnE9m/dC0cip59xxrBhZ8KzQ8eOhx566NvvvAPP0liMvvRq36HDi+PH77nnHozSqnXrwYMHL/ruu1122ZkmYPesYWfCqW7dusPPPvvnX5ZQ+L//+z9uqk+fPnivPAfAfLv4kksaN2qg96UwylguOQ1szxqoFLaYosy0QYMGMFWY+ZgPfQGt/n3ALDGtMDji8UBYjkTG+gAgwkSFvDRxrohBoFgsFo5KiAu/UWwxpr0xyiQo5MeGsCASsXi8VijM6z8kqOiq5oxcQ58Wq4qQFv6XXu66687YI8g2b948HEZOok4kAc0ABNgmCVa7plIMveeee9KX+r322uvpp5/mlUfKNNmFC1rGL4Mt3HDxwDQwi15YPR06dIAAqw0coYBVBZaBIDNmzAA+qCFG9vzzz1KLJ9itWzeR1fPojrv37bffog28Ua2E8qeffho37r6lS5fOmTMHAUBYRoQPQnKzvI+JkCh5xYoVS5YsoRc3gj9L4eeff+Zefvzxx4YNCqzkytblTgPbswYqhS2rlIED+4dCEeZn3769mW9Mx2RCVrtjgLGwQVAjKp4dFhheIo8RsbC4yM+Jro2V5kVyUylz+mGA6AyTVKCNIkAGninbdCrdpGHNXPonpbsxzsriR4WFhUAACUCRQUyi8NtvvzVu3Jgr8IgcYxBgZZKDKTk5OVwqcW5uLvVKAxmtygeBKVu2+IzGEfOHINoFwZo1axo0aMCNQ8YlFhA+HUwowx8+1NMLYipJ3B5lvFQT5g8iDPj1+OOP4yRiJPIEkyURn332WX5+PiCIVMhJ/N5/IsBj2ZS3dm0xlmbjxk0bNmyMKQpoQly7dm0jmwtvqZpd7jSwQSdRZz7TqW/fXqhKL1mtFWa2yWs42DP+m9OgDdOYx4kSljeGVTIRi4S9BAu2BOg83nCR6U6Or2iWqeIignkhwvTpQFT6e4I/xks0yCJgxNBMdYwaQlrNmjWhZvnylcTXWEi17777ElyHAI8TegyZVq1a5efnKX5pOBx6LRiGYuAAJYggvczb0XDWyzZt2hCnB6fq1KkF8axZs+jL0AaDBIAAPlxRJKcvuSagBw48Gdh5Z8LwHt0R47TTTjM8BRPp9cILL+AY3nLLTXT58ssZPM0sLi7meSUJ2VQwUYsJYO222270GjhwYJcunagBWJcvX44vrK3kLjkNOA2ggcwUXE8ZsqTBYBAWEGV7GeNhF8/7xNMDMIL+K4TBVDJdqjs+0AsTjhmZCiXiwdI1ucXF0RIgLiwrTAWxWLcVSiXCcS/PC0WSq/MCq5sVCH/zbo+YIcxiExcSgKhZs0bv3j1HjbqMZ3yAAgFsjBeeA+KxconDOGfO3AkTXgd0jj76aFCAqS7oaEw77gkHEyCjQBMe3Lvvvvvxx59Cowky6hkFEOQBIs8oP/98+meffU4gnCh7vXr1BAQTMZ4o0l/Xo5HLKjRjckYjEcS9/rrrpr01bc7sry656NK8nBo8u2Q4+ANMWFtNmzYF12bP/uqLL76ELfUAk3FaxdnkTgE+CcanYqlkaYP6dfbv0mH0FZd++slHC+Z/fd21Y7p13X/N6pVGfrxJQN0lpwGngcphqzLdADwG0MrhXRDDS4wHjBHTs1YoHU0U5yWK8pNraySLaqTW5KbWkNdIUlidlyqsE43nJNfke7EWjer6nip2VzCITQQDO0WZ5GAToSue9A0aNIhQ12OPPZaXlwPQ3HXXXVOnTj388MNZgnDmmWeeddYZwAF9wRqwADDimR2OmEhlTEWsHvCOQDghKiXTJsoFBXWfeeYZHM9jjjlmyJAhBJsYFDThSaVyMDi4DmrQyii0nnvuuRdccAFiLF68mIB606aNgRfEVueUiBhMaOXhIGYUWAaSYoWZHOQSaSlTrzcO/mLlnXTSSYcddth777330EMPqbWFANAgqktOA04DmBsyqzc94QYye8xSLNMJQ8TvjD8o9hcruNj74cPZq+cvLVr0y28loXQoFQzjDmL7SJYOY2UATAGMkWSNnGCHP+3Qc+9atWlJysbzKdbTZ1aEM5+Z/9JiEs5aXl4+kSPjVFEtCTcKs0jL2gDklZvh3KPiDjk8QYpyBHRnBFoZglaSMtR6AEU5QGPKgtwgDr4kqyWmTZvWvHmz5ctX1K9fD/NKxbNKVVFXrlwNYtJXo2y02ltQznY4LSAG4TZiWyq2Srv+fZXr5S6dBrYTDZTNz028YcEsSDNYJb3kWl6nluAU8fZkMCfkdd6jdru9aqe9JryRSFI7AcgjQcWllrms4XnE48EBncpMVKEpC5nLSGbCh8waTqFi2isuYH9gjOh8NhYWE1wSNXBQJlqACfVgBEwoQ6Cj0KrAwRDUEMKnyUKJFpQ/rUqjoMPQQKoSIFJBgUCnYhbgpfDEIMYfDNSpU1vFpsbcn6AeHPQu6KjJDoSQJJXEViJ/htB9Ow1s1xqoMmyV2VnozQCW6o+XfsxaeZmNLHMiBhQz+wIqvql/lY11GrxnIoIWoSQdBKuI3+iTNbVrZASDXzanYCplwmemPdAhjNVEUhzJRi4FJuqphC05NZpUcnLtpQCR3ZRd1lGoMeNylW7UqAGrUrGJVCQLSWCWiVjJowvVEVKr5WjAS6RFCnJGhqF8mVuwwMQlwihKUimDGfkthJm+LnMa2E41UGUncR07S5Vm/ER2gw/JOlJWIgV5wBbCz2J6ZnBNl24ZchBMZrOFLR8H2Utewt0Ss2eKMpk1h5ICuZ3G1pah2kx54aowISWTdHpbPtRpWTHCXmacvnWG01Y4GIQSyIAMTLSQYQtmKMmMVeW//Ggr6aUcqNHRDaXvAlO296hjqWzZImlZGWaXtcblTgPboQaYStx1lWErg0WZ+DRAI2wkszgiE9siVsAsUJUXsOkCqEFs4Al6oIGFFMY7U7QSLjxUzFhYiKgGiJ32KrSt18msOGInf2UznF7aUekpK1IwZDnU0yZyI4/gi+WplFxay4gaDcBBr0mtJO1LjR1Fy5qrDEqTLQ+tVNoulGklL6cH7ehyp4HtUwObAVvAkGKSASyFrUwVsGSeM0rQPZM4EJY6Q5wNWwJyTFGZk5xPJq6QLElFHrJ1TC2dw9lzXjlnz3atURrKWlCssUCgBXLGsk3K3HaxaKIclG055pbGtpYjVmiDTO4k4wNSgIxk8c4OSqGcPNpXicnpqzy1bMd1BaeB7VMDlcKWzhDN7UQ1l2I9GTsEJDIRGjVK1OBSHMro0mAVwKSYZQ0wcMUgn+QCgmall/YpI9ZrlzsNOA04DZTTgA8o5Wq5tNYBZTGFyjsvglk0CWQBWFnGleWohcxCLoE6iP2P0pugmHDQWgouOQ04DTgNbEwDFmQqJrQejTo7hgjIwciSjuLgKXLJN1ey9wzN8nBwXTRT88yAlXbSjoRtWHMuTqReS0jeJacBpwGngQ1qYJNggnXeZUxAlgy42M5iMRnYkm/foMoU1BTz7SnFLBamSkGxT7q45DTgNOA0sMkasMhTQQ8sLKJauIe89UJOEqKMZYQBpTZUBT19kJIWGcD0UzJjjnFtHimy9kpi9Vky6LEaSupypwGnAaeBijSwkeWmIBeJTQvIM93Nm8QZg0uQS1qwnhR9TK60BoN8k8r2znBRLGMPGHmP0fiJaoLZdldwGnAacBqoUANZls567ZhXilY2wgUJyxkEaBSGfDNKXT+AiH0hMskPt5uXm8swCwJwimszrrG65D1EgT0ozXeGgft2GnAacBqoUAMbgS362KWV6iQaqKHaQBX4I0AlZQtYxNflY2oNEY2+a6k0PFsU75ALvZZcCPEbzcNGIXfJacBpwGmgMg1UCluAlK57YM03ES76q+XFxn4mGmWWwftmE56mPFvkyoSu5GEiHw7ICHnhmLcm4RXzhoxIYAytELt0scKUs3vCqRjHc7EWNRGgkmeKbI+62ispYddUMb48jjXT4JofVhMWSCJ2mSKeD3xSX12JobNGLxuF9Z9c8KahVlVIU0btSk4DTgNbTgOVwtaWGgLk4pAxNgcEcMAygEaWPMirxBxNJuskjAQCRuGgbMeXyzvRtLMJvQE+jjEELhUxs0SSlRZZl9VbzB7dwpO+ua2v9ejwtql6pXHcnQa2ew1UO2yFvbxgKpLxB8VIkuA+9hKvLRrIkj2qZMsbWcKF68hJP2E5bTHkYc2IxaXEAlJcmQ+Yxbcg3e/wz5eNWdnDqQVqc0FW8/pONo0rOw04DVSHBjbyJHELDCnYYnBGTrEWpMIrFMgx7y6KSWW26TKARDNGmfEkDbTJ6IKr7Jog7eVTBVXlSbb4NdikPPUxBbkiF5VYW7Z1i4/rGDoNOA1YDVQ/bBkA4qwfjsLg7EDWrRb7jqHGvzhIUSApYnagIqZlzloUaJBDNmiR5WHWqlIDjRzTLINkPozYO6qWgjqA2ahEDQnYIjGke9W5WvTumDoNVKSBzYMtmaibmsAkIluCWQJY78/+9ZMZPyWDNeR5Yqq4ZdMGHfdp1qrA40xFwSTxJoU5WMR+NoT9Q+wLkeQQCnNqmRnSwJQRgNLvYnABTyJSxs7SG8++xODSUFd2pZK53GnAaWCLa6DKsOUvH61UkPUQDVuJ8DqbuPPczfO+W1a6Il0nHa5fKmBQumpJyTfTFpxy1C5szYwoAJF+wAk5OdHz8oC8IEUMLnlSaZK4mGYnnPXGqlSq/6qhHBiJlWWADDsLwKLMw1ZyVoooeP1Xg7nOTgNOAxvTQJVha2MM12vH2ZPTFAVzCLL/sGRNItqsMJHLpu7pUDzmlSa8knHjv8tJx83ChmQqmMBhjKQDLRrU2aVp7U571KwpXdd3CYmBySKMDJatN271VAhimcRJPxz4yukbYBbvbI4fP/7AAw/cYYcdqmdYx9VpwGmgTANVNlg0Ao21MXbsuAmvTcJNM4u6yjiWL607QjIZSRLICucQuUoEovFAXlGgZlGg7iqvwapgw1XhJquCzVcGmy33GixYknx3+jcYaICdv1MEZhZmmLF0GIWlFDxmlKY0a2LL3EVtV6m0nOkhosXjZgWZkZJ626QcOC/atPgZrVpj75GwO0bWqlVrRo++6scff+KUWJoWLfr+yiuvpolu2ZJwCQftmx2517LmSq9iZOf04qM1SqN8ssVzZaeB7VMDVba2NAKNsjhC+dV/TcCB6j+gNzPKBKYr0CHTFlPL7rrFERdMfHmYaJ4uJlm9xUJTL+LvfirnlaWJZ4WDcVZ7RdJFwBaABHFZcAt6EE/WghkzzMAijyOZ4XxUDFvQeBS5zn/k46xocsCIU8coaC8K5twKqbSU9OJDjcULvU3DPMiKLXBHh/v8888bN27cokVz5QMZTZY/NGAl4xK2xzRDYyTFLKUHlVjGZnuptFaftNJJc4am1SWnge1cA+vaQpusDCZP7969+g3o/8bkSa9PfFNsIPNZn4ExGvxqYxGBYgnzcJD4FGVZviVRrLR+gK0gR7Ny3im5rOOCgvYAhyjKwggyCZSlgYzgggXfDTt95D5t2x1yaK8bb7olnqCrN/6lV04detpDDz+y/wHdxt57XzLlTZo85S8nn7pvu/1OP+PM8S+9fOihveAH+P700y+jR1958MEHDxgw4Lbbbist5fxEwSw+d9xxZ//+Azp33n/kyPN//XUpCMJn3rwFF110Udu27QYPPvyTTz6x6+Ph9uGHH+IhAoWrVxdeMfqqg3v0OLB793POHfnrkmWI9NXceX369p385tQhx53QZp99hw0/Z8E3C7HZ+Fx51d9uvY3R7uzYqfORRx310MMPGxWJDOPG3X/IIT3btWt/2mmnYdYpLjvMQtsuOQ1sDmyZ2I782e/Xrzfxnddff33y5CmVqZIBAB9yrARjKKQ59wIsSgfF+eMjqJRBPeNmZS7FItNGaWfe8gV8iKnCCRSeN+Lc83755ZcbbrjhyCOPfPjhh5944gl4rVix4u233ybSNGLEiB49evznP//h1GjOHLzuuut23HFHcIdzrSEjGjVs2LDPPvvsnHPO4STqJ598csyYMfDnpq655poHHnjg6KOP5qzpr7766sQTT6S+sLBo+PDhnOd6+eWXczj2pZdequcY0gQ3jo/u1KkTUHjnnXdOmDABStgy9NVXX42VhGH13XffMXTv3r2p+f7774cOHbp2LS88eT///PP999+PGLDt2LEjR2E/88xz8PzXv/4Fq7POOuuOO+7gnNeRI0eCiQ6z0IxLTgNooMpOotGawR+wRG2DDSrSf/KI+6ZOnUEi4EncRtrgEMCE8iFNvlkM5U9QATVqDLKCVCnzmo9sD806+kS89Lrrx+y88y516tQAOGbMmDF9+vShQ0+hFfftscce49hXMO6GG25q3br1vffem5MTGTCg/6pVq1566SXG/ezzz2fPmQPg7rrrztxFQf36F1544cWXXMKjwCf++c+//e1vxx9/PEDZbr/96Pvj4p8XYNp9//3EiRNbt26FSNGcHE5IBOQSyTQwtHrNmrb77othdcyxx55y6mk77tgMGoBp7NixMEE8wl5g2emn/5U7a9++PVj/wQcf9Ox5KD5jfn4+KFm7dk26FBUVPfTQQ8cddyyyNW3WDPsrHArsu+++oJ51OR14oSiXtnMNbA5s6cxhtr+BizhpUv/+/Xv37lm5Hv33DoE6sbx8pGN3eulhtuvy4Ultq2BaYk8mCXlZyZxLJmEgMbvS4Uhk551bvfHGxPnzvy4sLJw6deqf/vQnWjGC6tev36BBAR0VzoAJMEtjQ/vvvz+wheRz584lGgVmQcZlly5dwDuwSW2ogw46SOFml112vvvuOyF4+eWXoWdEeIKGXbt2BRzBOFy9jz/+mOeJrVu3hNUuu+zy1ltv85ARfHz22WdBJcNfbhUvEj6oDqNvp512mjNnTq9ehzIo9TVr1oQtCfGef/75oqKSQw899JFHHunZs2e/vn3JQS5pRl3cuktOA9u9BnxcqKoeeB160htTsFYwHPr1k2iRJiaoj0uZmqRssFU2CjhFxJ2oVTgVDPEBhbCiMLCISosryd5bSkyB6L3uKgG6iaOZjLOGCyCQGPnKlSv7DRxw+5134UM1b96c+Z+TkwOIlJSU1KjBIjBJ4Etubm4sxkJXyhKzJyClcXTsGhCKeoUhAAjfE/hjQ0TKJMFHcUjlyaCCBTiFp0YlXUyZCHuCpi+++AKYgwxuZ5v0448/Ap1AGEMzKLLBPDfXlwpAjEZzS0pEKjOKPOSAD7mCJkJ27twRy46g25SpU48/4QT8XIhh5ZLTgNMAGigDlE1Uh9oFEM+bN69fv35YWjrzK+vOXDOWhMUzsbP4yEs7/gdEWbe3PCs0NeYLEQOmEGLLHDN7meiffPYpwfJnn3/uhhuuP/fcs7FZ9FB7wAtgYoarnB06dMAe/O67H8CF0tIY8S8sIFr33ntvPK8VK1ZRzyUxLMBlr7322nXXXSngbwIuYAoEmE7Ll6/E0/zhhx9Wr16NAHQhyAUfwIjLadOmYdBxBRllovv33HPHBReMIOIGASSAIDy//PJLgImxVq1a+/XXXzMWZW6EoUFDyiRc3aZNm9auXYtQGkvALrrogsmT37jssssmT568dOlvKqrQueQ0sH1roFInUeekzdVkIMdsQWPEcUaMHK6qM2BSqRYT6ZJwIJcVDyyXAnWCyRIvWsSjxGSgBoZXCORiLgtuccar4FuJV1oznBPBaErFo8kS5GMNhKxViHthLC1BOnblShYU1A2GA8znngd3f//99//973/jWNEdzCJRQFTEJKCOf3fYYYfhfwEcGGJqIuF2NWrUiKA7IS0MNyLlnTt3btiwPh3hwyWOG9ExglMEoYjZA0y1atU6//zziawT9Sd+r6sZWLG1fPlywJGOauW99daUdu3a4m/ef/84nEiwL5GIsTfEVVeNxnXFnbznnntq1qzRvn07A0PJb7755tprrx0yZMjChQvHjRuHuYbgBM4++ugjnjMgA88QauTn16lbl/uRW2Ikl5wGtm8NVApbW0otEdktnvWgAUAH2KnBWqzEmvwwiyCIVEfx98TrEsAyOMM7PZFgNL024rEsdc2OTesL0hlR2IWLhfSBCMYOtloS3PnzCSfectPNd956M8/giK+ZDe+FFA8ORMD8Ab7q1atDjIlni9iGgwcPZgyeMEJTr15dgt/AE5XYTT169OCZHVYPQHP99dffeOONf/3rXwGmnXfe+emnn45Gw40aNfj73/9OqB4bCkQ777zzoMGb43Fh7dq1W7VqBc/c3CiPAsGgN954g0AYYAfuIAbyMO7FF1+Mr4eQrHe77777mjZtjHj8VTj88MN5nqiy0YWHhhhl4Kk+sgSCCYT94x//QEi5N5ecBpwG+OPto8UGdcEffCYPcwxitb82SF6uEXgCmiQrCnjvzlw+f1nhoqWrUuysJdaWWQ4hBpffKx4OpErjuV6wTjjVae/mnfaqmyfPO1PpBNaWxvGRQUw31lAQqiosXA0GGYdLQkXAhOaKQZ9/Ph3HjQUHWGfUYFstWriQ5RHAE11AtzVr1mIl0UvpNacpHk+wSKJWrXxuGexQ1ABoMM3wRumIJ0qviy66BLKxY+9WbtwDj0WXLl0GzFFWSWbMmAXYYbVhahWuWVOnTh3fYg14Z5xxVuMmTUBPYm24t4wCT8uK2Dyj16iRZ4aT4Bcpoycpu+Q0sH1qoNqtLSY99pHMNl7qCXtd2hTs5xXo2nfqmIl2HuIBkVjNRQ1iAVER80I1O3QRFApgbvnECkziMuVgmhXUpR4QSfK6EPPbrHdn5iswESp64YUXnnvuOXxAnMTFixePu/demoSVGRhgoqxoRUHC42L4ER0P8wGngBjFLNPqAX8UTFn6sz7+lFNOkWuTADgCVtmYBQcSbLHdWChPd5gr5DEonA0mBhDDjCXEFqRq1MgF+PRSpZVml5wGtnsNVDtssRYcVEHPgRDb0ng8TsPbwYAiKWb5zaaGTN8YpJK3eaA0rpHUJZOsnI9IcEfeuRHIIMhGmCvAxoK8SYMhJpaglA30YCMRhgs2b9ZkEss0Jk8mAN+ta9f99ttvt912KWczcmkwTgxJhIWD4W+GMJfw0S4Z5iIrY4E7Q4eeojE1I5EIhlAIqCKxJwTAhAxXjh5VUK+OwKGhYBQd9JhjjsrLy2ckLkMmaKhDEC7UAuu2KIQMmFIQ9jqSiOCS08B2qoFqdxIJScvzfYLuvJacTIXCUbWnmKtgU3YC2xTCwCbQSnaO4DqQ0M3nvYBYYIkkjqUx3ZJxMYLkfUaBG53SWoCnQS6QTlBDPTVry+iIwITAgdlwRrDAJMUmLZPbS2JYxKegV7Y0lePGQgea9IlhORksHxXGMlduDCHPI2TrG/8fQrtny2+G87fHsd1dwWlg+9QAk4Ubr3ZrS1ZfiQECAIE4AE0yjJ2kSCG2k3GijDkmGKVIJf8g9CICr3s0g3uyVgsUgwFJAmXGAJEV9iawDUPlqfXcG1ijK7NABIs4FOiulAbRkqafQAZJ66HRShlJECoFZlGwnCkb8X224JEOBAfpYCi1rDzhRkEhklYdRXNDLHVKqb0YSC8pqOQ6NHRaT8Elp4HtUwM6ccpZPFteFQaMsLVk+ahJZucGQkD+HC8b0dg8tiFhzvEhXgXS4XiBdCKqgR3ML3wl2ZmPR4o6pfVmpMaYUVwCJQAKXch1/muBMq2KX0AJl3SBbP2C8qSeVqUhp1ITlVqvBHpJE5yVzObaRE6rLVOAkhrlvH691mQzV4bZlK7sNLB9aqBSa8vOOp1aOuXKTbxNUZnOVGBrnSkrfp4mAwrGX5T3FAEIlnYBIkxyLvifB5CGVqe8rhFTS8vYPMb68lmVN2TEuJMIveTZ899Waj97U5bGFpSAvMLbL0emNLYyu4sdIruwPoHWlONQTgZ76QpOA9utBiqFrS2pEfNytJg01sJS1BJUknEyVohAWPmklLbjOs3loHCdNnfhNOA0sK1qoPphC3PJpmwMsshFaxYqmf1pbAe/YFd1GYssC63oqHzK93DXTgNOA9usBrIwpTrvMQuXABrCXMSwODXRxOO1zVJQ8Mt+tN62ZASkPqtjptZ9Ow04DWwnGqh+a0ueFZYDRwEdngaSsW+oby3xpU8VFaXkAaGhKt9XK/VfpxxbrXS504DTwDaugd9h5meMI9Vkme0ELGVGN5Vkvv0FpTw31E/ZP4APcGUVruQ04DSwPWqg+q0tY1UZxGFtuDqAYQwrg1gZUyujeRAuZBY6aIVCnPTVktTyYFGMNTHXoCyrN3UucxpwGtgONJCxd6rxVkEZgy7ZECNxejM0lVpvDC29svk6QllK6Sh9pMIZYOvoyF04DWwXGqgybAEvZa5cBSpa1yX0vFIvliD6bpZ0CtjogKzKTLO9ZyrGPlzy/p3Zdosdt7zgGi9Wyt5bhjNL4HkHh76yOJWOfASnWEDPPl1yAln5/QUrkKe6qnQtq96XjqFLWKs6nnLI7qucq8qnMnreFqBJ+ZNbga386wtQGatK6sv/i1dC5qqdBraYBqoMW1UdOSR7/LGqgdd0DOaAQOLksVY9zDcrQY0E8tMPm3XxuezdQJ1AGK2QmYMvMiu7zOjSX9emVlWYLUivq1jt8lE4s0zUgsKmDwQHemX3Vc6bzmHDlPpmEjT6koAKzIh2lOw1rpsh/4ZHd61OA9WhgWqHrbCXF0xFMp6g2FsCQRhsEt2S0XnV2ZxqwaNFqtJRzuVJeeFUSLawgRy7S4gFqsQrNLae2SpVkK46NLKJPJnhAAEp21DaxL7ZZHBQ5FL44JLW/5JnNn82zOESWASnkJnEJWNpPZc6FrlKkt3XlZ0G/pgaqP6QvNpGTBZ2eiFn9yxjKclrhVLHyzfmWzCJ//XdadPGFUmQTQ6e0CtTlckqqMo0/S7farAYKBBRFHeqOrK+ygMTBS/lqZVVZVUhPftSgFDkVkLgiVG0RgcCs7SgTRXycZVOA38cDVQ/bBnbKgF4RbyYFyj1vGLFIsUszhw0ZlRE/EEvlfB0Ty1QyqzcIubF29SAAlxIvoEmRYL6ClvaIlW/a1KDhdmuE95aMZshBKihmKXApziobDeDW7kucFOE0vpsYNJxGZSxVH4FzXIcNnYpf1hcchr4PTWwebBVlV+qwZyQYJYA1vuzf/1kxk/JYA32oUmnils2bdBxn2atCrwo0XhgSbxJYY4jyRvQLHZgA/pUsjQckgB8BqYgMO6hrfo9FZYZS+FAZ7sR2N/HJtO+qd+gBslS695e2TW2afMKYBNgZA0uyta2ykZGRrT3snkDuV5OA7+bBqoMWwZeNiDeeojGMivWKQQCPNDi892y0hXpOulw/VKZJaWrlpR8M23BKUftwq6niML01Q8IlWtq8kCuIEVwShd5GcDyw/vrjbUBubZ0kyILxgu2jJowm4c1qIGOFkqIoCtybSl51YBCSGXLQJazDq2XlBXgbKsrOA38YTVQZdiq8p3ILqU8MBSDguDwD0vWJKLNChO5nB+dDsVjXmnCKxk3/rscjuWRlRXJVDCBwxhJB1o0qLNL01qd9qhVU7pmu4RMPGANatnTRhr/R4mDzpjtBxxwgJotarBUFbyUXjlgE1F49913OSaDI8621G2pqQVyAUyPPvpot27dOA4S5gytTdRzSO2aNWsOPvjgqsq/pYR0fJwGNl0DVTZY9M81ltLYseMmvDYJAMn6+13RuOuOkOQgMaJc4RxCVolANB7IKwrULArUXeU1WBVsuCrcZFWw+cpgs+VegwVL4u9O/wYDDbAzgCZglYjJgzazx6C4jMT4eRApNRkxJKxvEhu9a73W2HqAhpS5b9256AAAQABJREFUC+1bVqN9tRUbikvlb1lZPvB/7bXXn3vuBYAGg0kJFAhM2edMWZOun9KycqbMwMpfpTXI4o0cef6PP/6kNdrqb45obi0e10eNwskKQzmbXmlsX9hCiWyrVq258cabJ06cZOQU/bCVtMmDkydPefTRx6nPHkuH0FHsWBS0rJQ6rmoMek3lLjPV7ttpYMtooMrWltoFDM55f6/+awI/9P4DNnQwNXjC33UiWSpvij2aA0F5mMiWpYACq7dkP/iI/0pPmqZ0iGN6gnFWe0XSJcAWZLCQs12TXlj2R6arl0yxZ6n4jWbPZZn/Zjt2JqdMKj6casG84lIDRzrTzKW/Toqpxb2Qm77+EdMIqR4fKMNs5xK2zH+eF8BBuXFJJfzZQp7uOorpKMcs0ks56P0qQwbS9VM0UcZxY1B6UiCEp9Iy/+m+cOHCtWvXclSHys9AWq+jk3P8DyPSl0g68qgw2RwYUWnoC6U8hDWSQ8mpkdOmTWvSpInSkKtyaLL/rNDTC/HkEYkhoDuf9ZNSIqeRQY4mMrArWrXc1u/lapwG/nsNrGsLbTI/fu69e/fqN6D/G5MnvT7xTX7V+lmfgUyxTK358XPFodTkgIrkRgLObtUPsBXEU+KUHnJZx2Uwy494hQStxGGUx47RWCx9790PDhx4GG4a563+/POvSPX88y8OHXragw8+2K1bd05Rpebjjz89++xz27Vrd/zxJzz11DPIAtQy06ZNe+foo49t27bdscce9957H1DP5Jwy5S0q27Vrf/zxJ9JRKj1v4KBBL7w4fvjZZ3fs1PmEE096+513xPoDC5BCPnD0pr397+OOP37vNm0HH37ki+NfppWOV1095vY77hpzzXWdOu9/cI9Dn8U0IyKeDiRTHjQn/eWUDh07n3/+hT/88KPBF9EEJ5hxXPYOOzS/4oor7777boyj7t27Dx58xEMPPYzMEHw9b0HPXr1eevnlQYcNHnLcCSx5++nnXy8fdUXXbt0PP+KIW2+7o7gkVlIa7z9gwGsTJiIbkiDe6Wec9cCDD8biyREjR745ZYrK/9DDjx42+PA2++x7y623riksBL+F2OOcx6XXXHNNly77H3nkUY899gQ65PPCCy+eeupp//jHgwceiGLvx6C79977+vTps++++w0bNgzzkDUVgB3dybUgvFxyGqgGDRjQqCJf/VnyU+7Xrzc/3Ndffx0XozIegjGyWsFHHn7V5kBXbCxx/vjwP4nfu3wykSotm9OqlbHMB5IYJxhEcXgEbrn5Ng6mP+KIIzjJee7cuSeddFIslsBUeeeddxCJU+kPOuigb79dxKTiLGjOmm7Tpg2z8eWX/wWHH374gXOnwTvOmm7duvXQoUNXrlz9/fc/0Gv//fcfO3Ysx9nCcMWKVYDF/PnzL7nkEg5nHTVqFGdQn3HGGXPmfMXtIwyq4AYWL/6ZUbBibr31VozQK664Yu7cr6n/6aefxo0bV1JSQk3Lli0vu+yytWuLMVKmTp1KTdu2ba+88kqOzj399NNXr16tZtHHH3+MVDBftmwZfWfMmMFx1oh0ww03vPTSS0jOabLff/89Z19zEDfSFhYWnXXWWZ9++ilK4IDrxx577LrrrsvJiXCeNqfYQg+rH35YPGXKFIAbK2zBggUcJUvlSy+9fNNNN3Xo0AGdoL2nnnpKrcvS0vjw4cM/+uijSy+9tFevXuhtPCic8riLt956C8Vy+yiWk7fvvPNOKO+6665ffvmF0TFb+XuAnYVOKDC0S04D1aSBKjuJRg7/R1mh71BOUP/JI/FzDZ+LhSXwJG4jbcCRbBloUE1Z4574P3oBNeoMslLww+/miVhobeHqJ/756Jhrrj7hhGMRo2OnTvfff//SZcviuCqRyEMPP1y/fj3q77zzrtp16tx1992cn9p/QP/Va9Y8/MgjWE/zFyyIRKNHHHlky5Y77te+/ZDjjuPy63nzEsnksUOG7LRTiw4dO/75pJNYlImrBTwdeOCBwAHIMnDgwL59+/7rX//aY4891OND2Jo1az755JPAEMQ9evQAIzCa9thjd4CA4DeIQ32XLl26du364Ycf9ux5CHg0ZMiQiy66iLvT+s8+//zQQ3ugiHf+/e/LL78chWD71KxVa9x99+HZAZ0rV63CXDrq6CMVF26++ea+fXvTHTtxzpw5gEjr1q2QpKCgALiBMxB2zjnngMW1atUCxxs0aNCxY0fQB0yBA4VH0MPAgVddNRomHPVI4nbg8PEnn8ycNYtbaNGiOf7pipUr0djgww+P4TVnFEsXzL0dWrTo269fXm4UQMS35R6Rk9x5iOjHpWrVwObAlqIKoMDBqZMmTeLPfu/ePSuX0n/vEKgTy8s3m/ijLD3MSlIfntS2CqbFnjLJGGqZkl/HU0nOtvbSC775pqSk6OCDD0IYPhhHt956CwUgBicLy4iZCcrMnDkTXNCjpzEHAA4OqWbqYnnVrVsXS61fv34Hw+Wgg6LRCNOP6T148GDmM5V0rFmzBlMRoGRWw42EwYLX9p///EcvTYzJq1OnFiM+/vjjP/744yqTsIlwo2hVLKNj48YNYQ4BDJGKRKsaj9gm8+bN69GjBzYgve0zRAQAs+gLARI+++yzylPlF2k8D8zifnfeuRX/HHAGXom4wY3HhYDmJ598wj8NJtJRRx2limJQupNmz56N3aRaQj+c2s2TRBjSF8PqgQceQDbG5abIiVvR1Lx5c/4YIANKwBCjSf7pe/VCh3vuuScE9CAvF9qjxiWngS2rATMXq86SJeyT3pjCfMBJ7Nevl2UAFvm4lKkijK4rSLUCnCLiTtQqnAqG+PA+Yopwt3yCZjebTPBeDiijhnkgH5ok0MUKVS4FB4uLS3Nq5Et030R8CAzDn0nIHOOvPZjCh0vgg9lLE7OaSZWXx3nYQSAFEHnllVfPO+8CgjLDhp09YMCgVasKGzQo4OHgueeOpPKss4Yfc8yQFSvWELwiwUQHIucoMxOM951EmH/66ee9e/cGVhi4detdAiyS9YjNc5pZmEOnzQNJEYDKaDQXEwbBWrZsXb9+w4KCBnidOu0RGFssPz+/VaudDAYlkdb0knshoo8MIIvcW8ZZpoAkeoMGsuXeueSuc3OjRx999IQJE5YtW47Hd9hhh0FgQEqeQqidCKVqCT5mLBERF7JGjRqgMIswsNSOPfZY0M0YYgJJcACzKHTu3BHmAwYMePfdd8FETDwqVVrFYi5dchqoJg1U2doyP30Rhj/LzDf+3NqaCkVkKmBNyS+dkvzyxc5i5on7pxXmyka1pBZ44p0e6E0txESy6CuYZYL0YMfue/wJI2jm7Fk7NOtBj+XLV06ePLlnz54KW8KEXgFvr732wuKAHswinzVrVsuWLfPzc4qL4+DFSSedePLJJ86e/TUW1gcffNCjR4/c3NzTTjt56NCTZ86cQyWRpr59e2KbfPbZZ0OGHKNsWeKEh2gmvP8qHyZn48aNAXEqS0uTt912G10YHQmN6eHPZ6AHyGDaE//C0zzvvHOY55ARQWNcxJs+ffrBBx+skjP5GSiRENOGGpoYoqCg7uLFi8Em+Gvf3Xff3Zh4a2rXrgUrjC+GoJIu/Ov8+c9/7tSpE8G7P/1JakhqQ4GBVMK/X78+RuY4/Fu0aME/JV4tthXxsho1crmk/Ntvv+Xl5dCXcSHWcVevLoT+wgvPv/CC8x955NEbb7yRGFzTpvKMUiQT5cs/tktOA9WhAfnTXWHSn53N9bdIzg+XBHyMGDl84IA+/DY5u5A8+5PNMJEu4VfMigc+dA0mS7xgUSKwJh5Ixv2dHNIsekh5yYQ8YUsWe0VeOBGJl9RIxMOpGFOWt4JivIDNQi/GYJ6L3ZSqVTO3V69Drxp95VtvvT1v3gJC5oTDMVWQkIQATDno8WWYyTR9/fV8YIUQ/uGHH0bryy+Pb9euLXADZMyZMyuVSjRv3nTixAlUvvnm1JUrV82dOwe82GGHZhhHTFbC208++fTcufOIQOMhYmMS/tcTZBmtYcOGRNCxOxYs+HbUqMuiUZak8/KlLMJgYZbOc7aKQHUMRH7EEYPHjRv76qsTFi367vHH/4kziEEEsE6bNg1nzYgvrhYR/TFjxjDohAkTeXSAS8tNYSlhxSXicQxRtNaxQ4fGjRpdeMEFX07/8tNPPrty9OiDunfHHUVV7ffbr35BATF14mjKE80AQ/ybohkMJeL3L7wwHv5EyghOiRFIr/btebZAsH/WrDmg/IknnkiMjBY10JQPl1dffTWOMzS//vrLd98txJtu2LA+zyfgYE0zyi45DVSHBqpsbVVViEgAJ5G4S4CFV2BQjUi6KLEmP8wiCOLDUTwWmcsSp1e08XIjwWi6OBKIR+JrWzatD9IxA0nyCNEsINK/4rylePstt1511RgmGLEYHpw9/PDDGAVwwaBgXim88qQMqLrjjjseeuihnJwcnvedc85w7BocKODs3HPPhTPeEJOwbds2GBoYHRgacAABedi3994SsmEe0pFQDlF5ImI4RN27d6MeCBDzw/PwpMAsJOGRJQ8lmzZtSpAeSwt4ANqIJgFJ6sZCTMLt4oknoXdcPLyz0aNH9+hxEM/7li9fbgNbdARZQEMCbYxyzDHHjBgxgtGohwN+nN4jzhyrPXgaePzxxyPnIYccwvNByMAX7oJeD/7f/+HAqjZUHiOCBxgtWbKER5ncBRGxI488knUPaA/04eEGTyrxKxmLeN8tt9xCdzxKGMJWWaEE/lTQiz9a3C8PGSAQOBSwluX4qhkdy+VOA1tWA5v0Ai0P6Yl586PkZ60/zaoIATwBTZIVBbx3Zy6fv6xw0dJVqTTTj3lglkMwyxSceG8xHEiVxnO9YJ1wqtPeLTruVZtwVJglpgTCiM6IV5VOJEsiYdadhhNxL5nG8ojn5+cxjZk1fHQ+g02ABXJq/erVa4jViNjGL9O4MjSsPKhbt472MpMOkEoRQiKsY2wlyFlYuzsP+wcO7L906W8EfUIhf50nqtA5DFdYgVnM1bzcXLRkImKych0aFUMlgV7Fown+v/22AoZa+corr2Bb4dJirEHDqghC4H/7298AZRhyg3pHIAI8yQERuRvzL8IlZDihJCpJFjjopf9kKiq4ozAKDeV4PAF0YitRJqkGKFMgeghzvFc6aqsSqPxKU1hYlEyKu61DgJtIZYcWji45DVSDBqrd2mJdE7NbTCZe6gl7XdoU7OcV6Np36qwxxa2ZiSOv8lCPWITAmIJgFotMZUU9taCEoFIazJI5LCYAG6eKFUB3nfzMNy0IaSZR6WNWpgYH0Ey/gGKWdieHLWhiK+kImcUI4wf5czsbjCDjMj+/BgUktUOrhaXzXEfW+U8NTeQ8mKNeCVgzwYotMIsaw5DbkvtS4KDAEIZS7DuaFLAUwoBL7C/qAQ7KVKqxYyQXek0KfPBR0GQULCOSYhDMqaGsuKbxLDpCrEitBIpiSgbeQcCgOiJSKXL547kvp4Hq0UC1w5YxSCTkwU4OwBA/c+YiYERSzCKX5kySN+5ME1vVQCkTV3Y4JToviyXMxJN56C+gMHYB2GJoQTYK8qSM6I90MSBhYkCyWIkaNQTIzTQjSC/WgZKRQ8OU1pmPvIoLgON11167+267CSLhpbJO1hhxyh8+EGgyc77MGrUT2MCo/woRlEom30T0zBJNBYuuXfcn6A6BCnncccdawFIJ6WDsXbkvxSaVkLIlUKTToe3NKgE0oI9SKp5aCRk0u4sqgcHoSBPEppeMrmqh0kCzLIyg1g4KvdUn9ZC55DRQHRqodicRJw5bS37xvAidTIXCUbWn+FFn5rt/X4AXNSbKJZvPy84RXAcSEnkWIyYku2+ZZCaEwTo8T3PB/MFqoFEhiQJD6rzVLky8chMpe9JCwyUEOlG5VPrsXmoTVcgtmwwCnFacNRVJy5ah7U7BysPQjGsvLY2tgX82vd6Xym/5Z8uvSrDds/nb+8pmuD4BrXZQHUilspxtK/VUklvVZdNrL5c7DWwpDegPrxx0bCnmWXzk3WlzKZ4U7w0n8UkAGBAIKDP2ESZSgk9QcnlFETtLeoBbhOppBM0CxnUybJjCSQNk5srfyt14OjK3mTw6M0ENyjqjqGcOU0+yNWojGCa+rWHpdXJqk6U3lodM0XJ8lIxKCtoKZnGpMKplZUjOlKbJAor2RRKtgUCZaD05xHSxrZShQU4LDRrMggwm1HPXyt8OoU2WAzyh4ZJEkw5kVWFrVGCloZVLmkgMQaVtpaAcVHVw5pKyVrrcaWCLa0B+uBJ1qubEAKAQAR+JnEjCkAKdxPgqlwy42QYWpJpAi3hQgB2zJWNqSdxdGEp3WaUqc5hi9hRigilqCKVJQmsS9FRwmd2LmamVOuUghIBEpdYoc73UnHo7ohKTK7G9hJKk40JMqwIEZSq11RJrd6RSJrRSA5nKRkG7k9OkfCDQu1BuXCp866WKR5l6HUs5Q6O9dAhabVJiFTW7Ox1pItFFW+FAWYXRnFY7umXoCk4D1aGBsj+5FXLX3y4vnbC2UH/0FZJtsFL+ICvKZMBAro1B5eeKYIAZlLiG5AbsuDSrS5W731kulB6komxWgymFy50GnAa2Cw1UGpLnbyl/PxWq9O8q+tDKKivGvBwtWJPBmzLMMjUZ48YYUD53zC6xymRha6Up62FhpTSuwWnAaWBb00CloABmca9qbZFrYXPunqi5TbC0RpMWtAaIynxwBSXslUVI70wjRSwsCXf5BDS45DTgNLCdaSALUyq/c/MGsjQrllVOWGnLOvBCoF02q2FHZfHyfBPMUihESYNpNfvcydU6KavjOvXuwmnAaWDb18BGYluqAHYU4M2YzVUGEONvV4OJZJI8bzKvSuMBhomu+8lsxSWr6UlSVtjSN6+tlVZW70e+MkwzXNy304DTwDaugQ1ZW0Sy9O7/C8yCgQUaw8yClABRZnRTSebbX77OafUJHDT5KnFfTgNOA+Ytmg2pgZAWjqH6hpsZjxcnUKJRvnEkCBXGmDKAVD6mDsJllqD7BhrU0tfgGt/CRI0ycR5lralDNKMWlzkNbEcayNg7Fd2yAha5ml22UBHtBurAIoM6ZdBDRcaSolLrjaGlV7ZuHaZltfSVPutacevQugunAaeBbVgDG4ItblvtLM31Mu2t5TRpOX2H5EMJ5RQv8UgFfqX8F5d9pqQyFSMXiJEV8Wz3JLlZWh1IxGWXLZJsxcWbflDIJdZTuY9PIy/7mDb27EpSkjflzApUhS8HYqInl5wGtgcNbAS2KlIBq9cFNfwmcdLEoePgLfEiBXrYsAGgk4eFVIY4A1HoZSBZnB3gpESzEwr7bwFh1PLSj1mcBdkG1o6yLpz37yBnFMqwsmBKpUtOA04D248GNulJYnl1+EaW2j66c7IYSiAKDqVAkRhWIcUVdlf23+ZL83YLZDTLmzTsl5nmxRWzxQPQJ2aaSZWBkWCieRsOKhbBAluAF6G3zAtwm4G/OqDLnQacBrYyDWSMpk0X24cXv0Nmez8MJbNdE6jEsRQpOc4CpxH3EHMLRAGY1KQy/iIApJF3ia4r3khsHc6CaRsSRU0tKPSlPLOI3yDmhjq5NqcBp4FtSgNVgC3FK3EKSf6XXkhujKF0kv08Q2E2c2AD+GI6cAyEAaZc41Xm4AamgziNZlMacRJxJMWX9LefMbBVxnKdkppjoJUWsLwyBWdnraMod+E0sM1roApOYga2zP7KKMYgV6YSJDJBKzag8by1nvfBjN8+nr04ns4tDmN9lbZuWtB572atGsiGpSG2zjKmlXiMpgzwUM/OWsKzcmsLnCJhYdnCNv/P427QacBpYH0NbJK1pdiknTGPCDFlGOnCK7F3dA8cTKdYQEytb5atXebVTObULUpFg6F44ZKSb99ZNPSoluxuqiF95Un0np1OdddTjjoMyuPIikUCqrCwSCae5W+qxzPJTGwrI5H7dhpwGtjWNVAxRmz4rkGcjI+YiU1RZWpZV0o8C9jikIviaNOiVE4qnI9nGEuWlKZLxj6/OMrhYUkCX6l4KhbNCQeSsZYN6+zWpGb73evVBrb8SFcF4wNY1AJenBLWrFkzDkBkdyeHWRVoylU5DWzrGqg0MCSLFUy65557OauZYuZZH0jHh476yWjIvFsItABfmEyxYDgejMTDufFQSrZVphzMKwrVXBmqtzxasCzaYGVO02VeoxWBxnOXpqZ98S3hMBkv7e/5p0wBKTOu5LqPJuCFPO+//6HsSKdjmR01WRuhe1SokOQc3KBM7I3o3pta6XKnAaeBrVcDlVpb+qgOsOCI41dfew28GDCgH3CA0WNMrXXxTqpMtf2S7UyDSXlimDCruVirFU3K+ixeFwryAZJkc/hAPJAKRYNrMdCALSgZ1+6PzqBgDQiljiHCqKuou4AxJFts0qo0ao4hnnqOmGLmvAz/gAY4CNIZT3Pr/ddykjsNOA2ggUphS7UDzvTu04vToidOnMiqhb59e5fBlYEpMYRMUtBSAwymoRQfeWho6sEs2VFe152atw2DMdbIY6ClwmBZ2iw3hRUGErEruz86jMEaDuO7/fbb8Q1Bq3NHjEgkk3wg5qxDDpp+5pln5s+fz6moJ5988gEHdKELnuMXX3zJoacffPBBixbNTz31VE4hVcNNoU0FdrnTgNPAVqqBMhSq8AbU5+rTp1ffvn3feOONSZPeFBxSiMoglu+MEadnBbx5EghTeVzIygZpE8yiAXJ5+dnkVINioBVv6ZiychQR1JJSswiUocARp0899RTHnY4cOZIz5b/55huwDErkueCCC/bee2+OVobypJNOmjdvAabWwoXfDR06lONOOUd+//335/zkl156SY1HBS8ZxiWnAaeBrVYDG7G2Nvm+fOxSekE23El5uYd1W2ZRlsG4tLzwozglhEIg9UKuX3JpEMyaRatXF2LogVxDjhsCzd5t2nC4vMatHnnksSOOOOqKKy6nnnPnqR8/fvxll13y8iuv1KxV656xYzl8FMCtX78+R09D45LTgNPAtqGBjcCWeXznYWRh2mBwgQKyAEJu3ZhpJtRlDCZqQC4MKx93jDFFGCtzTR9BKJtYfAW1tJs+fj2X/GcxC1sP24qj7bt27aqS7Lbbbhy/jEUWi6VmzJiBAwiEcclpW/vuuy/eItbWrFmzMLL0gHj8Tcw0NbUYw3K2criC04DTwFangY04iaAAmEUIqU+fPn379waMxKfTu1wHhvwbVwKC68lgKklMPIwXKAcgCqiJC8lbP16Ys8SSXsQEv3AkiXHxFFFhjZURIIu6cvpkkI1VwSnOZ2YAUIy4VTSai5NI2B4wglhWQUgvLz8/f9WqVfTCPYxGo/r0AOtOTDr1dYVDRUJvdf9oTmCnge1bA5XClq4bABG+/vprMGvAgD4KBEZdWb0MDhj7y1ek4hrV4hIaqBKskxWqfIAQsbMI2Bs7S3OBM+0sffUtIf8kUa9Vq1axWAwDCgKw6eefl+LxgWX5+TktW7acPXs2UoGtfGbOnGkWcwX33HPPzz//XAGKLgTm3377bborZwouOQ04DWzVGsgCoHXvQx0r8GjkiHMGDexLgdXtvHiTZNUBASvexDHxdhOKkpBUQrbVEviBI2TBZCLixUKpotJwki9axF9kWVYgFQvHSiOJteli0ItF9VEhNisjdA2EwRs1tQCaJk0adet2wOjRo97993uzZs6++KILwLhoJMQOEsccdfSD/3jghRde/Pbbb++6667p06fjxiJD79698RavvfbaBQu+feWVV0877bSFi75ncAFRvlxyGnAa2Mo1sJHY1vp3ZxwyqsvhXTAUNC85Gz+O5lqhdHGiOC+QiuAkck4ie2T5FhUb1mBQeTXCoXA6EU6XhhOFOzWpD9IJ2GXG80HTOIw33XTT1VdffeaZZ7I+CwxaunQpliBm4Omnn4pXCGD99NNPu+6666233rr//p1h0KHDfmPHjr3jjjsee+wx+PCE8ZRTTlZTEePLJacBp4GtXQNVeJVabxWbCnAR00mTWdlgiglZliX2lFfkeR/OXj1/adGiX35LAkcE2QW5QDxj8ZhdTQOhYCoWx9SqFU522btVl71q8boiyKexLRvh0gLGV1FRCRhEmAt/EPRRADIeYrK4uJgj0WgFzsghJtwFNq5cubJWrVpulWnmn8p9Ow1sIxqoMmyBV2KyZEwnLjCdpCKd0B21CMUnQl5xivd7JHhvCVVhWqOgRz8sLFI06eWzCyqWWmYDLkCHejALJCKXqLtJptqPzYNfmeqyuJWumIdWTLqMcWUrFdGUlcudBpwGtlINVBm2/OeIFngACOt5peWBoGIRpRj7mmJpZRSj+MWlLQBF+gG8xFmV7phS7Afhg46FHoUbnh6yoEH5ZQOQGlm2lwWpcpCnHV3uNOA0sLVrYHNhK/u+jZ+YSqeMtSW7cSUTiRAL2YEoYCwDatmAlakT2FIzLW3epDZB/6DijoKUhSSLU1ooB0kW4Kxc2TUQU6+eozXcLKUrOA04DWwtGmBeI2qVYUuxKGMzYRcZ983gEAzVLRNksXAVFMgwSUwrv7t+SQ7cyf6CdGENlrDJQJriDoijQIPHBw3tij5cWgLiWdRbONMgF2TqJFr8UgIjicucBpwGtmINbAZssXZUscUAlsJWpgpby7w9rSvpVS8WtpRIwvbS4CMXniQlQTRe2CZWBYqVAyaLO8qO3GAcoOQjlzDLimRZeFLIg4xCNrRZPq7gNOA0sDVqoMqwxc4LYqPJvQrWiG1kLhTJKGbH4KEwuzRbIgqEuwxsUSRllqEqNx/LtMnlTgNOA04DFWmgyuu2MkwEsyiDU5nndX4LtYpcGXDSIbDRFN4yDPgWzMtQZVW7otOA04DTwAY0sBnWFgAE1ohrBzwp6ph4lDWz1kUiC1ZiWGmSlRFlzx9NXTmrLUPpvp0GnAacBsproOrWlrh4fsDd4pPYXNbGsjilY5k2KdIxg1xglsUwWuBjqbSTy50GnAacBirTQNVhC7sIjOGhoWFZzmjyh1HkUoqyHKRa/6VAhS8BQN3jVMkrE9fVOw04DTgNVB22sJOAlkxYXYLzgjSgj9peJvehqgySVNGKZlpWai0b2yu7Qqtd7jTgNOA0UIEGqgxbSUEs1liZN3fKMEtY83IOuW8u+e8qshJCKg1gUcgiyMawLBzM9BeGLjkNOA04DayvgSrDFmiDERVS80rgBqASU8uikHUb1dYylIwrgOWnMlIqMvXCJ0Pgvp0GnAacBirXQAY1Kqco15LgBEIvbrbcYtctdoonXMWRhfIF7ATS8UA6EUixrRbniWGWhdd6q5Jeqdn6QaCOx5AJnl6y61Ygxs6nkgy8YcJRzyYSlSXe+BFas1CeAutLK6PUen2hJ7uL9s3ON4XPhkfZ9FaVx4qtBSvkpvP5o1HqvwtScS96U/bfqEqiKh/Ljb5wM6z4fdhPlVg64m1WA1VeABHz4qANb9OY1fDohSuBH0ER4EhBiKVcvJlo9t6Ke8X4iZFUDu14jFCYvecFfoLsPMiX7JssG9qkghyqGNA9ISCuMPFTzl4cXyFNdqXSa40ta4Epoa8N0cqU02X02X23eNkKD+cq3cUWl2TLMrSKha1qNbtm08eyfelu/2kMZlke+ofOXrrCdqqBKsOWwSejrGzLSE0f8szvird8gChAKumxU2DQixlAwqRKclyrdI8n4pFwDpvLC8NgAhQU0GM2Wxbr/ovwU9Zfs/kLLG1Cm8nXpfWvoF+fwKIVrXD4fQCrQvG2mUrVYbZi11f7Rm9W/zmUzLIyl/xlsynz87IVrrBdaqDqsKW/InEIMwpTzNIrE4mPU2PsLl5HhEr2pcGFNPvYSCCMDZVJ0l3j+kl5WUgwiA+/y438NPX3nf0r15HL5RDIIAbaLDHzgRqSrdFe5S7LsdoilypPtkjKFmG2CP//LRMFGnJuE7t1XdzZJNHoAp01svAW4WOU42BrkxS4XRFVHbay1ZMNWAaqErwPHQoSoir1ZI9TTfwga3HiDvhFoxzkIyCVDoRLE/FokN0fxDAThCGuD4KFKoYt/qTrK9b2lw3zTbeVslHD9mJu6EmxGUmr8dsio0qiaGUrq3HgambNLZDsP8pmAJYKCBMKqpbNZlLN9+rY/1E0UGXYMuikoSz/HvDtSOlUwvx2gzHPW+t578/67ePZ38XZuDSVGwkkWzTM79Rmh9aNBLyAJXro31D8RQmDmWVgsmsz3CtGLTOEcesoZf0plvoNJDsBzOQqm11cWjMne8JsgNUWabKIaQtbhO3/kAnaQ8lYRpv+j7IBaTmlicPilCD732gDXVzTdqiBKsOWDzjgCyij/g2PCSXajkdIjCpY4oWws56d9uPcX2OpSO2SRCQSYpP4omiwtP2eLbvs4RGc12UXbFRKWS/xHTkJSBymymPyTA+whoT5ho0WiyWi0Q0t4IAMhtYJ4895IkHoXYQGYdXU+j3hAwEQxjhDZose9Yy3/h8d+EJCpfpHAuhhE1r+map6ZzDRXhzZy3m9dK86j6qO6ei3Sg1saNpv5IbkKaAxnEymL0cHZT6KJbX4lxWpcMOiRDgaYqObVILIVio9fda8WTNioWQ8kk6y+WlOoLTD3q0679NcbC7msPasfFTriTAGv2wOQ2QH1O7du1XWQ0QBXeUgRQIugF2aMxYnTZrIYbGDBg3S/Z1/hweI5cSbMmUKNb179yxXv1Vf8k+joMOfgaeeeqpz58577LHHZtwRTObMmfPJJ5+deurJm9HdddlONFApbKkxIquxjIGgEIBS0ukE8Shx7cxBibJqKxDkYGlwyQuHQR/+TPJ3NkLsKpE4oGPdgmQcN4JIPESRFIdjYHnJ2dTJeCInGuQgRbAFZDH8sdVkVRjxJv27nZ2zKkgNJZEBmAsGx7/0EgdQd+3alXpQjOOp1QozQgpUcXLPhNdfP/LII/Pz8+iSSCb79e/PnqdDhgwJhXTHerk7RidhiGEW2lH0D372vautpDn08bjQS89M0qb/Z+9MAG2q2v9/zrnn3MHsmkLkIlJJZEriXvNYmmjOUClUotLwqkQTSWgeVJqREEKiUJRQSOZZJNO9F3c459zz/zzrOWc5rqFX//eW320vx75rP+tZz3rWs9f67metvfZeqkkuZlhUN46vvvoqnbxFC4GtTz4ZV7du3apVK9tyLafKiT6ShNigPIoN20eRQq107If2o1OjLWnxBcgOypUz6I50E3Ki1oIoZyRF/h4rUzW0+qempg8e/ORdd9119tnV2Q5u5syZl112WaFC7MoUDtquNJeS1DJWwvTpM1577bWrrrqqSJFCJGE548fJleJHiLYzDEpHMZL+gosnEp3wf84CXO8TBdp6MCfkD8jzoUAwRFweFIVYVRgM5PhzQsHMnEAgFMoigcCBThAMZeSEdodCD7+/vM/Hv43fH1oXCv/Wh0KbQqGtkd/mUEh/v4dCh5AvIvyhYJZIolxacSQQjz6FjDKU1vfe/nfc2dvwCys9gSNoIiciJMRNu+rZ1bds3a6a/7JqdVLlqqtXr1XZyi91M8wcNS8UW7hGlIfUXBGyKIPlVwaRGJEWzaAlpqUd5AcDp5UrV506dbrVGWYk8NNcKu1YPen5ZMdKaihrHE6NWGPLCINycrRsNg7Fz5VEE7nOevVEApt+Wx7QEDZKNKVJqpZChHC0TKWEdu78XWv03XeLqlattmPHThK0FsIRFZQt2nqwQdy1a3e0BdDBZrLMUIiriSxDtG42ixPJfxY44dwWbtQrr7xaqVKldu3a0D70y+z0sc0bt9x555269oqBH/c37oJm0x3eVsSn8ma63PtdrpGfrNofUzozprA354C8bu3KicERC7EwXvwtdqHONj5OnCeYEExtfUG5hjUKFQi5fG6/G0ctMsdBhA5zxRVX3XLLLXPmzv3uu+8uuOAC4s2apVDqI48MTE9Pf2HECLyt+fO/HTp06NatW6tWrdq5S5drrrn6yy9nDxw4cM+ePeXLl2/cuDHDlqeeemrv3r1nlClD/Nlnnz148CDHBQsWsJdis2bN7r777rg4ina1a9f+2muvnTFjBoNQdroe9txzDCcZXTK4O/PMM0eMGDHnq6/efPNNXBXYevfuHbnbyw2LOLZSr3Ddug0vvvjiN998U6lSpXvuuWfQoEEvv/xyjXPPeeyxQUWKFMEHvOOOO9asWVO0SBE0/OKLaWScNGnSZ599tnLlyosvvvi222678MILsQCU6dOnM6odNWoU3mWLli0feuihhASmBF0zZ375xhtvrFm9ulq1av369WP7bvVc1B8RhUyYNGkKkhs2bPjhRx/hxdx1V5+ffvoZj2bRokX4ejfeeGNychOyPPLIf0qWLJmVmTlt2jRsgoa3336rivr99z+o+Pz586EnJyf3798fT5O5RSivvPIKe4CfddZZAwYMuOSSiynwyiuvpmpcODYG3717d9myZckyZMgTQBJ78c6bN4+L0qRJEzyy8uXLojBsBQoU2LVr15w5czAR2/cyzPz44w8xyL59+7A/WRCCBdimFwtza0T5Tz/9lKtZr169Bx98sEqVJJCLywSM/v2j/rCVnT9/owWOGiBEl0v7oC3Se6dN+4J+yCkRfP4q1avLAMuADq/v6LS8PEyUTVsBHdq5zG3xPDHb48uOiTscU/yQt/hhb4mD3uLpvpJp3uJpMSUPekpmJJQ8GJu4z108M7bE+p37JJcs9fJxw6Qw2h/KEKEtrl69+uGHHy5atOgTTzxRqFAhusSqVb+Syq6uHNGNm3O3bt3YmBpgql69Or36119XM7cCwNGI2c6avnrRRRf16NEDscDTDTfcgEPRtWvXpUuXAiidO3d+//33Ea4jDoobMmTIeeedxzbXPNXatm3bmDFj4uLiHn/8cUaddJ6pU6cCiK1atWLva3ANyxhVBbOovGLW/v2pt99+O/0Zzg4dOlAKclRhOhu9sXTp0vfeey+1o3QQBwmYmh6I2mzBjZ7XXHPNxo0bkXbo0CGw77nnnqPiyJwyZQps8G/Zsg2x4A7IVblyZWq3d+9+rge1IKAJEbkYLhcwATqjdvfu3Vu2bLlt23bMBZ0qA6DGnqtRHsVAjV9++eX+++8Hx4cPH/7RR5/Axsa68FBTirv++us/+eQTTAGm/P7779ABDoa94ObNN9+8Z88+Cl2/fj23E24w7AfO+A5k79SpE3SsiqrEQb2ffvqJ65KZmY3CW7ZsAYYOHz5MvZKSkohs2rSJcgG+Xr16rVixAvukpKQ8+eSTEyZ8Ch0LjBw5ErHcdbgi5FLMouU4mIV9/hXhRA6kDqwmT5l61919p3z+xfQvvrzr7n6fT52REQpl60iBEYP56SgyJ8TIIpvxzf6c0DZGcOPWXDcxtdPkUOfP/NG/LhODXSaG+F31WfaVEzOunxLoPm7HuOXpB0IhlYw+uVz9s85KuvXW27WU9IOHmzVv+cTgJyn5vvsf6nPXvQwTDhxIW7rsZ2XIyMy+oFbtd8e+z+myn5ZXrnL21m07YKY6S5Yur3p2jZ27dnO64NuFJK1dt0Gr+dmkKZzu25/KKePKQU8MsYPi23veeeVV1+iw9POp0yslVVm9Zh1s2f4g8ffe+8AoLFbUcRD60KVnzJhVvXqNjRs3Q0eTT8ZNQP6SpT9RdO8+d/frP4BItj+UVLkaFlb1rrjy6n797yfOLys7QDWffmYo8ddef7NK1WrkpVB+n06cVK16jd1/7J0x80tkbt6yDSL8i39cmpbOaDsc0EEHUKSOeftdRsd79nJlRJnhz7/QvEUrDMVpZpa/42WdnnzqGeK33tbzvPMv2H8gjapx+uBDj7Ro2ZrIvPnfkn3N2vXESZj42WTKhW32V3OxAOaFiBwuwcFDzBCEal5w4aTJn0P8ccmyimclbd+xkzjFIeTjT8bDwG/Dxs2cfjXna+K33X5H+w6XUQVNevudsfXqNyQ+f8F38Gzb/pvSHx80GDb0R9smTVMOHc6EzlTa0qU/AXBa7VwtJ2IM529+s8AJp+TVd+jYsT0uD+Mj7v9t2rRp1641LzSLa8Xg0u93e2WJDR4BncQbwzx7iBkvn3HgeArujcV94gUfjy7swgmQt3dw0Mw0v5lnDWT7/YVjvHFGC8Sa6Xl5Cq5mNjw5PPjTeXdKYXI9OTn5119/ZQaEouFEz6JFCxcrVuztt9/euXMn93kGdDhTaKVzNMIhnDLTH5kEcS1fvrxcuXI6F874t379+lQQ56hevYvgqVWrFqeMg/BW6BJ4cDgFlE4p3M8rVqyIQJ4AVKlSxQh09ex5Bw4CnCicmJg4fvwneBxnnHFGUtJZap9GjRohkLgG2JCMTBMBX4SMA4J7CPYhmaLJQjVJwuPDGqikWVTUhg0b8B8Z0zHh3b59e0bBzPGTa9++A7hpSKM4hEN86OEHyV6mTBmUh05lcbvIjmeqbLhX1OKBBx7g9NJLL8WYRAgMVBmI4WrhfjJGO/vsKhAxI7bCpBBr1qyJAu3atUMHFMBB0/UoFI0p4KRcbK65MDhxZFIjKo5lCIyRmzZtCtYgCuVJIgv1VVsxWCYvDiAZqcvYsWOJIJks+L8U2rp16yaXXoq/ybUmo7QFc63J5YT8bYETwpatdocO7XjuRrNo06YVrYIBItO4zFC5aZFMyTOVE6uLdLyMEnmMyPAQnCgYF3soOyvBF5+TI7sfMuuly61knUSOvKsInqlYbr5nlCoUDxAEJbsZ1ggeoQCF0l5pqQkJCVYf2nRGRhatHB6SWJbPWI+Hg8xqMWMCppBFmY18d2wsOkhX0UEE4zJSyRjhocULNEAH5gR/TU9DPnS0QJpS6Bt0by00Pp6uJfNu3PCp7eWXX84kjpar8hHIkJC6qBDA1O2OiUAtkgkinLogEN1AB0gURA9FMVKRA/6SBA/Vj9RJVAU6GTkWL16c4RKBKb8+ffpUqlQJlClUuPDNt9xCfpRBIESms73e2Li4BIojcExPP+TzxRUvXgKDUErHjpfXqVOH2oFp0Cla2QoWLEgFqTIV0UqpGYkjGVuVKlXiiy++mDx58rx58xiyJSUlffzxxyVLJlIjgkiR4sIRsiCKsbZWBFFUlVrAg6oEFU4OOKkjp9z5yF6qVCk4GU5ec02XEiXQ2cUkHc7sxIkTZs2a9frrr3M3HT3qBVuQKdY55HMLnBC2tF9RexpKmzYtiYTbPQ2Opiev4chiB10CYLwk2X0Mj4J2ivcQDGT7vK4AC7YE6Fz0TmnCHPn0spkP4+EQmCMLUUPuWMnvko7D82xZYGVm+iMtnuYOMHXuco25qbqY7MD9MYrhmIguzLgxWc68NfLp5Ewek6oBCpBRqlRx0ysEEQz0uM4555wdO3YwxMC5oBz8GjIyO0YRlG57kfZhKGRURIONQjk1yoC84iO0b9/WyBdbabdkNh0g+/rreU2bNoH5o48+QhPQBwa6JRTYQE6yM8sOoUCBeCr1888/8wCEVCg4X7Vr1yZOACOYyapYsYKqCo6ce+659Gpmsm+9lQmr7qx1AjqZYmfG7eabb+S+ovBHXgozVRb4QCwS8FPwffr27aOnaWmHqZRJDeHgMLTEI+OUySwcUuyDrbZv337gQFqxYkXQf+3ataQyBwfU4gh369a1e/euy5evZAJx8eLFbdq0xnpaR9iQjJ4UhG2xG/KbNUuGDiIzpYUQ7IB5sQMR2AhyM5BLINeIUx5NKGpzTyFXQoIvI8OP93ffff3vv7//mDHvPP3007t2PYg7Ka3LCf8OC0hPPm6g6dIK+OEBEben2R5/wMNntugBNDRP+BVCD493snSHC7LQrWm4OTEBvycrPT4jIzYTiPPKClNBLNZtxeQEvH5XgivGF0xLcKeVSxT55t2enOyAH2DDiaMN40nxQNMT42M+ZezYD9et2zRixAv07bZtW9N/3J5gMCeLRs5wDAz6/vvvGakxeU/zpd2Tv0KF8szGTJ782bZtO0z3oD8EeAkJDS+qU6cMk+J9+65YvnLRwu8fe/TRixs2PKNMKeMwssIsR1efiVY5AZ83TNF4DivRKIBRGJ4BrzTxLMJ0M6pMKeiP5hfWrn3Z5ZffeuutXbt2YxT17bcLtTfSjc0IWGCCRWuVks7EYVm7dh2nDO54QDlhwsQ1a9Y9//zzoAbjL+hUh1xMPPP47/vvFz844P6LG9YvkVhs2tQptS+84KvZs/fu2b1m9SpuJJXOqiDuKv6tcdnIi0p8ciPGizHwE8M3Hqz3448/PPvssC1bts6Z83XTppe+/fZbZnDq3bhxIw8E0GfSpCk4MjxMQAijUdwcHiCATSDjwIEDGahCQXOGrrNmfcnzB8bXlMW4j5IUPhCI5wtUjR8/fufOXTxRSUlJeeSRR+bP//aXX35FGgNMpvORD8yRBVdUNcSb08tHKq4Wj1C4qZDllltu6tnzNsQOHPhIixbNfv55OSNiFObhZvHEkpSqrQWBTsj3Fjiht3WimgM8dHsa29EMHhwvGi43d7ouoXBMKCOQkcCKCE8gJscTl5MFLJn3anhYGAT0PLGxAX9mjCu7QuliYSXwuzweH2iUg0cjXgyiEEnT55bLAITpGG7+PChkZTy+D82dJLroFVdcMX/+fB7kc9Pm6RWjRahoWbp0SYg856Ldv/baq2hFl2AAQiQxsRjzI48++ih5AYW2bds+88wz0OkwCIEN+epPwQ8DZZFKkDqansbRlEKPE1jRvkd2n9fH0iu0QtuOHTvi15QoUSo5OZlpJkn1iXCKMLDr5knZoMcHMznFVBETW/v37weweEKXlJTEwzKzAEIKBQ5YtMFTPFyzJpdewhM0tEJnfR5nRl6eIUOG4NFY3dBT4cMbI2tTKRGrcsvALDhxPAMlsHYBdwkviQeUKAwbLhuPHYFL+IHRvn37IpCnje+88w62gkJNmzdvzmNN5KgCrGOAyIgSvDv3XPGPkMMRgYwiWSMCFuOg8ayQXMAWD3CxFVDIpBUMYge3G48Mq5CLAL5TOhGcO/LyuJNrhMPIvBjrJxDLg0UWSSCZXDxCRY4Px94EbZoad4752AIylXBK1cNPoAebpVgmH/5IOD9ejPhfdA7eSVz4S9q6Pw5v3rU3MyYEbHkZDjJakUOIbgTw5YizFCwQ56l7zpktzi9chJQgdE8gdOSrDIpcrMmkD9O3WTfA1ImWhtoEOoCWDsrQpcERQCGCMMJI5RiKCrQwtyQTt3h74YykIp+mTy7GKCRpRu7nOETac0whUgpdkaPJIhE0FyAwaKWgcISBYbDLzZJLcLZZs2bnn38+5b733kf06h9//DExsYjxa8IgCMBhMfokS8ZMZxedGdWCzhHcdI0d+x6BgTBDRfQpkMD0kIzCqBHM6K/zXPR2KqKKQbcMGrHqWTpqqMVAQGpGcSzHw299/PHHGYsx/EQadKst6kUsLM6b2goiyqMYK9pVYSiaZHSQW5xxozC+Wg+1Q+hMoeaamDtg5GagaqudrZ6UdfhwBsT4+DikqZWIZGRkIoH1a1qi6mm1RZQT8rEF/oK3JSNHi1ViGtP2GM2JM8V8e9ATF+NqUKNI7fOKhFxn8EYiQbupDI0MO6ca55T3PuKFaF7T4C5tvANtu9pMDRIJoUSJRBqxmXyRWzRBgMPcmYEGHjJqC9b+g2Q9BZSQY4Nm5JSOweiEyXXLGRGuhUsOmOWPca9sz+dUQU35iJNkuOSg/Y3RzcKFC3n4xXM3lpXxtK5Hjx7FixdBN9CAghAs7o+Zj7fOHdmRBGZxpEacavlAA6d4RoIIFGAwSxGK/k9AAVCGo1VYNTES5M6EqiafRkQsaoBNMFiU0YpwiptjslOUsGnlyMIEHHQCcSXCDODyPAMiGlrLhysYFK/TulHKw+WjIiLFBNAW3Qh6qvorBEPRmuqVpVArn6SwNTSbce7UthGC8zc/W+CUva0wYKmTYzq1rm8QI4XwtAjiUxHLNt8FVEbt1hG/TJiALZhprXB7Zf0EA0yZQkIajdi2Zjrn+PGf8pCbxQp0lUjzDjdoEWQCPVabOHk1okfoULQ/0yUgEjilk9uM0AmckqQR7TaaF7qNKIOVFp2k2WGwPRCsYeaISWgGWSxebdSoodXfFhQtwRJtcQpMQB7LKZhHRzd6JhZQJW1emxEKIfpU49FHGFQs6gGXJkf4gLZMfjdoUA/5WoTVBA6ttYrSVIicIi3amNb+VrIaUwvV7CoNTiVyqpebiF4stWGuqxAtIbpGViYRJFjdiDshv1rgr8JWtD3MOJHxTox+w4FxItMT4AKtyMAYvEegTR4zyq3VwlZ4vJnDczUZY4rfFRmRScYIlGiBmqRdiKN6PdE8yhBN0YxSYtSbH7ARbH9T/uiOQap2nlzZreRoBuL0Fo6qD/2NCNKs/IjyArsKXtElkmrFHjeuHdhqojyaRXupxqOFWGbVU48wqKq2auoWKbNFVU6VXwvKBQS2FMtj2ZSi2lo2lYYQKycXHsFAgJ+AYnoVooVHVz/6ImpGjjBzJC8SbCk21YnkJwtwianOKcNWBIsiwyKARsTIwfYBaXMWsdxmgaob74YsTOXAbOAJfno7CynMKA92VYiGp53KNlBti7ZF5qJLwZFupm3dciqdIwI1iaPpPlJrbd9EYLBtXemwWSIU2x+0aI5QNIuKhVkDSdAtvy2FVM2rFCuB7FDAOI7ENQIzQjjlSAiLNi6J4qCKii5aBapwshAhqBwrIbrzk2rpmjdXoQiHonZTBWylOCW71VaLQ4jqFq2VlnIsRQVaHYgoRVWyRWtBVk8rh4glwqMK2KOKco752wJ/AbZkoabpTAawFLYiJGDJLJyQSfdIkFesBaokRMGWgBztVboHkzzSK2RJKvpwCOfW/gmDNnHb0EWSCVAI5OVMm7WlEIFoRSk/x1wybUZlsKl6ihCVYPuM0jlGy9c4RJhtFo1oxmgHxDIcKxMKqQpeKkplanGqiWZXPY+VAKcNNjW6UkqM1k35rVac2riVADE6oy0CTuLWRBrRo8qBQbEPotJtFi0lugilqHCNW2bLZiMq35Z+7KnKcY750gInhC3bbmhttq0YonhP5v4IWLCwiWZuLGOghqjgUCQYrIKgmGUdMJMFfrjFFyPYJwNHmCMynL+OBRwLOBY4ygJhQDmKZk5AK0CKwJkOEIjoDdOkC2YRkWQAyGCWoUcgKoJVTKMrHaiDOfxTfjMpJhKUqnzO0bGAYwHHAie1wAlhS3Pp+It4FGABOThZklEdK8EdCZwxNpThIQ8H+RFRdCJN3TNzqpkkg35bhfPwhL2A15/oI9mc4FjAscC/2wL/FUywnvCIlUCWCLjYzAa5BLaETV0ne1Tw0tMw0LEwVTgV+45IdmKOBRwLOBb4Lyxgkec4vDqrxTiRD8iZ8aJBJ/WgzHy6+lDHyRkGKUmRAkw+ZTPuGOdmbp7F1jJXH6WDbquhrM7RsYBjAccCx7OAnQs/XiIOkQl8ciBqkMhy9iOjOUEuATK8J0Ufc1RoMxgUdqmUEl2IwTK3m/2qxfMyDyCNsxbN48QdCzgWcCxwjAWiPJ1j0vCwFK3sDBcsLGcQoFEYCrtRYbjBeQoT4AtPt/POj+KaSocBnCKzKZc0kcQGifyF0/xVRufoWMCxgGOBE1jgT2CLXKz6UdjSp4oGaiAbqAJ/BJYkLn9NwG+Sn6EaJkM1MKc8PFuU0SEnei5HYWTcaB42Gn7n4FjAsYBjgRNY4ISwBUjpugdWP7Jui+zqefFhPzMbZZbBh90mRprybJEzM3UlDxP5sUFGjMub7UoPuPhMvHl12jhaMXylixWm7N3jzcnm2wOsRQ24IfI1BN4gTuNDA3w1VZwvl3wP3azAVMQ0VUAT8csU8Y6A5Qmq9/9PRvOw8kfLAs0h6JGIMREfe+Xbrv+3AytjqVr5OxMAAEAASURBVIAaXK87p1STdxgt3dbQsMkVifxsirxmyIkeiciFNJfSWkxZkaD0IzmdmGOBP7PACWHrzzL+t+kgF5uM8aUn2jZYBtAAT8Ccx+3lL+skjAbS7r3yPa5QPB8dIF1eqRbgY/NRM70mWaOCrLSIOs3baNS8Xrg/Ux5oztEmqUOa6yXEvFUrb6RTBXBEZet9C2ShsvreNfW1qdBt9Y/VRU2hViILomAmKCWaX5OiKU7cscDJLZDnsOV1JXhyfJHxoDhJ8uoO/hKvLRrIkq8ayEdaGCNCCsW6PN6Qx5sT4+JuLR6XMktH4sz8wCz+CtKdvG7/k1Q6WhhajxanfoSilXE6SOY1YBT7vx0sKmk1FJtwkdRL4tQyEDEV1+sYvpq28soPTll+m2QlkwQDpxED5mJxTh0LHN8Cf/Ik8fiZTokq2GJwxu0K0KnNqFAgx7y7SJs1H5YyDLIiH6fMjCQNtEk5gqvcqwWocofjkHKz/M/PtZshVr0J7W9KpBMe60r8zxXIa4EKxJRC1aiXnkbXS90x6NHEY7XSVIREI7vK5IitoGsSAHdyUccKdyj/cgvkPWwZAGKvH7bCyHa5WbfKpqyCReH5Lxef6QN/fDIelDktj48zcwdmkw1SWGFxZDGXvbHjmkWQTHjzPNDTKMNiFnH1FJRybGqeK5RnBVAXAoCiyEIFgRVOieBgKr5oKmwnhxskqNHgVEMpQhG3oAbDyYXkWUUdwf+HLfDXYEth57+rtkEhNrJmshrA+vaX339Y/lvQU0CeJ+ZkVCpbst4F5ZISXeypKJgko0kRDhYxd8S0fwzfhQhm88lTg35SooEpo4Al/XeK/GUuep2UG/kuhcrRrmvpmqpd/S8XdJpk1KpZZKFqWjt1MLWOHPX0RDpbUxAhuyJXtEzNqJIBxJNLO1EpDv3faYFThq3w8tETWusYRMNXkrWkbh5E8duyJ2t/qGjIW0K+i+7KSt2duWHu+q5XVeXzwKgCEOkPnODDvVASmMz3EOW+LU8qTZAhpvkSzjFlnVCr/68E7VpWBHobHJM3zLVP2m5pef7vRrSyeuSlLvbXsNVXt4taUztQxnphx60sbFxh3Cy5cJErx9wfcwIEufhRdwIHs45rQ4d4IgucMmydSNAJ6Sx9kN0UpeUyyb5td3ogttzBQDx7eIZi/NmurIAr86WJW+JCfrOwIZjjCTBg9IXcFUoWrVq2SP0ahQpJ1mOHhMyBySKMSI84Yfn/2wTtihzHjRvH9sjlyp2BfO2EoqXp0v/bEv8RacAxG7uxk1BKSooCEFijvpK6UayHYGNKNjqsVq3aiTQUfDKXB4wiwv4U7ES7Zs2vyGR3JWNJGTxa6D+RHIfuWCCXBU7ZYaGRIYKGOHr0S9OmzmRQF3lcnkty5PToEtijPshEljeOmauAO9bvTjjsLnTYXSzVVTLVUyrVe0aqp/wBT7l9rpLrdwfnL9uAgwbYUYQsm+DHTVpdHYnKYjBJCrGwSO7eGjRdtdJ4JIek69bQltMmqQS6liZZBn1iaOuI+wA0paamsncWG7hGyg13UIxzbLlKUckRftFZi47mj44rg1L0qCqpBD1Ct/pbTqVE0aVGeEb2qCCrlLC6YkZh46j2YcL93Xff+/LLrxSIqZ61jEEx2bptyJCnfvjhx2h7IkHVNmWF2NxwypSpxBW8JkyYwE60Cxd+zxbThgikCaox72/Ai2j4OmpdVJTWUatjrWc4pUYEdI6ukRKdY/62wNGg8l/U1ToU3GbZ4HP69Fl0Y21nx81tloYeSWefMTo+S0x1FUPQ7Q244rJdBbM8heTnLpLpKZKhR0/BbHc8sAUgyWNHNFXPioWpQmPMKOeUTq9g6EHLtsUQV79HOwxH7QMcdSMZ2wk1FxmRAFG31VFmhJOR8UtU3xaxpGIE6Hgc5IquNXRlICMytXSl6BY4qqdKJpU+T6rtjcQJdEPLoHKUrmxIUG05JZUfEaNSWBoUTjUjckShyLQ37hIorJ1cXSfwglSCsnFU+7Bx7uzZs9makLL0p5ZRHZCvWRCVy57IUwWYxMe3GjZsGFaFHyGcslnkmDFvnnfeuZLfmFdTiaMmbGpP4vCrasQjOoavEWyGU75kTVDNkaA1ErlOyO8WOGXYUoPQklq1atm2fbsZs2ZO/+JLmrH+jjWXafZhsmnt3NUD5uEgDZO4LN+SWayQ/kA0D1tQ+dm8h5kjMzQUN0C256IvyjhSJspC7CroWb9+y5233XNBrdrNmrd8+pmhfvZD9LjYv7pb9x5vjXn74kaNR7/4MjsVz5w1++Zbul1Yu85tt/ec+Nmk5s1bIo+2/ttvu/7zn4HJycnswMjOo1lZfotZzz8/ol279g0aXHzPPff+/vsfMNN51q5df99999WqVfvyyzv98MMPeCva57UXIZOeRhwNJ02e0rVbjzfefDM5pfmo0S9BWbJ02Z29+tSuU6d7j9sWff+D3XP7rTFj0Id9iW6/vee2bTuQQGB01qtXn5o1a91ww03jxo2naMT++OPSli1bHjqUAQ+UyZM/Z+darsK6dRtatWo1fvyEDh0u69atG7Dyxx97H3ro4aZNU+B/8smn1bUBHSZOnNS587VNmiQ/+ODDmzdvRSYhPf3QAw88SE0vueTSxx4bhHyICNm8eTO7GbLp9JQpU7p27fr5558nJzdr2PDiIUOGsAe1qqQWQMyB1PTHBw1q0jSlbr0Gfe665/fde7hSQ4c9N+KFF7bv2NG6TZtx4ydcdfXV06ZPnzlrFnKWLFlKKUuX/nTHHb3Yevq666774IOPKJTqjBs3oVu3Hq+++vqll1768suvrl27DrGTp0zt0PGyGueeP3LUi1u2bu3WrXutWhdee+31GzZsQg43FeOsic+lLiREJ+RvC/wV2DI3ObkHtm3bqnXr1sxxzJo1+0RmogD6HUdu6+bOHmLfCxpbyCODP9PZJSsk+UV8F43nHFn6IFO5sNFhpI3ySN7luvuuvrt27WLz5yuvvJItptkDlS7NdMzXX389ceJENmFPSUkBAtg2mZ0E6W/s7Q7u0CFhY7KZ3UzZb7VPnz5stvzBBx8MGjQI+VSKbZDZR/7qq69m92O2s77hhhugHzx4mB2k2T2MPbHZa3rAgAEQGSghiiwatDNzysbO8+fP1w6Pf7Ft2/YePXpgNHRga0L2zV6zZg1ZJk2axP7SqDF06NADBw6gJ3k3btzMSIqNVJ9++mm2hv3Pf/6j4yy8pK1bt1J3LQV+Nq+mdD7OsWXLlieffJINpW+99VYcQMoCVe+44w72bWYjewqlrLlz5z7wwAPsBY3m7BHNNtRsj0p29uJesmQJZd1///3oww7PwBmmXrx4cWJiYoUKFRgOf/vtt8OHD+/duzfy4Rk8eLDWF6vi4AA3bBZNZWG499572Sh74MCBCGFra9oGm61RLtjE5WAijNlAtrllK+n16zeyCzdysDabb7OnLK2I08OHD3P58OKxduPG7D0epNbIp1KA8qhRozp16kQtuOibNm2iasYg4TZM3HG49NLk++Nfm5IP91S9Y5/cRuEnjwysdFBnkAh4ko81kwY+uXFHwpAmf3H7w0ggoAbFtEqQKkemQBhjwuANBfxZQ54cVKVK1aJFC9D92LN+2bJl3bt3JRU0effdd+l19PCnnnqGTvLiiy+yC2n79u3ohJ999hnl/rhkyS+rVtFVzj67CrVILFGif//+9z/wAEO/995/n16EC0DvxT8i7/YdO9mpkPs83aly5SRUio2Lgyfb78e/w3VCLaqAGpRIQAhqsLdrYmIxejWdrXTp0vQ9dGjTps22bdtwXqpXrw54gQuXXX45G9DWq1+f/olHOWnyZJR5+ZVXROEO7Q6kpuKRte/QAfkBTIBcCsBuMTGZbFLNyIhXodzu54YPb968GWZbsOC7Vb/+OmPGjCpVktCnQsWK8+bNw76vvf56l2uvfWDA/eS+uFGjBg0afLdwYfPmKct++ok6Nk1ORvOL6tYFBGHmSi36/nuISKaOlILfhOeFQUqXKQM2PfjQQ6VKlcjCHzPD5M6dO4No7GgNA7iDxdDy/PPPrVbtnEWLfmjZsgUTa2edddZHH31SpkyZpslNGQWz03ap0qWHP/98QkJ8h47t09LTX33tNSKUxcbiVF+fdaxcucrnixs0aHDDhvWxEvavWbNmr9690Xbnrl2ALLgmnrBxnznieekpcSfkYwv8FdhSVKFpzmCIOHMm99VWrVqc2Ebhl2OAOtqX4JQEHo/LH/O5rjA8qW/lCcGvQdiPxMw7gKCAeRMoROOmZ86Y8cW6dWsOHjz41VdfnXPOOaTiApQoUaJkyUQyKpxxcwYCSKJTMVkDbKH56tWr6UJgFmycNmzYEEAAm3SHZ5wCmMletWqVkSNHwICXAb9iAd3kkksu4cYOWqWlHbziiivoLQTQCt/qoYcGIIo+XLx4MYR7PG5AasOGDbgG4CneEC4bzhTeTbNmzXAScUk6dOjQqFEjhoqIBH+JsM+zgmCTJk0++eQTXC0ggn2YKUUn4IjQPymIJOLUXS8Ke8GC1/iV6IyeLVu2ZCwPTCw1wThHsjMYmuNzAVsMMOn8+Gsok5KSUr362Wq3RYsW9e3bFwkYBH4cIuLIZJNtCsVjLV68OHRSIQLBAAoojKv78ccfwxBpIQLoxIFWgg4qOcUmVBNRus01l4brgmNIVeBhQ+/I81nJRQUrVarEDBoFFS1alJuQalKuXDmuOwwUQC6qpjaRPE7I7xb4K7CFTXiuN3PmbLwVMKttWzpG2E4KSmFnzNCC8iq1Dg/lHJxiBSmzVjRfmIUzDGQCUUy947LECImPcOFZyVot+ZlRZjCQEyO7V8tNNS3tQNuOnQL+UPOUJuXLl6ersMKI/gAi6B7xCKZ909Xp8CYuc/aghmncMhihy0FXdNCeTDdgW2biBIU5GGwE0IlABsPDOOIMSiDqYIfOg2Q6GHSIBIojUM1Dhw6hBr2RHkjvYjQHMEGvX78evR1AnDVr1iuvvMIUG6NFtEUHUvkhAWxCT10/xZFSmIAzahs/lPfRDQapi4GqFEF27eRWc1TiEQJWKl68BIphhMsvv+K882riSPXtezcTW1zHt99+d/jwEY8++ugNN1wHivE9W+Ae48BMFiypdTFxD0aOiRHfl1SUZJzLbQP8rVLl7KSkKgzfUF4DPDAce4pN1EQkAdbojPX0SnEdyRuxHtlDWE9LN9J4MUiurCmae5i0B4tZ5uIaXcPlO3/ypwVOGba00WAMbtdt27bF07KU41pIUIaGRRoxac3iZwlCGW7TvOXMzmoJmWeFbj5HSMRkENiSESZdRRJNZ/7hx8VMls/+ak6lM8vS9Jmgoe2SSqOn7cJj2FwAxBtvvMG0y1lnVWBymvkv2Ehi2mjkyJHMLhcrVpRT5rDoHmx5b1JDjDfbtWtDt09LS6NLU01u8gzuOGXcR3F4TKbXhRIS4m66SabG1QiIIg6+gCPqFKASc2E4F3ff3UdTU1PTKYs4IzJchv79+913X78xY95hmunBBx9Eh4ULFyoneVGMgWTBggUBLySiA64NkomQSlngFLIAL7LQ/0ndsWPH7t17Spcuyenq1WuXLfu5c+drWCdFLe6+uxfjNez0xx/7Cxcu7PO59+1LA54uvrgec3YPP/wwA9sbb7yOCUFwRP0akAI02bJlGwakjlx0zJuUlETRlEsqs2xgFs80OnW6DIZChQpREXTTALjAqYViW/JyCtsFF1zABJytJiUikwGjWC3qVkER5FI4g86p2FVYwiNxicm9Jzw2DKcp1TnmXwuYJnC86tEiIdsjLYZT026Emzmdu+/p1aF9a5gAE47RP+GIhEAok5yseOBHYZ5gpstzOOBO97uDfoiCX6GgG+8tGHDz3C+Y4Trs8gZ8gYwCAX9sMBNYlaVbTCExg08AF2j1riDw4fG68VM2btw0duz7zOBok6UFE4TRKMyEOm7OZZddxkOr5ORkkIJ+Ts0Y9TDfxKT7L7+s+vbb75gnZrqH+RrENm/enNN58xYAGeDIs888VbhQgboX1S5SuGC/e+9ZuWLFgvnznhg0MBjIxPPj1h+es6MSUmoOLqEPEEEH4NVM57Vp3XrpkiXPDRu+dcvWr+d+w2BszFtvwfDYo4+S9PPPywGyjRs3gk2M7/BZKHfo0GG//rrm88+nMk/EAwcUBkS4FgzoGAbOmfM1+EIFKYRaE0AHJr4oHwwyUNgftFq8eEnPnj3nzfsanAJTRo8eycPEbdu28tju4osbLFr0Hbjcvn3b3r3v3Lx56549u7dv32pGwSFWKjBMxnU1sCJeJENaHmVyb2C1Wp06dcqWLUtZ0CkagOP4zTffIITZ9JdeGg1cohgaMQb//fedLP46cGC/uSJmmR0DOo+rVcvmq3/9ZdjQoaup5pSpr77yylVU0zBx5byMv00cFXKCWbE+OaW20GksjCQ5ZXLTh+NprKCtFH30opPVCfnbAqfsbZ2qOXzytXjWg7q9fGDQ5SrgCx0OpBf0sgiCjh3L2zGyRkfm6cNNLt7niQ0d8rlYlppesWwJQTpTJPMjLKR3+0BS3LUguHPj9TcMfebZEcOe5UEVY1UgyTR2ecBHRDtP8eJFmRuiO+EmMDqjDB5pIY+Jp7feegt4gsj9PCUl5fnnn9cxIE/leLLGHDMAV6VKlY8++ghPB4x79dVXH3/8cUAEh4J5H9gAC3qs9l6EIJZTfAGmWshiOhF+kKdevYtGjBgxevRoHlCiQJcuXXhMBh0hODg8xyQPLhWQxDzSRRfVZvIeZtRjcMQjv1697kBy0aKFedbJKBKkZuqKCTW8FYo2tqGyTM2LnXhyRyk8y2OanNRmzZqRC/Tp2fO29PR06qvjTdAnObkJ/CiGn8UMF8xMMKEPdkMy5aoxUZjimMvjuSSGxexkUdsaF0/8TZ6HYpmpU6cyo0e5uLQYgQWrzBgSGEJSRPfu3dREegReMfiIESO1mrfddhvVVJTEGmpSBSNK4UKganRlOcWtVk9TLG6Cjeipc8zHFpC5gz+tHlOwPAmiGcGsjelPs0QxAE9AkxwOu13zV+xbt+fg5j9Sc/iyFt1Nl0OAWXJ7leD3unOy/PEuT1FvTv3zy9c/r1gCIwJGkQGXN0bn8dGB+7aHNRRMVR08mAYGUQmDFzLvrnM6ikFLliybO3du9+7dcaOg8Lhw86ZNLI+gk5tOIguXmAsjl/LrkSS/P0APL1y4IFWmw2hnI8KYqFgxxomiLkedDIaHQLfhCFklR7o9bHQ5UY+y6Gxgk2qobAxdKQgotDogGX4GpGAQuTSvKkYcBaiLWEqQXoTboJx6mpGRZbCM2Xfh0RJVLG4dk19Q8Kc0O8xoDkpS3Lbtv/EcYNq0aTVqVEf+2LHvgSzffPN1VhaPDf0YROUjiizojJ9MLjj37t1XooQ8CcHvUwwlDh1LAj22IgpJJGmE+UTqDpvNlYsherqdJFOo3CGs5bUOxvKQ5aLIHyfkawvkubdFp8c/kjEkL/V4XQ1rJtZxJerad2jcKG0rU/jkxgoFtYAon3mhGveFfsHkMxfCMCsw0Sdccbhmpg/TnplA0SYrfYmdNgwwMZzhnRLeH2QMyJIi5n1eevFF7VTavLUfKiggX+/YZAdc+BkgOLIaiFTGcbY90IsUziiXoD1HxXJECEd+ChnkAi+0h6Oh1MXwxMfH8oMHSkxk8o6kYsWKIIFAFgZcAA1xSgSjTSScxB+URzHY+BG0uPh4mdjWIpBDiQpqQCFEglKIkx2PSUgGZZiGQ0/myMgFlFApQAc21dOiJ2VxYcliInIsWTJRi7CYFTmVC4c0VU+KiQqUFWHDyUJhQX+qCYtUSfQMu7GWQkTBS5FLT7G/Rjg6Id9bIM9hS9ZHmvl3dwyfpXHxpQeaIQ4UQTErnByxtL5pBpFP1cApbVZmwOhCjMjMt7gEC0yHodvT0PmwoMx6iKcDmbhp7vhI0gHKlztj5owZDKx4Otb4kkuYl6lWTV7iVQlapumZml2URYJJtX1SBGqWiHDNF1aDJM7JQojEhSEYDH+MBTLpJOHd4LDQDwXHw0FykBEaMSK2K1IWFO20CgQkeRlpm4BMmIlGE1U9LU5AXYJwIQdhigLR2MGqcgxs8D1cBXKdUabM0GeflVk55iK9noYNGhQHQMM24cYjmBJjpGBsWBBOvUxZFCQCdRwKBS5NJQtVRlV0IEBELSKqn6mHCFCC1oIjFLJoNWEmjjXIq7k46ikMyqMZoTsh31sg3NNOXs//n0EiD+XNynaZ4AoEWcEQq/4ULd32XS2ddgqFIw2T3ilfjuDcHRBwIrjFAwuYB2HkBcWkS5v3E2m1pmNI89Xmrl1CG7p6H3pLt9Wk9cNp273StTtF82h/AGuY1onuFdGlKD8UKd4oYHsmCpAqepqg+mg8uvsRJ6jOpBJHzrFsSuHInI7OKykb/BBtFmVTba1WNheRaPnKFq2YZueoFjOoKrToXPZUs+spDLbi0CGikmqFfCK2gtG5lIG80dmPFQglOlh+FcUpcohzJERzOvF8ZgGuNTXKBR15UEd5d9qIlWlygCbIs3oQiK6MF2Lu2Ny0A/x4Wsgp7g4zWSYHM/Bm+0SUZL8Mg12KADJRZm7NssI+0mm1vUInQOSpueKFGQ3hMYkOtGyCZiGV7qRxjtC18pbBnoJZxBHLEU4CZemp8mgqRPJC56hxiiBoLog2rhLgIUJqtDRUsvxECCpKSjUBCpildAhalvCZwCl/oeup1ZlTSld69FF1sIppLoQQjNcmwvgPUMKpEeXRjFpZKJxGl0VcT0miOORzikziiCKuOqhM5Ynm1+JINWqEb0WaBWYlqhA9WmVIdUL+tgDXmpDnsEUBDDiY2ZCJCwnM64BO4nzlCgaqbELA7OPDfBVIxziH2WNRVbGFeXz57qk05PC7HcglVSiRnsyzPIUAjjRu2rpGiMPMKfzanchCXDtAdERlQlfJeoSoQXPpUQtCpgqBAWY9EiHAFi1HieRSHjLCQICOSja7UpTZElVzPcKgYm1Z9pSI8pCkcoho3PJAJ0BUDYmQhQADgYimclTnDjZFTJKIKz+cIsUor3k1VdVWNrWPcubyE7UUkqL5tRQoSlcNtTgKssxQLJ4qjxXiRPK3BU44SKR90BT0uGnTpqSkpL9qCHP/N26d9A8C3ZOfnpij9FchCCdDQ474XBHmSIMOnwun8gNixM1qMCE6wbGAY4F/iQXyfEpe7GhejhasieDNEcwyFHO/JzmCUJInEhStbMYI2fyNTAUfRXROHAs4FsjnFsh72JLXCSMhGoM0Hk0xXGZtQIQ/8teu6jIeWRRaAWcqIcLp/HUs4Fgg31sgClPysq5HeUtMtMvHatg1UUZ5YRfMchAJx02qTIPlCtCjMuZKdE4dCzgWyO8WyHtvS17cyQWOAjo8DeTAGsmwt8Qf4YxglqzIMly58ypRGI8Rq0Tn6FjAsUA+t0AuQMmL2gJGBo9U9hHfCViKlG6IHML+F5zy3FB/R1QKA9wRghNzLOBY4N9ogbz3toxXZRCHRdPqTPFBTvwsQsTVilgeeIuJWpOhECd5NWayhJ0yoBDOI/SICOevYwHHAvndAhF/Jw/rCRYZdImGGJmnN0VDVLpxtPTMHo9SynJKRskjBMcBO8pGzoljgX+FBU4ZtszeNFGDvtxWIumo1CxXdoDZd7McUcBGC2RhY4iPjuZk86axvAYo6+X5tBKLsNJd2VmuHFkqTjIvFppFj7I4lYz8BKd4yZpvWvLOoixj5XvFpkQpV5c16tEIOM4hrInRh8WKynHSLLlrdByhDsmxgGOBv9ECpwxbp6pbjHyUmVUNvPFsMAcEElhjrbqXv7z5YjQQaPCadfHxrMSGJhBGKmyyqJ0QVa7k17WpRFhRrSuthXgUW1SOqKjyaBZdsQ2Q6dstUVxO1LGAY4HT1wJ5Prfl5XMPdg0DPo5CkPhsPEUUu/BeoHy1ElTDo3K7YtkCA68sR2BOGAy24XTJqyHCLgCHZ6Z+FxyR95zFZdPXPv4UgyxOEUEdjhoR8ccJeY7sxynTITkWcCxwYgvkOWwJzsgIUA6s1AKJ8KMUe2SUJ2/hmb8kycANtBJokwTOCAIaYFb4zJAiB8MQ/Z5zJEHetrVvrlmiRjSJUaGiG+NE+wZcLk7n1LGAY4HT0wJ5D1sGgAIAlc+V7XJnuVxsfKwOjGAWew4agPLJeNCVE3DpN7VAKbNyCwjjbWrwCV4C+SK+D86agS315MA18Eg4zJu9J8IsZYBTMUs8PzOuPKm3JQU7wbGAY4HTxwJ/DbYi2PHf1MNgToxglgDWt7/8/sPy34KeAnzLN5STUalsyXoXlEtKdMWaV6L5kKCZexd/iy++8MEaPkDPJgjeGJmANzAFgFG6IJR6ZIpT1r2ybtRJVNMsZmgYntVyYOsk5nKSHAucbhY4Zdj6sy8uHINorH1nnQJ76pk9eLbsydofKhrylpCvl7uyUndnbpi7vutVVfnqKaqATfoDodgbD0oCyOUhCk7pIi8DWJyK+yVlKeJEnCb58AufMOYroCeanVe0Ark0CxIs5J1u18bRx7GAY4HjWuCUYeu4Uk5GlK+UyjcB4WG5wbbd6YHYcgcD8ewfHYrxZ7uyAq7MlyZuiWNbHsZ7OcEcT4ABoy/krlCyaNWyhevXKFxIESriaxkI4wRu+US9mQaT8vUz5+vXb+Sb8VdffeWJVFq1ahU7NLMRmcIWR42ciN+hOxZwLHC6WeAY5+jPFNQpJDyl0aNfmjZ1JiM3/XTfCfMdXUKQjcSY5fLGMWUVcMf63QmH3YUOu4ulukqmekqles9I9ZQ/4Cm3z1Vy/W7//GUbZJNEA1GylItVWtnm458yXhQYY44ftCKCPrp/BBuFshUYp/xUMWWARxdnTZo0hR3FDh48bAFLYYsHmiLQSLM1QohSrBAoTnAs4Fjgn7XA0aDyX+hiZ7urVavGXvDTp88y0+EnzClLHaKQLUe+0eyRh4nm6SLbJwZccdmuglmeQvJzF8n0FMnQo6dwtjtB9/iRISIeW47LK99HZrToCeoEvJt1W6yB4NvKMh1mjrLNBNpwimKyusLs2gBFp+EfeeQhtk0sUkQ2uSLoETbzQFOkgVBk1MCiCrNDhMz0K0XHnordYSbnj2MBxwJ/rwUiHfQUS6X3tmrVsm37djNmzZz+xZcggP6OFcPX4HU6iiQDFJwFzHuFzE8R15cT2btVfyCah4+Ns0sPR9LIItl1xivGxZbEZkqLqanY7OzQiyPfaN/hssaXXnpP3747d+2GmU+a+xh+Ggdt0+att/fsWevCOs2at3zm2WEB2TE6+Pnn09hXVX2rtm3bf/DBhzff3JUdfXr16rNr1+4BAx5is9hWrdqwlzJ6g2Vr167v1q173bp1k5ObvfPOWHTBa7Modmx9HYpjAccCeW2BvwJbZlZb3Jm2bVux+ft0PK5Zs0+kKAUAPhwVecCuHFnQwNpQGfzxE1SKoJ59xxAO4ma3ahUMQYJ6TEE/MtxDn31u1KhRnTp16tev38qVK7t3785OoujG5hdw4kaxs/T+/fsHDx7MVsmvvfbahx9+CNykpqZu2LBBfas1a9aQysbxDz744FdffdWyZUvyMsYsX778HXfckZmZCbr16NGDhV1sE3399dc/9dRTc+d+gw6Ot2WuhnNwLPDPWOCvTcnLJDlBR1gaP9Ex/OTRrICXbOajWgJJZkJdVr7LJwMNqhkRLFrnIZ+JCqgRMchKJDz5bpbFxxw6mPbe++8MeuKx66/vDDvuEpvR7969m4kqsAkK47vhw4cnJSUxHkQIc17fLlh40403Mbpka0CBRVaSxcbecsst3Xt0g2HFypVsBz/suedAtPJnnjl/wYJt27eXLl36tx277u3bv1Gji82vEfvFi0qRMSNxJzgWcCzwN1vgr8CWogqYxcapM2fObNeuXatWLU6sd/i9Q6BIPC+BKEL4VR2zkjQMT+pbeXi5JxyMo2biBrmU6olhb2tXaP2GDZmZh5OTm6IMmlSpUnnYsGEgzg8/yGZfUMCuihUrzpgxY/369fhcc+bMqVq1Kq6d7niILHhAwJo1axJndoztpmvUqEEuTkErvDa8raJFizRq1GjAgAFz5s5mi/kWLVqwkT1J8OhEPhEnOBZwLPA3W+CvwBYqsoR95szZDA/BrLZtW9rpKwUldZa0JkF5lVpGiBrAqRjm5HPEIYJZ6GEgE1Bjnh4vzLyUKBuUeXC8DA9brJvFX4I1bjM5n5GRFVegIJKEYqSDWYzpDGYJsKSnH+rQ4TLe3UlJSalQoQKRAgUK4CTpVx9gIA6zPl60W9WrKIigm8LfG2+8MXv27BkzpzOQhDJhwoTatWtFauP8dSzgWOAfsMApwxYIpSOktWvXtm3bFk/LUo6rPqCENyUeVBilxM8ShDLcBnDkzM5qCZm9pnmnB35DFdQjAswJkgkZeKpe4xx8pRW/rDyzXAo59u9PBUPbtGkDYhHQcPHixYwZmbGqWLEcDMuWLdORnc5MqY8GXV9IBMUIoBJHhMPDjvCG4iLStm2bDh3bHDgwpGPHjgwkL7zwAuWUPE5wLOBY4G+3AJhw/KA90x7BAvgUEYgAH3ff06tD+9Z09BhZ9XnUL1piIJQpQMN3tcwslyeY6fIcDrjT/e6gH6LgVyjoBpGCAXeQY4brsMsb8PkzCwT83pxs8I4J9mxZymC8KnwrWaKVU7hQfMuWzR/9z8Cvv563atVqXCFmsvCnUJgAkhYrVgTwmjFj+rZtO9566+0FCxaoYxUMZKMwNRFHLhQkzie9iCtdqxPKCbDMnqTNmzbWurDmK6++/Mcff2zYsC41dX+lShXVFNF1dOKOBRwL/J0WOGVv61SV87mZ/2b3aLeX1wtdrgK+0OFAekEviyDAq1j2PpaXoGWePowG8T5PbCjD5/b7/IcqlS0hrpYpUjalN4tIdRzHW4rDhw579NFBPPLj8R/zVq+//npCQhxjQHwlAKt27do333zz888/z5xXw4YNeeLJXBWSEhISOFIYAVcLlw2YgxIXF6e4ZnBPDohKSkp65plneIA4cuQI+G+88carrroKr4245jKqOQfHAo4F/lYLyNem/rTAzZs3n3XWWXTUv9RdgSegSQ6H3a75K/at23Nw8x+pOSE+/RATo8shgBEFJ2bHve6cLH+8y1PUm1P//Ar1zisCzHhlLYR8RZCHjmgRCGb6vKw79Qb8Ln8wG60AHYUzjnbQSgREy8jIKF68qK1jwO83uCZuJsCkg0Ti+maiHo9NYtlEwYIFY1kRFvlElwNb1qROxLHA32yBPIctBlxuN0tJZWbK72UEKIM+XfsOUllnimorfLKaCzpOIFNgIFOCfBeV7zaTH9gSrDHIwveXQzF8L4JcEZyKzE/lNqCZqxJQVDiLwGMYpyICRbIGfC5wjbhFKCI6L6agFg12kUzOX8cCjgX+Pgvk+SCRZVQyfwUYGZjhSw9AgozTIpgVTjYUDvLOoUniUzVwCn4YGqMymSOT+XKBmPACCoE6maXiH34W+AK+qR+k6MPRazAIPvIp4ij66FiPuIIUDBo4VcDSJKQRiGsEHuugRXI4fx0LOBb4Wy2Q57AV5HvKgiTibvFyjc/Ll7XC8/dHPBxTZbBNIQzwYTwoX47g3B0Iu2HwyEe41Fti/QTskgPRpAArHNUnApuAHoKlkEoSx8hzQ0E7s2zVp2zgFKnEFbBI1QDqaUaSVAgMBC0owuX8dSzgWOBvsgC9j5LyHLZk9ZUuZBDQYUlWkB0uFGsEj8yieXXHBKMEqWRJFyEEbslMFY4UuMcwUaa/yIHavOcYhi9xxHLDk/WGFJgQpdDD0WCOrG8Ag/RrzlIS5brdFpiUAqdoa4JN0uxh5TXNOToWcCzwN1pAe18uj+d/X74BI3wtWT5qAoBjptYFNI8KBqyYc9eEHA+jRCBKxn6AHVgWBhEIyDFrv8AbYQaD9KhOkJ7iKAFMeF4kATfWP1Lw4qhsJCkDR02CoooqA3T1uThCVzmaiyQnOBZwLPD3W+CE3pb23ugjytFvT1VFzQDKHJ3TngluKgYBZibOSlNGi/ADdGbBvOUVd0yD/DXwJmIVSvQIXSPqK6nnZdXWiB6VLZpCXstp5RBRUdb5iuYh1QmOBRwL/M0WOCFs/S/1EF/JoIw6UohW+OFoKBEwjHb95P1qg1zRxFxK5YLCXKnOqWMBxwL50wJ5D1vy0ZpIULRS8LLIRaKFM1wbpUdy6F+brh5Z+KsSmvF4/Efnds4cCzgWyFcWiMKUvKyXxR0phGl4+VgNX1SWUWEYsywHkXDcpMoK02NDVMZjEx2KYwHHAvnaAnkPWwJSuUwI6DCLzvrTKEiCx8DZ0ayKXEKT9HCaZJdf5PzoLM6ZYwHHAvncAnkPWwox1oxHfCdQJ1K6IXII+19hZlLDDA5AWfs5EccCjgXyfm5LhnwsviKYj84IQnlxrAwg5Z5Tx4mKzG1FvieoTpbBNXO1WMOlLhiemnx6wkE0Yxbn4FjgX2SBiL+Th1UGZQzqHIEeCBFPCqLSjaOlZ5Z2lFJHqOSVPGageBSLc+JYwLHAv8ECeQ5bh1yhLDNrhV/ExhVBj/kiIPFAJl/ZkleimePy5ARDsn0FO4plu9J455plpGGnCnhiHozvYeGrqbIS87HTTwT5/pnLxOpTCo5ed2qXp/4zCv1jpR7/9qELfXlRQfVSQ2GiYBBKjrwCEb7vEJebkF0YnIs/wpa7esqvV0HTcnJ0U5XcnM55/rNAnsOWj9Wa8oKPWYOlXlJIZuJjvHwEhqXw8jk+4IvFnLG8YONyxbri7LhP3mMMBWQoKA1bmrmMCVXlf3p4qKtPo5eesn41GsXyX1s5pRqx0BeQ0jeo9AUDTjERdiOihrJYhuTo10Wha1K0eXOVDj88yqDMuRic03xsgTyf24rFMxK8IYBC5nNZ5vszgRy+POPJCgZiY7xujzfoD/BdGvm4Q4iPuAsygW3AlZn9ArQEt/gvr1cbVIss4IKc58hLGccGugrdDzo9RxfcH8vz76Ac3/5AFQilRxvBIObVUsX38Mun8qKqcbjUmHpUPDJHexc7ypwKgpoRNiK8/mXa11Fszkm+tECew1YYs4Acj9svH4mXd3c4i/HEMFrA1eLI90/ZBEyo4IB89sF4VQaZ5EVE6LxUGCOfhDitroE6XHQYgqgcWex/Win5TymjxtEjOtgIViKoxaArrimFIxTwSDjMx4JOcj/QJMsAP3mtWOJOyMcWyHvYimGFFnt7gTmxfLOdjSUOmu/SYFNAiA/98WMEGSc29vOMkY8DBoKsRAXQmN0K8MiR9xPxuwAxIOzInZeJLoEzOsQ/c3XoJ0yv0G205zjIlesygEdQFK3UM+IUK2E3PSq/Mih4WRsqBsFgMypzrqP9wofSo8Xm4nRO85kF8hy25GvM3AljPbRiMGv+igOLVvzm9xQIudjeIvvMMkXr1qxQuaQrHvxy+0Ah/K0Yho0yHgSRvAIK0v4lmPupxsxaU5DrCIwZ+t94oJPo9IqWSU87eR/7G1U7LYpSPMJKmIV4NKYoKilUoauNKI/FLC49lJNURifOuHnoPJreP07C7yTlGwvkOWzxlS3zHXkP32IGtjbtS9/nKpATWyIjlA0i7dybtXL+tobnVmhY3VXQfP2LdopOfGeeH+8e4nHJZBY/HjMSDFQFzfJ6ZsDMhyL+mWth+x59Rjue7W//jEKnWamgFRoBJYpfAb4Q6YvBRAARPy59xM+S75rJ82Q+xMZEgfHINC/0k5sUmV6vR3Np7aPB8TSzh6PO/9ICeQ5btFFprGY9Aw+of9u91+07IyOQzYY+LNViGp7b8c/LN/+6LDM2eNgb8tOgfS5/vXMrN6xVDsDilBAK5php+nDNw06ZfMPrnxojiibffvst/YRtq/U+b/pk+NlWWNF/8R+1ibpLP/+8Yu/evcnJyQpEON+mVegntmVT3s8///y882pUrlwZqCKLItrJMeirr+Zu3bq1ceNGZ599tvq5evwXm/xfVPVThi29xZlvust2hGFYYUex4JFdcLTBcSTgarHGwQ/AiHPkcvv98Z6DDetUjQm5YtmmkHssgwhmu9jCR3bGyMkOBRMAs8Bh+ZygGSIw84UIVvwwi5/jz/LEMhvGh7ho4PLhZvZYpDPQDfihjPYHLqDqySnB9hPiqKRH+hVxxRpLIULQDqA+lNYUoooiYiZ/Rf7UqdMPHTrUuHFjWVgW7ooy4cX930q2/kL0REz0sAgVUDvanloFpXDk0WlEeG7dorurylQKpasC5IyMoURD1Vzl+/18RpG1CGK06OvI4gT98rWy2aTo625tgkKR+loLiJIE5UGB7OzAO++8Ex8fn5KSAl3laI0oCPkc2dKtd+/eBoDQhy84ilbkJcItjwjAt3379vbt2xrZro8/HsfOmGwid9FFFxmK3NyoMketl7JpFaI1V4oe4UE+Xp6ipEqgLM3rHE9nC5wybOGWUx9tcNriaS6cRvvqdB6agh5pSjQOn8dgEn2eXRDdMYklXUmJDANjvEgy5hG2iJ1oODGuEgddroJuecgoA0SZoffJGi7BLFJlWCHt2nxd3jS+MHhpf6Bdoqdp9NKdCFAIxMmDwqZvhD8wb/Q/Mh7R/g/KaI2ommKHtnUkaIdEPruZUUctBeHBYHjMYlFJijRzNxRnVzARV59C7aPqUYr2Lvi1ICjE9agl6pHshh5eWxBBpbDBqQtBDGPkUgS14EgutYAK5whmaQ9HLEEZyKT15UhcqwYzWGavu9UKOj+L0cBTbKw0J9XTyoE4d+7cQYMGGcXlulAu0lWgVh8N2TKOvARkarviaLII8i5cuPDDDz9kF3T4sfN3333Xvn37kSNHqhDYyIVVsTz1Iq7KR+geVUnlczRC5H5g5B8176bW06PldyKnmwWkD5xSYDnVqNEvTf9iJnASCOIqSEOfNu2LF198meaoorRbKnL5afsUwk2VBs1uY+6ENE+h8fPTh362++lPdz05Yffg8XsGj983eMK+Jz7d88TE3UM+2ffkuN+fnbj9mXHL563Zl0EptDORSzOLpf0RoUMxae/3B14a/WKHDpcxTOvbt+/Onb/THMeP/7R79x5vvPFG48ZNXn75ZSjff7+4d++72O31uuuu//DDjxFEn0HO3LnfXH1151q1anfufO2CBd9Bp7nPnj0HYu3aF1133Q1kFKLL1aFjxwmfTuzVu3e9+g2uv+Gmr7/5BiPIsjLT8GX06nbN/Xretdddd37NWpd3uvLTiZNIJeOjjw0a/vwLg54YUr/BxckpzT8ZNwHE4i0Bdt+G56abu9at16Bv337sm03R2gMpUQMUfuPGTbj55q54K40aNX711VdR+4fFS3re0at2nbq397zz62/ms3CEgujpL738aqvWbZW+Zet2P+viXK6ffl7Rq1efOnXqUp0PP/wIyRhkyZJlLVq0TE8/pD186tSp3bt3R/K6deuTk5t98sn4K6644tprr4d5z549Awc+2qRJU/Di6aefzchgcpKtJwNIuPPO3vXq1ScjpiMv9KysrH797qtXr0GTJk0ef/yJ1NR0Ra61a9enp6fXqlVr0qQpt9zS7bPPJoM4jRs3HjjwsbS0g+hDADTBJuqLkEGDnuDaXXzxxVy1vXv303xGjhzNpWRI2KJFi3Hjxl977bXTTejQocOPPy6FYenSn26/veeFF9a58cabP/zoEy4Hlf904sSu3Xq8+trrTZomv/jSS7TVdu07vjv2PYjnnlfzrrvv3rN33333D6hZs1b79h1nzJhlaoE2opCCvmjmhNPSAqcMW7Qz5iBmsEv99C9ol1SKsRKnSUlJdANOuVPZI5ffxx1NXPFw7bNZ1BCTkOkqkOEpctBbLN1bLM2bmOordkAi8suMT0z3ldjrKnYoNnHDjr24YGTlvepwxDhnOCaIe3bYMy+MHkUfu+eee1avXn3TTTfRoxi1ffPNN7RqBh1NmzbduHHznXfeyQ6vTz75ZM2aNZ944gk6D3m3bdt26623gndgAdWh+x04kLZ16zZy0WFGjx7NdrYI3L8/1fTndQ888EDx4sUffvjhIkWK3H777atW/YodIk6Ta8eOnZRyxhlnsAN2tWrVHnnkkdWr19Cdfvvtt5deeondsKFUqlSJcc2hQxnY46uvvoJCTx44cCCadOvWLTU1TQ1EceojaH+mOvPnz580aVKvXr2Sk5N37drVs2dPfAoyok+PHj3WrdtAFqCH/bdRjCOzSBgEENy0aQv7cuMS4ulQ98GDB3/66WeUgswtW7aAFGhIKWlpVHyrgfIgyjBeA6QoLivLz47flH733XdjZJydp59+muy///47plMdEhMTUX79+vXoQOqyZcuGDx9ONSdOnDhmzBiItJDFixeXKVOmUqWz9u/fj9OEhrfccgu1mDx5MorBg0xKx2vDjRo6dOinn35KiXfdddeKFSuoJhq2bNkSwKK+SK5Xrx7X6Pzzz7/00kvvu+8+rh17D6MD14IKUs3HH3+cS0yugwcPakugLs2bN0eTX3/9ldqR8aGHHvryyy+xJ1j53HPPlShRApn41+Ti54TT3wKnPEgEgJhiwKufNWsW1aP1z/ryy1atW7dt11YcEEEtGaRAlxjjR5aXSkf0mFGdKzY2hn2hXe4CzFeF3DmMFlxu03JpuzIPlpOdwws9IZ8vPjPTXbJUeVoRyCqoxy3UmDMY8LMldfrBw++8/9GjgwffeF0XUuvVr//KK6/8sWePn6kln++tMWNKlCgOfcSIF4oULfrCyJGFCxds175dWnr6mLffxntat369Lzb2iiuvrFSpYp2LLupy7bWcrlm7NhAMdu7S5ayzKtStV+/Gm27Cl6G50yVo60OGDKEe3OHbtGkzZcqUGjVq0HWpJjUoVKjQBx98AAzBnJKSMnv27CVLltSoUZ2uyHwNXQV6w4YNL7nkEvptixbNwLIuXbrQ66hQ40suIemnn35KTm6CwnBqoyFuepH05zfffLNMmVLQR4wYmZhY8pVXXuOZGz4L/RCAeOCB+5cvXw7OQilQIB41mAYi+8SJk0qVKjP6xRfj42Opcmpa2tj33ut0xRXYR0ZH8pwk7DNmZmXhM2b7/Vh+2HPPtWzZnOzz5s1fvmLFF198UbVqZU4rJSWBAmQZP2FC8cRE/BfuUu3at9+wceNnkyYNGPDAkqVLuQqNLrmEKlxYuzbgyH68NInFP/54caNGXD5sSxEjR42qXbsWdSlWvPj999//wIABpUuXDPI+IavqvZ7OXa7r1v3WM88sC0O2PwjGkfG888+vVr36wkWLWrZqAT2pcqX33n+/YsWKySkplPXu2LHowyWOjfV16Nh+/4ED77777mWXXUYTxXRvvfUWeAeIG3u6AVxAk1xr1qwxWD8cc1eoUAF+jFapUiU4KYJ2Sxsm4oTT0wKnDFtajY4d29Nj6Z/co+jJrVu34ipry6C5wKMXnmsvE1LmcaGX9aMuV2bWYW9c6QADPTqKm/XQBouIMM6hqYR8IYZ/QYYMIZ83Id7rI4sMwszaUsRK3CtyNmzYlJGZ2TQ5xfRtF5122LChxIGY0qVL01LRgr7JHRtQALPIywQNwDFhwgR047ZcrFgxnAg8i+TkZPwyGj0DyZIlS15++eXUCCIZCxUqgDtAHbldI41AX2UQ9PPPP+splaXQokULU+LYsWNp+qkmMNhhyEyqYhkZwR2Ew4BAtCKQirYC4i4XvQjXr3///tAxLBRcgI8//hhVceLICAXz4qFs2rwVn5Fujm3XrVsHdPbr1w9/hP5J32vVqhWqUhH48UDr168PZqnXA/KOGzcO/4IkakTpWgWKQA2IBCLAMREqhUpUCszS7G3atMLlIWnatGk4OOhg2NwALtKALeyGq0US9sGq1aufDQOB5634qgihXkzwXXhhLb006EYq/KVKlSRJFatSpQquKHru27eP6ot9zCoHY2fBEc0Lv1Fb5uxXrVrVoEGDuDgf9uGXnJyMvwY/DHh5mJFqQicgrXr16txoiHOnwS8WqsuFz4gZuWRGbPhuoUnO8fS0wCnDFg1aAz4Xl5n2QVdRIpNNzL8yfUOLgcd0DOCJV6bNJLHJRtOBwQzywClShROPSxJDrJF384kI9lwN+YOeYKBsSRl2MmXscQdkDRcf4woFlTnzcEaBhARI2qn0dkojpjOjlXZITmmL3HJFtnFkEhLYD9sDpAAikyd/PnPmTDoJ0zRJSUnAWcmSiQx4gQZGRnfc0QtHiZFRsWKFkYkQLYhjbGysmYyXbqA1Xbx4yfXXX0+XAxoqV67qlr3RWE/EO5fehISCLBc3r92hhSc2Np5+iGKMbkqUKIWiOJHt2rU755xzMF2zZs3ogXQhWFGVcgl0de1pEBlvoomiGFJwry644AKQtEGDeox6GEtSI+b12rZt/8ILzzP6K1eunFacvGhLQAI6U27kGmHA8KM0ylI2jgRMx+M/+6CAiqsnglhS0QF+hFx11VUXXnghlDvv7Alc4ocyE/fCCy88+uijN910w5YtWxkbMoGIg4M14uPZlVxuJwTm4MG7w4cPoyFy4uISiDCgmzNnTseOHc8880xMtGHDBtqLyUJTEfW0pdGgsKEalkEx7pJNoo7UjmpiN+IRfuPxU4w0RcE+SseAkioPHOyCWJEPj5Fm2iQxJ5x+Fjhl2KIKXFauLo2mTZvW5jJLtSDS8bSC2g7CcZqpQSVaHz8aX3Yg6OZ5IBAjHAyKcLiI0oHDDYWOxNcg+JYgDjtZGGYqT0hcDEqi7FCNc85hyLFy5cozWzZDyr59Bxi04g4gPwxapomfd955P/zwg0Uc+CtVqlSwYFxGhp9ZKvrVLbfc8Msva/AUeDiVkpJCR+3R45bu3W9ZsWIVxO+//75Nmxa04x9//LFLl2u0RkuXLsUloe9RTS0LsODGzoQaxKysINMl2j3olgYUxDgEOhJZ6E3c5xlp9u3bBzrVZuK5QAHpz1dccTlHNa9kMNBv0EHi1J3+vHzFL3fd1Ys4fY+pbk09dOhw+fLl+/fvd999/d566+2nnnqG6RvQBP1VGkete5EihSgL9bZt23buueeg8I4dO0BhKSBSnMaZPwJ98B0TE4tT3KZNm5iluvbaLujwyy+/3HPPXShAdqbetbJcgrp16zZsWJ/RNDNTjJpvvPEGbAX+nn12EjJRlZHj9u07UJXTtWvXcgMA6xFCwNvavz9t7ty5uGwdO3YA6HGHn332WYrm8hFQUutCw8PsJkhGsJJLjDJw8sP5wvUuWBA3WdBfswNf5LUAjTTi3ADIBSqCbnoKv6lUuB2KdCeclhYwTeZ4mtHIINsjV5pTjlAVYLwx4Yie6pFUfrQDm9cfygR1+EYWT6EozOfPLuA55Amm04oYriBV7pyyGDWYHZOV7c3KcmV4YgIx2Yfig1llSxhpLq87EOcOmK9B0Pw8OQGfO65IoVYtmw965JE5c77mWRXDEKbDCxYsiIYEStd2zOiJdkzSmjXrgJVRo0Z16nQZqZMmTWSGBbhh0n3VqpWMucqXL/vFF9MgfvnlVwcOpK5evQp8OfPMcrgb9BCmkD744KPVq9fSkxkhsmKI6X96Hc2d0kqVKsVDt/nz569fv/Hhhx8Evv1+eehmfEBhMJ1HBmUUxBF4euml0Z9/zmhrC1PXTZte+v33C+EnoLwxvPQxTmHGp+EbVRBJat265XffLRg1ajQz8QsWLGBsyyMF2HBtmjVrtmbN2j/+2Mt0O9jE1B7DupUrl1N31P7ss0l4YZ06dYKZXs1lZX4N+uzZc1BAOzDVJDUYwLHlmHNRnTrlypbt36/fiuUrvl/0Q4/u3b9jeW1OqH27dj//9NOzzwzdumXL/HnCBHCuAABAAElEQVQLmJt79513sjKzO7Rv37tXr+3bdmzetOmP3bsrVqhAk1j43Xctmjfna2o4NUHWGLty7r33XlBv0aJFTLeDjBUqlMeE6INlGMtTWSq4ZctmLuvo0SMhkpePG1VOSjqwf//0adPT0w4ilgV7SDMRV9s2bVb/+uvzw4evXbN2yuTPR40c2fmaa3JYn4z9gStaI3y4VMGcWJ+Ptc1KwXmjpmAWNxIuEwVhZPmSkqFgByeczhb4K97WKdXHx3J4abNuYA4wK+ALHQ6kF/SyrIEJ+Fjai7QTmeFStHHl+HJi/BkFPe6KJYuinDyExJenQzHyYqKMOV6PYCLS6JCPDXyUZ0CMCLhp0/0SEuKQAmiae6aoyf0fqGJml6kfxgU87+vTpxf95OqrrwbOcArgKVq06GOPPVarVk1GhTwL4/EZEkBAHvadf/65MIAgZGTqasiQIbgAAwYMaNKkMXQcBO3qnTt3BrPQhEeW3bt3L1u2LFMneFr0RqCNaRa6j46wyEXgkR9+Bw4RHkThQgWYnEpOTqb/6E1CeRT6lQisQCSV6rz22mtUHLRiEHfDDTeAAiAak2Joy5iRXIyYeDpBBAhmZRM4S90LFy7ctWtXagGGFitW9JlnnuFBAeNKHJ/rrruOcRlCyIL1jMICuEWKFH777bf/85//YCvUQEPAkYrg3ZAXEORBAVoxOkYsU0sUxBQ7Di/MDHUff/xxUnH3eGho0AOZXubRmfkCPY16tVFP/B3zFEIHxTiqlMholzsBiqE5qejMxF+dOnW4ObHSBQuTnaup94O6deuQiyqjEs5ynz59brvtNtBHjaktgaPBJrGw5kI3hHCNuDlxFczsATQJXFOqoFdWKc7xdLMAV9EMYE6qF/OmeouGObprnTSTTQR5gCY5HHbzKvW+dXsObv4jNSfES4d0FJmMF8ziJmhC0BsMZfmLxMTVP7diygUF4uXDD2SnZFlOzt0SH4+vdPEwEfTiK118LIKxWMGCCaTQ9/hpSwWbtD8oPS0tvWjRwlKC8X20vcLDTA3dWHNxJASDOQy+6Oc0dGyDdtWqVR8xYkSHDu3wZZilZvIETvUR6B4aOAWzaOsJ8fGoKg8YeXYWkH6iasCmiumRJOQzPCxWrIjiRbRhkWD4pfMYaeGOJC4YC289LpxEgFXhTHVALHYAwYEbrYiWSHzv3n1M22m52mmpPmIBvkKF8E/Fp7Pq8ThXT9WA5KJeaMjUPjxKJEIuFm0w3iRJKysiXCynOMhYmPsHnDt37kxOTmYKv2rVqiS99957POObM/cr5hbRM3w5TC5KIaAqPyRzsaiFScHdDjc56k4FqTIB5QkYBwrFwUkq02TYBDNaS8JDnLsLWfSolGOPmoocK1BLd46npwXkNp6nQdxyeWhIy3L5vK6GNRPruBJ5eEa/hCZeVKR46aniXolTRpzJHmmPIdZN0i/EZZNmzZ2QFd5eX1De9XHHyKowpvjF/yJG64dHI3YamySI0Z0ECvdY043dilmanSOdDTSxRDLCxr1XiyhVqoR2ezijwQg2TplPIYLqtmhEwWkK4q8EshOgkMSRoZyci4aMkgSb6Yra6zjaAIPiF2qolYoXLwpRJatK1BqXhx90xUQjVuoOZmncKk/1ofh8XlL5UWurM3IiAmVRrqmXTJZr0FpruUwOwkzgVCpurMf4lFzE4WQVCOhfuXJlzUXtTB3DeloltRQrh7K4WFZVaQpiN3GiOQJA6gphHOiKWdCJU5ZycoSHIwE2hTk9ai741bbKADOpxKEjUKUpp4hwwulngTyHLYCGVkTF8RLoUoARPYbneQTFrHCyoejB9AVJ5RPz4lrIHZgBl5BzmI7lY5hIE7HSWGm8YAu4YeJExDGRXKYVcpSZDUE+k904/zDQKOmo3KK1MygzPHQwiIZZ/FDYmP4YMnhw9WrVBJHATkQdWVoVZiA7gX6kWfRUhROnZEokSbFP2YRdvqV/VP9RbDKipE+qzkSsnuSRBBO0mhxhg0HEmSJwHHymE8IFtzLo0WZUyRFNGHEbqYJfYhDoGlG4UTkI1+yigzsUCMiUtpbLOUWJPjHG+OZIEcxbMZxUiASkWH3CUgOZkDLBZzA92gnC1FIFvvqh42WsbXDcKm+hB4oK0bqjs9YIfqOMGJeAcOhK1GOkgqKEio0ugiy2LJXvHE9PC+T5IDFoPgZPQwdkAsEcPiHPTLw0c7rl0SahJUIxY0aTbMDOsEiK3iDD995I06dXqhjr5NPsaHzkytUEbYO2ZWoLjj4li7Z+iNFtXXnUxdB4Lmm5TnWgoSrZQUc0D3HkqJ654lZtpVMdBTstlyN0SyQCxepseU4SITtFcCRol1aZEAnEMQt04mofilD5NmIZbCk2ScVytDqr0dSfArmMqLDAaPuTRUu3MnNROCUpFw8ULZqjJulR8+aSYJW0RRBRscdKjtYtmt+J/+MW0EuWCzryQCuz/YXINZO+PANiZgIfD+8IhDKOEi4ST6/Y6oIjc2B4NHghPJJXSJLBlDRB2q3e72WhTVhPeQRpTvQ+DFW7Is1X77SaKoVH+qql2K5FqjZT8moqR+0AJFl+467JKcoQLB0eAhSOmqoDDR13aBw6AjlSEJxWOFmIE1QaESiqhrKpkpqq8uGxRDgJtlxl40heqg+d4jSVowayQ+SoGZVIXIsmL8I1ToRTklQsEa2jZUAOSQRNIqJiicCpzHK7igyozZA5zExerQWpcGqJqoxZ6HAEW40kOSVoHPnKySlFE9dUZVA1VCxHtYDlVLpKUE7Ni7mUEwbiVjdOnXBaWUCvV57DFgUwf8KEj0yASGBAAjqJ85UrGBdKWqR0KenAPOUWNpYpkovcws8zR7OYS/OayS4ZInFqW7P2IkUNytO2LllN0FROo3PRTGGDaLsBcYJt7ipcT/UIpy1RmTlqdnsKJ0HLhZlU7Q/EoxXTJJXGkSxwEkzusFbEEau5iKA8DJpFyyUJio1TfVK1OCtKBSpR4+QiC0HlR8skuxWoDDArGuopcmBQHrITUSEgtYrlVCOqp/JIYQJkMqi3SGFoYR14lEkustjsVggRgpZCXuIqgYhKkGQTR0/Vx1YWBlUDBtWZo2aHjrmUU+NahMp0jqehBcKN4FjNtNHocdOmTUlJScqjFK6uNgsagVKOlRChCBIBPhwjXUTOwyeGJD1SCEc4uecBAuYXySUsMPBjCkSkmQRzKidOcCzgWODfYgHT/0+lsuCU3rXIBGApZnE8mQyzUFQY4IpAlJyCWYbCXwNfglMCXRLs1G0ki5Ilg2GxosJ0549jAccC/xYL/JUnif+PvfMAsLK42v8tu0tZEVYRGyhEBY2CBbFgp7MIFmyJEVFRY9d8ib0m9oYiMUb/Rr/Ems8SUamKvUTBAooiKsUewUJZttzy/5157p19WXaRchcIznidnffMmTPnPffOw5nzzjsjHxsLqSDkatBg8oxU7cCpLnJRJSxzPDxHclzmRllBVUwW1dZ4fJGgF1PPFUZe10/IggWCBf5bLbDCYz7qWBE95b6jlIbMEMElPCuLpPNc0W2iVQtMauumihaYj2JZXqx8sVoAyz93zNeHv8ECwQI/AwusMGxpkiio+vbbbykoyNWgrQyk6lTiSdnjQRZy1sIZPA7O6rBaW9c8L4O/eZ2NlCfXbRaugwWCBdZZC6zMJBHkkj14RUNlT6nPTopW5bEGoMq15s8SRAdhtl40J4TVm66UY3cv5biniI7BqGx6mhdWX8eBFiwQLLBOWmCFYQv3yoOUFhnoqWLD1gFbFK7iCaCmfuxJwxvUpEjc3bV3CGeP8QWMAjx7VG4J/4x1EQZVlljJbcISK3wDah7yYIFggf9aC+Rdm+W+ATBLTxLBLxLtfIS+ARmAj4OaHN44LovTu64hiu4CXbpSgwg7BCGYtTU3yzlgMNRSndSQBQsEC/wcLLDCsMXrgbhDABb4JdhatplSvNJjrxLy9p2DG9qydZZtQZNiESrLxg2DMlX4X3hVRRmOsK7gPXxkGju7mhg42UItVpjbtQM2FxczWMvPI+tRgbdqoPq1GpRF0QpDae5ruVRZyylVuzx3V0/HK0xaApRXuHVoECzw87PACsPWipqIow4JSCXY6q+2pXVqM02wz+Z87IfAIniL0jNrTMZK2G8yxwtUGat9WGBOMc3aaVfndi7AYYtIdXSfsVabsuazgiSWQYNEWgwtuvxErbemTMGvraeJeLzAUAgWCBZYSyzQ6LCVzDbhYAv8JJvROV9J00NAwTYPtP7dqzkc4MM5CFxlinCvzK+yzR5ApTSOEMu28Mz4GMX9BxEYy23jUp8t5VUpB5KAIXIhES6VvCqIMAjIkKFCtMnqcrjqu4FACxYIFmjAAo0f0ZZ3lPeR8moAVxneDTMwiyc5yAfAAr3I8bWg2vSQ7QFd9B8E4/wEh3jmalmtxfjdAi+u855ZXnLurzBI3hMkOVbaj6EOkVqgSgzgGg2BM++X1REbLoMFggXWuAVWArYcbuQC6cvSfwmk8pM5XzD8wdvJcqwFwSvWrRLTIi10QAR4McfjFeqmoBobbBHXsmeG5v3gtGkTrmWrACvoAwZRMM/OJc0ccbVALvlf9Cg2FchhFoSJ4stcNk7CDiEFCwQLrIAFVgK2VkC6sbKy3b/fk8cs/mY5pABIYGs4zraKxV6dMu+NaV9WZ5pUJLNF2er2G7fq1rld+9bmfzETNOQyWZohOqeMovleeYlWWzfJb/K4owIg5b0tGkQniUI3cuEatZTrCg3XwQLBAmvaAo0CW/KzdGs8Q7RIVS4ZSGlBKT4NUMTONOyzhav16byKednSbEnZj2BUJrVwbtXM52eecFiHpmy86xogk8agWBO8MCetGDjEDctd5XvI/80jTs6XcWCE88VRs7atsy3Rd0lzSXleQBiIVruxHwwBtvL2DH+DBdYeCzQKbEVvD4gAWuS02EkYBj752HzelWGpwmdzF1QWtalIl1Q3LY2na9KxZpWpRSMf+yJRU1mUZY8u8CnFhsmJeBZHbOs2pV07cXAFO3FFu6qnTPRMW2tyQhcHBXL0IUA0atSTnTpuzVmHoJXQDUeMSSSYxetKHBvDkaUcdWHL8vMa1iM6kIIFggXWkAVyzsiq964tJ5m3jRgxcvTosQi01w7N7wJa+AAg9BXpzhWhwgKYVWZi1YniVEkzO3EiGa9OJKuLSxfE11tQtOH3xRvOLWo9r6jNt8WbzEts/MHXqRfe+tTOXgRTbD2Xhc/J/S2oaFsM2lotHhTGU+nslKlTL7n0Ujw86Ndff/0bb0yiFrQCmQROeoDIGYicXjVt2od5su11Cafkq0x3UMSv3rn0FNFFifKr7GudDONCQ99WkrmM3o4xhRQsECwQscBPuSsR1mUX7akgMJKNderUadSTTzLwOKELCthCjSaGNtyjyfky4A102/40nnALIlI2+Ysl0iw+5TGhTenwt5ge2qs9JXYAZ6JJohIsYbhDZ9aHSEEPnVIrTUArEErnL1CGqvkgZaaBCm8BEyTakmt6yDF/zz777Oabt0Um98IHuuMy3X2ZJpKmziREoTRysEll+IVrXFIGuciRA7CipOAVDekFBvVCbnege4A1pGCBYIGlLODAZinqShPAkD59e/fv358Dn8eMmYAcAuq2n7gDJ2DKPCSoDrDUiwM144kzYJVTkXv7h0o3zh2o8VCRU2Jt5Xx+8QNS5b8oZ7Qz7JkPnnzyKdvv0KVvv35XXX1ttZ0JaBjBx+3eTMHQzbSwZA4XlxB5zjhr1pxjjz3u66+/ocnAgYMefvjh448ftvPOXQcPPlwOmphNQbsNS5zsAHHSpLdOOeW0XXbZ9fDDjxw16ilqkcmxz7179x0zZhzNu3TZ6bTTzvjqq29oQuf/+c9cTkvdc889jzjiqHvuuReirb3NoxV3ASWkYIFggXotUGDYUh/AVnl5OYfXP/30OLlSRmckRgcjcXoXqheWGXg5gEsAWHry6PaRt0bCOOaDsNjrPAm3xXxOJH4KJYCDHHeGwllnnfX1118zE+T0Y85VfuCBB6gUgz2RdIACzMnZ8dErQcbChQvZgVogOHXqVJCFA5Y5DJkDXznhlbZ8aEhOQxU42QGgPO6442h15ZVXduvWjVOmn3hiFPqwQwZH20M86qijTj311JdffvnRRx+lbXV1ipOc33nnHSTvs88+nBH90EP/BLKATvQEs6St3WFIwQLBAktZoGCTxKUk5wExBzpLeFiMfZHVSphlOd6T57dr3Ck+WmvqeAEvGOzoH2PGlUul7bADEqPdTcQywATHILdYfz1g5d13p+IHHXvsMWCKm7iZp8MMj3iYPck0DOJ1nxxSIIFjjcntRJosp5A2O+aYY3Qye6tWrTjG/auvvt5ss00iSGcS+Dz55JMc/s7R8E2bNunXv//8BQv+3913H3TwIGaGeFCXXX553759YPv6m2+eevrp004/9Y03J7/z7tRnnnmmffu2rFz74YcfwNYjjzyCu5BBAnLJDiEPFqjXAo0CW0yLxo4di8PVv39vhzt0nRuQTgmQiGR45Ao+c69b60rgxeIJh3DmiMFty7a0yZYkGKuiRT5shO+z1VZbjRkzZvpHHy1atGjixIkdO3YUGzzAAvBBAsKIhZ915pmffPJJTU0VoNa6detHHnmE/Vrl78AJf+fOnWGmCY8doeNzzZ+/Hs8Z9VY2VX369Dn//PM//PDD7t27g1kgGiCIg/bggw/iUtEEToQIHHfYYQdOk0fatGnTaHvvvfcCTyxgc/5gvLq6pqSkGC+QWwjeFvYJKVigIQsUGLZwcCZMmABq9OvXr2//3qALKGFuEf+rVJ8ixhbPpJn8xVnFVZs4thmYKuJkxbxvlcjibKUTsRrJ44IpIqCTB69MRUXFgAEDQJyevXq1bWuR9WbN7Cx4AMIwAjm0NNhiEX5i0KBBX375JSEtmjt/zdwuCna+GdX5KL4DoyQywaAmTZrggglW6FeYCD7SUJJ5DtC0aVMkVFXVsEBDH7AMgRiHfmFbvHgx/hwenPUVyzCZbdOmjXl49gQg9/qkaRlSsECwQH0WKBhsMSbd/Cs2ffp0/Kzy8j7sFc8QNeCRh+TwAh0cpa4uNvVjIy/e8zFsseTY7VRXUYxsPhcvAsFrixJcMmEKbwEcrCZ94403vvnmG54Gbrb55oAFcXSARrAFPElJ4AavitP8+vbt6/0vpKGt8CgPcKYCDLQC16gCZXCIhgz5DRTHLB3MF5s0aZKE0ylBq/bt26+3XjM6Qjdy8UkIbL/85S8RNWzYsPXWawoyA4jME5s1Mz1JwdXKmTX8CRZowAJR52YJFg0en2skK1+CL3/B8CbhPJx15ukDyvsw4lnd7kCRQYtzBNAQynY8bm7Ixg5c8L9QrCjGNhE12dSCqmS6mi1kcu4Ryx/iVcmaymS2IlvDWz+Es3n1p9g2w7GGbBLh52smOpbdYINW6IzH99mcOf97799ff+2VTLqGN4hYp6oCez4Us8dEugoNiWLRBgCimE4bFGbYBQykzJo3R56kf/O/WF1VZXQQ07bbwbFipZi1xUUi79u397Rp79100w3M/h595LG77rzz4IMGZm3KC1dN0ybF3CufoiQupSnTdZedWm9Y9off/+69qe+/++7b4ODJJ59oHTqbeJiDElKwQLDA0hZoELaWZl05ikXAXUhqyebMjiyITvdAGxjRPJYqrqlomUitl17cIl1Vmlmc+2QXlWYqSjMLy4pTpfGK5ulFTbNVbdu0sjme++BD4a0gHLQi7bjjjkzieDZH1Anwwp/ilGN5MTg7zOBwc0jMHGlCQUBMQ2rBIFdpGbVUkaiirIkkBfqybty6LWrFydNDFqmy5oPpHl3jRp1++qm4XbhaMDAlRB4fSWPBBNhKkGvu3LmHHHLI4Ycfjj9IOF/S0AFN6CikYIFggYYsYNGchuo8fdasWVtuuSVjVcwqkM+cObNDhw6erd4CPgkYYJ6Kkq1gUErZGtSMvbDD3g8vT/n+47mLP/v2h7Q9JcQ3MizDm3ErHtxzx3gyW1OdzFSXNU12265d9x1aAjw8ScRL0jjXjEyimQNWVFS2arU+N+dgB7gxt4jIkbADHw0kErPQSjlCABpujSpxejpEgZSvogCKQSTBxiUx+9LSFvQCPnKpkBYFzR8pKKGMvR0ZZ4UEr2NmAFYkqDsxqNM8e/gbLBAssIQFGv0fdsMsesxjlXWeAyQXpydwlYo3KYrt3aWsW6wsHdssyqh24IGItCNUDgQ0j8dKXJk9b7xv4kc+4x8gIAkseGLISnSgxLqm87z3RBnQiTZ39cbgEYSCxPrwmSjwCFmizaG0bNkSIWCWAEug6TFLdC5pjhbUoiRemGaFXiYS6FTKhDxYIFhgaQs0OmzV+ll07gBLSiTidG0eCktAbWuaeKyY8cxMKq+j1TnA8gXBFiOaluCXhfsJSdnCq9z7NHK4QBZrmJ/BgVkgBZdAiYMMqwUjhFliUxPoXlTU3zGMcQIpkGBWAaKSmMEaFbyT5drRV0686A6RciQcu6iT6IWri7z48DdYIFhgCQusrn/VGfh5zNJftyYhR0qnUiBXU7yPTIydavRhDsgeNZQpNLdPllxEYMui3dkUkCA/CLzgtuQZkTP+vcMCLgAf0GCRE0Mt/DQEHUg0hKKcyaPooshUOnxbZRpGm0AUVOnJgFrJeyKH0/UOOYdTqoLuKdIfOeJUL5KjcsiDBYIFvAUYO6RG97YITjlwks+E02IOFSjBfwAGIACUJHm2xwWv7hh8sI0NOc8kE7hURnYq24RLulMi9mVBL85bzDk4PlAlOPDDnjv0uIBsoIFLAQ3CfAG6YA45gg9dioGpnLOVZR4N87rkZpFeAZoI+NSvyjCroYhq63PEorCqKCABSr2cvkkoBAv8PC2gob0avC3Wb7nVD1Ezm6/lwItQtGET79KwmAES6MbHAI3QE7lBleMwoHOekTWztuZQUSM4MERxg1+dULZ2LlEACESHGRq5KLqkCoxAHoAl0JFpoHvh1p3z4GjupVGWWF/wPBREJLeWDow8M5fQfe8SGBUSMEu2CnmwQL0WaNDb0niL5rTXeKtXUENEw5jaB4n2+MwIJirXwiFK7uQwQNQeLy6RqM9TfBsYDLlqq1DMN/JlCioLfWDQJYWlKRA9WHg2ydSlz32tL3hp9fKL6Hm8HOgqq18vzRfUMOTBAsECdSzQIGzV4VvlS6DH0McwrBZhTCpU+UJ5cLIXayIpT16ylWPIV0W4QzFYIFhgnbfAaoAt8MYCVQCWvCNDLrOrgZUrWAyrNmnXmtrrHJNz0Wqp9YBYbWUoBQsEC6zLFmh82DIYqp0DypYOufI+Vh1AqmNth0+wiFuVSHQS/J86bcJlsECwwLpsgcaHLXAHjCEU5czIA8B6kpArWmVlkMoO2XHzSM0HjZJvjvtmaBhtlK8Kf4MFggXWZQs0PmwBNEBLfupnqx5ykCQkcrmwx2126kAKi3vMyllf3O4iAn05aevyNxTuLVggWKCOBRodttjLwd481Pr3WswyNcxdykWu7I9zrFjxYERXFlIRF8td1yKax8EAWxgnpGCBn5kFIk5M49w5wOLmdS4zuKEbKztgsi5t3ajDLPOvjBBNTj1YxV1baHS1o0qEcrBAsMBaZYGVGP/1wcuy7olNDtg/y224DGy5tw4Nf9gTkEWnqTR5PFXFBlY8T0xmktWxirQtlHcPH5lf5qEqk6nh+B57a5GDyFiyFc+yg0RNIsurhXTu12ouSxE38VwmQ72VK3q/9QoJxGCBYIGCWWAlYGvF+mavQLfZVJHN9XLJOrVFlawg17qIoiSTRFvKnmA75BLe9skxuq34LBZmb/oYkRen5XgRi3cYaPtk+TWxauVXseeEhD/BAsEC65YFGj22lczyQnR+lifoMo9JJ2u541xti1Gi8bbxFsDFVjSwwwg+JWwLdrZBBbQoUAlFtba7KFvwMXnMuANfQS69l2N9hRQsECywTlug0WGrNiyFHQVbZlCHXLYhA3iVTMUSzPRAL3J8LagAGN5Vwr1bza4znCrtJovmalmtvato+9YgPMEmx26SyCsy2ovGv0Zj/YQULBAssM5ZYCVgy+FGDo2WZY/8bM7xeMDyBYdcnBLIJscca0EAjD1OSQuJcDnwYu9Rjp1oCqpxJmuaoBaqWggLsDI/CznqwCJntq8DbbVpn7908qKZAdyKp5VrteL9hBbBAsECy2eBlYCt5RPsuYij5xdteW/LMCedsT2xnK9UFYu9OmXeG9O+rM40qUhy0kV1+41bdevcrn1r879sE0GQywSaj0Vbc8oomO9lWykIs4RW2m1Z0S6vQigECwQLrEsWaBTYyrtBZiieIbqYlYxmnotWZmklF1uuczIirtan8yrmZUuzJWU/glGZ1MK5VTOfn3nCYR3YJpATgGiGTHIAi1CZlC4GDrNsAZgLyQu82PfKbQdY69Sp45AHCwQLrDMWaBTYiloHuLGQuyOx7tSBjwMhc5VyjKx3+GzugsqiNhXpkuqmpfF0TTrWrDK1aORjXyRqKouycY67T8dSSYvaZ3HEtm5T2rVTq5Z4a0597fRCSB7vDW9r9OixnTp12nZbO4w6pGCBYIF1zwIFC9xoJz7mbSNGjAQ4sBQUm8aZb8SHcBR9RbpzRfcw0MCsMhOrThSnSpplaJeMVyeS1cWlC+LrLSja8PviDecWtZ5X1Obb4k3mJTb+4OvUC299mmarUlAvyxk5oKJtBCjwIrx19dVXv/nmmzqqJ6eVw0mpI34LkkF0uRZMaFdliEoQ87VG0OqwXF2+ob8MhWCBYIHVaYGCeVv2VNDGcwxPZ9STTzLsDzywHArYQo0mhgYV0eS8Lfc8kDlggliXWxCRsslfLJFmWSnReQ5YjeFvMT3MssdgiVvu0CRRyWwRuIKuuaGeHvoniVzq1C+dOoFWrPICsIqSReJX8AukowAzuXZVFt0TuQtq2RTen9AjBkFk9FZCOVggWGC1WSDi/hSiT5Zk9enbu3///px1OmbMBEQSULeV7g6cgCnzkKA6wFKHDtSMJw6AKKdC290Y4hmwcngFoMZDxXTcsAy0EtiRK8lXAlxwr4AnzqY/86xzuu6666GDD3/auX4gV+Xi6ksuuWyvvffdfY/up59x1rzvfgAR6fCjGZ8cf8KJ2+/QpU/f/n+753/TCOXhZjb2+L9G/froY3bffc/zzjtv1qw5zjOz3uSd5ToOf4IFggVWuwUKDFvSH9gqLy8fPXr000+PM5SSl+ULYrIVpgY7wjIDLwdwCQBLTx4NU9xyLWFc1l7tcW8vJgjke5FI8L4SbhFOH7AyYsQIHKIrrriCU2lPO+20SZMmwzZ8+PBRo0ad6dK777574YUX4oLxGTp0KE3uvvtuzpS+8sorX375ZZjHjRt/wQUXcMb1RRdd9Mknn5x00kkVFYsFWPLO4AkpWCBYYI1YoGCTxKW0zwNiDnSW8LBYfRXxt9wsEohyLBaxIgFLdg2u8dFaU9Fxu6g1tfmLK8cfEApAISWTPFW0g++32267m266iRliv379Pvvss3/+859du3YdPHjwkCFD2rVrB7RVVlbedtttwNz8+fM51B6E2nXXXXffvdvee++98cYbQ//b3/4Gip1//rlosttuu+2zzz6vvvpq7949kY83p5mmUyhkwQLBAqvbAo0CW2PGjBs7diwOV//+vR3ucFd5FLMbNCdLeOQKPnOvW+sqh2oZEMtWxOOIIYKCMMy5aWIUiOABkTylZ8+eCj+VlBTtueeezFip3GabbZ5//vmHH34YqALICISBa2VlLQGsM844Aw9x3333HTBgQIsWpcDWO++889Zbb9lRY5lMkyZNwER8rl69EGvRNEW4vN6hECwQLLA6LRBFkwL0S2hp3LgJY8aM6Uvq3xt8Uuzc8IaUA6O6HcGWjWfSTP7irOKq/STtdcRYEZH0TKI4Ey9K415BSSdiNdDxtLjwaIXQ/LPL3CH1eowI6FRUVIBEp5566imnnPL551+WlW24zTadOJlQTe6++56RI28vLm5y4YUXd+6843vvfVhVVcODyHbtttxgg9YbbbRR8+bNBw0a1LFjRzCrhrUZIQULBAusUQsUzNsCI/BoGNjTp0/Hzyov78P5iFzaHM/N8igrOUrdmzZ8YqrHez6KWuUgLoufJYqRzefiRSB4AUMlhJlcuT/ytwCyyZMJZp3IJXM6wlidO3fGw3rhhRduuOGGQw45CH6QaMaMGdJ58eLF5eV9Bwzoe/nllx900EGPPPLIZZddDEgBvGeffbq0/u67H1q0aAF/cbGBXUjBAsECa9ACDXpbmmT5HFxAS+X1qpuDjHjsrDNPH1Deh9HO6nYHirgnOEcADQunrKlbwGUbO1Dmf6EYx1IXx2uyqQVVyXQ1Sw6sKxLLH+JVyZrKZLYiW8NbP9lYNa/+FNtmONaQI2GZJCIHVhPtErO/Z5555q933PnxjE/+esdfn3/uuQHl5c2bNUOll158cebM2RMnPn/HHbc7AbFPPpnZtevOt9028quvvpk169P583/YaqsOHPM6ePAht98+8vHHn2Bu+MADDxD2eu21VxwOWkcyS66/8CdYIFhg9VqgYN5WQ2o7D4zKOviYSLCpA7DkoA1AaR5LLaqpaFnUvCq9mIeJOFkWbneJlxdxuUqLi4pZhZquaBqratumFS9aI5EPix60XAtpzARxtfCkDj/8cOJZ119/fcuWLc866yx8PxAHV+vSSy9lTdmmm2561FFH3XnnnRDbt2//pz/9iaqRI0cCRjQ89NBDWfN1wgknfP/99/hfixbOLysr43ki0XrUgYc4V3RmmtMy/AkWCBZYXRaw9ZY/2desWbNYScCIFbMK5DNnzuzQocOym+MLAS4ATy65/Zddmd1JbcLHCzvs/fDylO8/nrv4s29/YGknLeAHy3CI3IoHmxayaCtbU53MVJc1TXbbrl33HVo2c08S0+kUyBV9uges0BL1mBg2a1ZKVJ5b1BSViNWChQtbtVpflGjONHD99dcHsKxXN+G1/mOx77/7DjpheARyGTDLWSVkwQJr0gKrwdtS8ClykzlAitkmgASuUvEmRbG9u5R1i5WlY5t5fFMDLgEhEWEnsASmNI/HSlwZ1wfMAkyFKSw6ZfUDZV3iaiEEfmEWvhio5DFL2KQc/CorawWbgMxNBnOtNthgA8lXjmSP3ZFbCsVggWCB1WeBRoetWj+Lm3KApZtLxOna3CI2pbGtaeKxYvDF7TQvBqtzgOULgi0whZbgl4X73UZcAimY9YKOkEVuEeV02rCMWhrmfSV8uDgenS35ck8j6UdC5LvBBjZpG2jTIQ+LlH1flEMKFggWWCMWaHTYyt1VBLAo4j3ZQnfDCnOk0iyhKioCvAjT247NLsnPokjBNXFY46qcMKAlRYCM6SGRJiFL1A/yK0LBLGCIhF8m0LFeXaJAW00wJcf7btBpAhcFEt3CLE6F0pwiIQsWCBZYrRbQGG902DKwsfuSzwQImUOFk8N/BkwZex0nWcyDRIBBLg/b2NCCYH0Cl0qYRXubvsk+lPCUkEsULJ5ziYRE5I6TRrZnAxhEQVijKpDIY5CHIQGchzl4VBZnVBRlkufUZciDBYIFVpsFNJDzvk0jdsv6Lbf6IdoFjpXAy96eBpt4c5nFDJBANz7QyK2VwyEjGNDRhmQhKPN98JSMj+iUgZpBnvwj3Zj8JuhRlAGJxKMmqhJ++1xEwM76ckmiKHogy1WEP8ECwQJrwgINelsCgmiOeiCChvfyq2oYU/sgkb1nHCg58JEQQx0eKTpXChDVFjcR+dTnsdU5U7kqQy6rArygCKo8rOhSufh9uQ6Pb1unSRTsGuKR5JAHCwQLrGYLNAhbhdYDcDF8MQxzCOXlQ3XI5cGpzjJ0a2VpyVaOlK9yFyELFggW+JlYYDXAFnhjgSqb0DnoMuQy6xpYuYLFsGqTdq2pvc4x0Sqa6gGxaHUoBwsEC6y7Fmh82DIYqp0DypIOufI+Vh1AqmNrh0+wiFuVSHQS/J86bcJlsECwwLpsgcaHLXAHjLGYuiUeANaThFzRKiuDVITqSQ74rGAU+2sJ983QMNpIFSEPFggWWLct0PiwBdAALfmpn616yEGSIlMuF/bkdtES3WNWzv6iuosI9OWkrdvfUbi7YIFggSUs0OiwxV4O9uah1r/XYpYpYe5SLnJlf5xjxYoHI7qykIq4WO7auV1cRHAwwBb2CClY4GdmgYgT0zh3DrC4eZ3LzO2iGys7YLIubd2owyzzr4wQTU49WMVdW2h0taNKhHKwQLDAWmWBlRj/9cHLsu6JM6dZu+k2XAa23FuHhj/sCcii01SaPJ6qimczPE9MZpLVsYp0jIXy7uEjflUeqjKZGo7vce/+FOG80ZgdJGrs+WT9iVXyVPhVo1qV6lilf927iPKr1YquUKtfj0ANFggWKLQFVgK2VkwFNtRiX0Bef1b8yjW2Tm15J0vbtS6iKMkk0Za7J9gpuYS3fXJ9ZNxSdVramz5GTPOaoKsjFu8wMCI11yb3h6XtQJVfB88q02XDEPx6DQg2tfIrVJcUHK6CBYIF1rAFGh22ktkmcTYulXOTc51ysMULPe7FacMm/CheiTYHKVPExsvws7lDwra2YRtUO8/QvQCUMYr7D6J5Zw06W+ZnaUE8hTor4J3J0aHuvcMGZsnVwvlSYQ1/P6H7YIFggaUs0Ogh+dqwFH3X+kZABge2Ws7+f6mYARboRY6vBRXYwrtKuHerQbCk88oceLlae1fR9q0x4XnPrM6t4THhbYFE3uESKtVZox9tJZjD7YKoHAn+ZaAoZygHCwQLrEELrARsGarkg+TL0jw/m3M8HrB8wfAnk0kTouLcixgBMPY4JS10QAR4sUUWG800BdWS2lYLVW2eB1glwbvlUAGcykOVFRDu8loNXIe5DIRCOiAFj9AqYFbUPqEcLLD2WGAlYGsFlSeOnl+05b0twxy2iAckkoBXrCoWe3XKvDemfVmdaVKR5KSL6vYbt+rWuV371uZ/2SaCIJd1qxmic8ooWpirfgySigCQtq8xtHOYRUH4JYZoHvWqKAfkihonlIMF1ioLNApsyc/SffIM0SJVuWQgpZVZWsmVZlMb52p9Oq9iXrY0W1L2IxiVSS2cWzXz+ZknHNahqTsBiGbIJAfFmuCFOWnFwCEBsNxVvof8XyJTTA8115MbpS2b8/V1/3poUwXItWz+uu3DdbBAsMDqskCjwFZUeeAGaJFTxLrTXCAcKp+8q8R6h8/mLqgsalORLqluWhpPc4Zqs8rUopGPfZGoqSzKxpNx8CmVtOMysjhiW7cp7dqpVUu8tYbVV2wL9JGHNW3atH//+9/HHXdcVLdo2XthPNAkND979uxXX33117/+dZQnlIMFggXWBguY+1OQ5Hbrswd+I0aMHD16LDKhuMkZ0MKHcBR9RbpzRajAF2BWmYlVJ4pTJc0ytEtysliyurh0QXy9BUUbfl+84dyi1vOK2nxbvMm8xMYffJ164a1P0xxODepxkKLr2D/10yVQRUFIRE566qnRV111zYIFizi8B910uLRTT0ry5BFFrEwQDP6PPvr4oosuKYhlgpBggWCBwlqgYXdlBfuxp4Ju2Hfq1ImzCEGNAw8shwK2UBN5ZSci13lboIjzvRLEutyCiJRN/ji3NVbE40SWmGZj+FtMDzk9MV6StUd7TRKVevIIXect4ltplketdeoSFOCJTepBorPPPnvo0KEtWpRSC9BxuDQ4xSliyqFQFmYJy9C/pKQEuu4ronQoBgsEC6xhCziwKZwOrMPq07d3//79OV11zJgJCCagbivdHTgBU+YhQXWApW4dqBlPnOd4yqnQdjeGeAasoAegxkPFdNywDLQS2Jnj5EDKu1cUqqurR4wY0a9feffue5977rnffPMfeMaPH3/66acDQym8qnhs+C0jBh100B577nXO73735VffIBt0fOHFl44denznLjsOO/Hkr7/5Jm3rxUIKFggWWOssUGDY0v0BWxwEPXr06KefHidXyujOp6o1AHF6F6oXlhl4OYDjSGqHWcaPz2WNhHHMB2GxtxcTII8AxWrlHYGPySRBdNysa665hiOmjzzySM6jnjp16tFHH41L9eOPP3722We4XXhVl1562Z///OeBAwf+7ne/e//994cMGYKMjz/+BHesSZMmV1111SabbHL11VdXVlYGV6v2+wqlYIG1xgIFmyQudUd5QMyBzhIeFquvIv6Wm0W67SAgWsSKBCAZkuFO8XHgpQ4ALxjs5Grz2KKr5JnWcbbYokWL/vGP+//0pz8dccQRIFS3bt1uu+22r776iuCXC8/HFi+ufOihh8CmI444DOdrxx13vPPOO7/44svHH3/8F7/4xY033shEcsCAAT/88MPTT4/hvUYOFQopWCBYYK2yQB5cCqrUmDHjcLVwuAYM6GvQY59oB5rbKV+CnnOsoOX4M4ZYXMkRc2SjODct2hInS27XjBkzQKh99tkHzILhF7/ocMstN7dtuxmYhS+G9zR9+nSYd999dzwsLjt23PrGG6/ffPPNPvzwwz322APMUrSre/fuLJ5wC+aj/YRysECwwJq3QIF9CfyXCRMmjBkzpl+/fn379waZDGRwi/hfpfpu2djimTSTvziruGoT20LgahWli3JCbNKIs5VOxGokzzyvtL0vDVSR07KqqoqJHsCkaDqzQhUsZg93NkbkC4Aj3A5sUUuiwGfhwoXGY0tbjVpS0hQ22rr1sMYWUrBAsMBaYoEoSqySSoxwEkCAO4OfdeCB/ewF6Fws3vlMDiPgcYx1+zIAAmpys0JYIJBn8bNo7OP6AJltOmjLTpWWwCxIW221FSvjiVgpLDV37ncPPvjgt9/O8+shtt12W8owoCog9d13Pzz44EPz58/v3LnzlClTRGSfnXfffdfNK/P9hL/BAsECa40FGvS2cFhQ0ue4HpQ1EatXecEEu2SddebpYih2OFVtq00JWHHhYu22FAKs5GVElmcRZXexK3teyDYRNdnUgqqS5kBVkr0ewDwgKxuvSdawBqI6lSotLsqmqnn1p9g2w7GGdiRs/vRpwIiZYKtWrXr02P/iiy8sKSnaeOONhw+/dfLkyYcccoipFLcng6WlpT179rz00ktxyjbYYIPhw4dPmjQJhh49ejzwwAPXXHPd4MGDafLQQw/odp0ZrHVIwQLBAmuJBQrmbTV0PyxbyGHWEhy8smzr1+ke4ATSmsdSxTUVLROp9dKLW6SrSjOLc5/sotJMRWlmYVlxqjRe0Ty9qGm2qm2bVrxoTVtr7uJPJsoBJ5eE1ffaa69TTjkFp2/mzJl33XVX8+Y242MOiCpFRQmgqmvXrjw3PPjgg3m8eO+99zZr1mSvvfa84IILnnzyyb59+0KhufiX0DpcBAsEC6wFFliWA+XVmzVr1pZbbum9LRXIAYUOHTp4tnoL+FqACw5ULll8SYndSW3Cxws77P3w8pTvP567+LNvf0jbU0Le4TEsw6NyKx7cc8d4MltTncxUlzVNdtuuXfcdWjbLPUmsdQOZHvIwkWYUtBiiuJhXGC1cxRzW4JOZpwtpcQkDSxxatmyh2JZqWUNfUVGx/vrr0UqxeacGVyEFCwQLrC0WaHCSWCgFDbOQlccqE5sDJBenJ3CVijcpiu3dpaxbrCwd2yzKqHYW4rJm1o6oO4jTPB4rcWUi78wircrN6MAsvCrK9gywqAjwUnwdYNIcFiRio0GWzrNKvkmT4pISwzgASzm1+GItWqwHeFFQW6sLKVggWGBtskCjw1atn8VtO4DQ7SfidA0i4QpZxJ3Hd8U4RO4VRTFYnQMsXxBsAUC0BL8sZp9l51KDKgJb7jmgYVaueQbosbuT0wRyUePcrkxJse0g6CaVYJ7xU4UQ3gKCjoTiotzGNRBzqCahIQ8WCBZYCyzQ6LCVu8cIYFHEe7LHjG56B0Mat4hXByE45FITeKKAZdzuAAxqnTBevUkRIOMScAGzjO4wi0sKCnU5PyvXN2V3mYMk8YNTFGAW8OVb1cIftSEFCwQLrCUWME/CxZ0aVx+bw9kHQHIfenNxK7c/qYWcqE1qKTqv7hjCsI0N6xtsRQRQZEF3VzCPjIZ83JuCNje0KJjBrscaYZDuJ182me5WrYCnBl38FDzAuelkkty0c6gnBFQugSEPFggWWOMWYEiSzFtp5JQifJX3nPJdOccHHMEpcp4XUGSLGQzazMeSp5UDL7sypDP4sfaGQ+ZYqS0EAbAj5JwviGCT6NYkn4RZgicYTAjS3ONImDWp9K3ywJdvHP4GCwQLrB0WaHCSyOhlSEdzFBZlhTQ3jKl9kAhSOFBy4CM5NknDqTL0cM8cLYsm6vMUBzG5OkOuXJWgx7eRM8Wlp/uCqgRPnl+FOjwQvZw6nOEyWCBYYM1aoEHYKrRaQI9zhSKApS6gOuTy4GRRqkjymBWh5Yr5qqVrAiVYIFhg3bXAaoAt/Ch3xLSDJ5DGvC8zqIGVfKwlgMqfl+GN7pjc/NCT1LD2MpSCBYIFfj4WaHzY0oZ/wqe8XR1y5X2sOoCU58n9zWOWuEWsxb48BNZpFC6DBYIF1mELND5sgTuAi8XULdmDxaWTkCtaZWWQyj01tOmj5oNGybcmgG8RsWijfFX4GywQLLAuW6DxYQugAVryUz9bfZqDJCGRy4U9FmIn1SKU0EzmF9WVI9CXkyaWkAcLBAv8LCzQ6LCVNsRi6blb/16LWWZcc5dy4S3740CK5VpGdGUhFXGx3HUtonkcDLCFcUIKFviZWSDixDTOnQMszolymcEN3VjZAZN1aetGHWZBdUxGzCenHqziri00utp5BcLfYIFggbXOAisx/uuDl2XdV7W9F+j2crDpYd7r4jVCJozZVNoWvqeq2P+P54nJTLI6VpG2hfLu4SPzyzxUZTI1HN/jXu8pwnmjMTtI1Nhi1cIkv0SeVaZaaJpfd7qi91sYfYKUYIFggYYssBKw1ZCo+unscMW+gLz+bHO9XLJObXknK1oNdzKxoiSIZi/6JOLJWEnC3upxKcO2N24aydTRvXWY5oUcV0Ms3mFgRKqjr3TGGlTQCq1YZaqFpnnYWmmRoWGwQLBAo1ig0WNbyazteJWb5Qlk7I0iA4gs+zdQzIJN9r4iG28BXPGMqQSjvfZs27qzDSqgRYFKKKrFOcskAUMwTDKtj1VKYBZopT3pyZHFpXtJYJXEhsbBAsECBbdAo8NWbVgK3WshxiEXuAMYxZOpWIL3D4EKcnwtqAAY3lXC3i+CI8v2zQCUe5HR1dqL1lZhwvOe2SqaxnpyUEW+5B44cu9WUXxoHiwQLFAwC6wEbBmqOMD4CSU03HNI5QHLFwx/MmwpnyJQlYgRAGOPU9JCB0SAFzv4FcXjTUG1pDlk8QSq2rwNsDI/a7lU+AkN61QT3mKqqFwoJhesDlu4DBYIFlizFlgJ2FpBhYmj5xdteW/LMCedsTCSO8+rKhZ7dcq8N6Z9WZ1pUpHMcshF+41bdevcrn1r879syxqQy7o1H4u25pRRsDBXLQquoFp12cEphbfIQUcS2pHq8oXrYIFggTVtgUaBrei0imeILmalGzUU0MosreRKs6mNc7U+nVcxL1uaLSn7EYzKpBbOrZr5/MwTDuvQNBbjBCCaIZMcwCJUJqWLgUOLixXmFhTVAqdUAMWCq7Wmf5yh/2CB+i1QmDFfv2xHBW4s5O7KrDt14ONAKOIqsd7hs7kLKovaVKRLqpuWxtM16VizytSikY99kaipLMrGk3HwKZW0qH0WR2zrNqVdO7VqibdWOPW1PyqYNWrUqO22265jx45AGD6XZovLuMFQFSwQLLCaLVCwSZDb3Nge/40YMXL06LHcBhSbxpk3xIfpFn1FunNFqLAAZpWZWHWiOFXSLEO7ZLw6kawuLl0QX29B0YbfF284t6j1vKI23xZvMi+x8Qdfp15461NOXuSDv6Wnflp1JdtNm/bhE088yTEWunQ6WBHviVx0acs2855HdMDrqquueeedKVIVzBJdvYBiXo4ahjxYIFhg9VsggiOr1rmiQIzrTp06jR49+qmnRkPh6RzYYutI3fJRhwWRHp0PBpYABqx2INblFkRYLIzzXNOxJjWxZlWJppWJ0sXJ0kXJ9SoS61fG169MtKhKlDJbxIljeT1AAx4RkEJ9wAiUee6552666SaO3kEZKO4JYQ6z4IEOUdrKk6IJPNCFYhA5i8zw1DUX3ftiSJAXtmrWCq2DBYIFVt4CERBZeSG1LVmH1adv7/79+48bN27MmAlUaAN4LVYApsxDguoAS83QwOislScIrpwKbXdj3pnDIwdqPFRMx4tYGgFaCezkUCkgJWm33Xbb7X/5y5dffbXvfgc8/M//A32+/PLr8867YP/9e6DVddddt3hxFUSgClQC3Q466JADDjgAhi+++EoohjTr3zAry9GwPXv27tat2/HHD5s1a45i9q4256ap05AHCwQLrE4LFBi2pDoAwYnQ+FxPPz1OrpTRnU9Ve2+2wtRgR1hm4GWYxVot/BynFcu0bHv5/F43WXu1x729mGBuJ9iwWgDGeUDWQzbbq1ev3r17N23a9JJLLunevXtFReWpp5767rvvnn766UcdddRDDz101VVXwYkPdemll915550DBw4855xz3nnnHY6hrq6uxuFSJB7/66mnnrr++utPO+20a6+9dsGCBX/4wx+cF1Z78A9yQgoWCBZY/RYwX6ZxUh4Q5ViBLREPC1cmcmU+lQGWY7GIFQl+uwbX+GitqejMJak1tflrrlz+kR/hp3giuf0O2zNLnTRpUs+ePQC0V1555f1p055+6qmOHbemSVlZ2e/+5w/nnncerR548MEbbrjhoIMOwrvapWvXHj16vPjSS7179yzijFjXPw03b9u2X79+zZs33X333T/99FM9AtAkUa6Z0ylkwQLBAqvVAnlwKWinY8aMw9XC4RowoK9Bj32iHWhup3wJOs5ULuUKGUMsB2oe14zi3DRxyjkiJ/yEi5RO584To8znww8/bN26NZhFPAuePfbYg1bTpk2bMWMG6LPLLrvAQ9p8883btWs3c+ZMvC1cKiCJk6v322+/r776atCgQTfdNPz999/faacdBVXICZgl44c8WGCNWKDAsAU6jBs3YcyYMX1J/XuDTIqd52DLo9KS9wpbNp5JM/mLs4qr9pO01xEJzhclM4niTJwovaOkE7Ea6MAX1QpFSR4RK0XQHUgZbC1atKh58+ZuHmmczZo1A3SYSy5evBh44pIqPrRq0qTJ/PnzgT7F+IuLk9277/H000/jbY0dO/a4444788yz8Mtglre15B2Eq2CBYIHVZ4GCwRZIQQIppk+fjp914IH92FDZkMXwxflMecxyjHXv0PCJBZ65WSEsEKypi3bVxvV5hdo2HTQwVAKFTB5QQgH0EUIxYQRieCG6S5cun3zyyfz5C+RVEeQClbbaaitWZhUXF7/33nuwUfXDD/OZA26//faIkkCkLlxY0bZt29///ncTJowjsDV+/Hii+zCDesHbypk//AkWWBMWaDC2pZHpc41V8oaUZPyT2KnhrDNPFw+r20nVtlCBgBUXLtZuS95h5WVElmcRZXexK3temC2O12RTC6pKmgNVuFfErWgCRNQka/CHqlOp0uKibKqaV3+KbTMca8iRsIlMSu4POQ2AlS23aDv322/GjhlHSH7nnXbaZOONf/8/5xKSr6ysvPiiy/fYffc2G23Ifey7zz6XX3ZZs6bXlZaW/vnPf27VsuWee+yBWkXJZDqV4qWjSy+55M033xw5cgRTyM8/n1Na2mzDDcvslkIKFggWWKMWcGDTmBrkF2/VhCQkhgAAQABJREFU6YgjoYEke2QIcAJpzWOp4pqKlonUeunFLdJVpZnFuU92UWmmojSzsKw4VRqvaJ5e1DRb1bZNK160pq01z++TxU1oUej++++/22678QTw0Ucfbdmy5T333PP9998feuihxx57LP7UHXfcQQALdGP1ww477DB06NDBgwfD8Pe//72srCWTRIQAZEg799xz27dv/6tf/Qr4e/HFF4E2JpLQl4HdjWnIIDtYIFggZwE7d/onjTFr1qwtt9wSz0vMKpATw+7QocOym+NrAS44UPkObeboEruT2oSPF3bY++HlKd9/PHfxZ9/+gLtDC/idr5ZxKx5sWsiirWxNdTJTXdY02W27dt13aNnMPUnMMm3Mv0iYE+wmetXVKaaBwBBEYl6AEco3bVrC7YJZzAHlHhJ6d0GuptBFgR8iTcVJdAwKATIkaFErl0wk5dxRDilYIFhgNVugwUliofQwzEJWHqtMbA6QYgYpRL1S8SZFsb27lHWLlaVjm0UZ1c5CXNbM2rHgHsRpHo+VuLJtzsxM0z1GVEzKQxgIZc0dSBHz4sMl2CUgA7mo4lNUlAShqCJSTw8K6osidCNsL4SSW0c5YBbmCilYYA1aoNFhq9bP4i4dYOluE3G6tmg6m9LY1jTxWDHLJAh/5Y1hdQ6wfEGwhU9ES5DGYvZuIy75gKAJyEJZjwIjvqEBFi8tQgezYKCKjb64QDxl3CjASFUCNQETnExlnbO4hHvlmgdvy309IQsWWBMWaHTYyt1UBLAogk32mNFAw2DKQuC4PRAccqkJFVHAMm53AAa1ThjuUYoAGZfeGxIkAUMOkpgM5ma10DW/W5oBhBIzchxO1TpTAi8PUmprvbtEIaRggWCB1WwBhiE9NjpsGdjYnQmCwAZzqJh/8Z8BUwaPJpYs5kEieGAwRmTJ4ZKd3GPuUA6k3HRPFkJvYl8W9CoCx7xn5NqaWwQMkeuSXPfpQYeCxynkadJHAU6SKGIWG2V4PBRKsohSJ+TBAsECq80CuUHa+P2lCF/Vwpb6w3cSeNnb02ATgSUWM0AC3fgYoLmVqhaLtytq+M8BrWGetbUzdqiRq8UVUAKvvzQG994POXTlJsyxKedSiVaewUOeqqBrgsklrbgkqZdc4/AnWCBYYPVa4Ce8LcYw+jBQ/Yj1A94Xlq2wYUztg0TQwcGQycy1sw54pOguXfze5n2RRH2e4ttQbcgVqYoAE5UoLAkexdylbVAD5kQZKHsMUit/KQnk/gGiF+urQiFYIFhg9VugQdgSTmkMU/YFhi5YpkumUX729FOqAxaGF4ZhecBSE6gOuTw42XO9SLJWlpZs5Uj5KncRsmCBYIGfiQUahC15FkIochUwigoCNT978rX1WQ28sUAVgCXvyJDL+AysXMFiWLVJu9bUXueYaBVN9YBYtLr+coC5+u0SqMEC/10WaBC2orfB2iVdgmUezij42dPSE6va5gZDtXNA0R1y5X2sOoBU29KVHD7BIm5VItFJ8H/qtAmXwQLBAuuyBXKR7GXfYlVVld5rERtOlgBLM0QFuQRn9cmJHDgGzuTdpPzr0O5FRSFXvsqEWBmksjWgbnZpby+KomsRKUcbGUtIwQLBAuu6BZYFW5oJLm2B6DyR2obY8g15jOiwKX+dhyRdRxaY5nbR0lTOYxZszl8zdiPmoY+ZpWsbcEuGDHmwwM/GAsKIBm8XhJIzBYcK5EwJoeNe4W2J7nmWFpSmHVgjcJFXZdBjKbehjS7cE0fjdAlGah1gFREXs1cU7UOBD7LgdpiVE6hGIQ8WCBb4WVhgWbAFMCkJlShTUO6fJGIkyhAbshbA4qDIZXAZ0FjZA46tG3WYBdUxRSU59WAVd21hWWpH24dysECwwLpngZ8Y/8Ijj0qugJ/lMafWIPK8dK0DEgUy6Yx5ZFDc1sxsvEDRMI49GWwjhjT7lDp2Fq8DgG6TeGrNw7KP89L4g5rKWVPPy4ysvVKdncHjtwy0jWuEsOTSB69QKkXVE2W58/rgdLkbB8ZggWCBgltgWbGtBjoTENSDd/LFaAVgZTgBJ22bHbOHOxS4wS0Dm1yQ3YAPKNGLOBwtoXhZAz3+BDkiZwmtavVxTuJPSGmwusH7bbBFqAgWCBZoTAssMc5XpSNFu5Agv4aXnJPsEOrQCsACuOwlRMDKeVHsD2MvTSdt0wc+4AszzWzafLIVTX7tmFxC1EAaQqJemK9aUeGOn7somJVWSoHQKFggWGAJCxR+QAojmBsS7wKe7HWaGMF7AxPQK82Ujl2ukkXudAso8SSrTV1ozN4xzM/pltBxmRcsxdBMkH4FnRToDLooQjFkGDI6RFumvFAZLBAssLZboJCTRO4153MZcNidjxs3/oMPps+ePSedZrurIs5P1bYKAErvfn0GlPeFR8AJYDGBBLnyBGu+PMkjETLhRwE9LpAXJghTTq14lkds4AkWCBZYay2wXKvkl197jwtytTh5rGPH7TgmGgnm7BguJZ544gn2dB8/bkIinuzfvxehI0L8whri9Ak3tVyJHsEpPCyhGLkWxCJHKnnkWn7JgTNYIFhg7bRAIWHLezoEqUgWj8/Ettii3YABfSjgSCkfO2F82y232GKrDmPHjwNfyst7Oz/JOUq24+gKJzy7mppUSQmzRfZKNQkCKXL2iWdHeSgK29OdUGyF+wgNggWCBdYaCxQMtkAEeUyuQJgpd4vaxN1jFgtUMxlzi/qX94STk1PhO7Bc7hgBr5SbJ66AeTQb/cc//rH33nt37LiNkNG3nzhxIq8l7bPPPoIzTw+FYIFggf9eC6xESL7+8JP3YlSQA4Vd0hl2K835WTJTx44dP/row1FPjispKeExIhNJoMd9cIUahFE9GRQaekxEIA0XLFh49dVXCwE5Ouy++x5YvLiKhwDU3n77HXzi8ZwTh26iczYPtSpLiMqSLCgUXf2qVvSoBFGiWuHf0VBJD1XzV+FvsECwQGEs0CBMFEZ8LMYcjTVccsSQyRxuiy3bTRj/zMzZs2wZRCZTnOSRn+ttmasfcND8JBRusIPjKpCAN7f++uu98sorrVu3hs7h0ldcccX+++/ftu1mXN53333O+8vhJvhCK9rqbB4deOH6NroK5OjjzxxTjMydhWF0EpyglT+RDIo9SMjnmpOiKhApF4+yq12JfyFMbEjBAsECdSxQwLHE4MzPDCOd4HEAHFSx7bIWxA8s7zfilhtvHX7DyBE3DTpwoEY1Q5txDsBFmi5RhAHs++ijj8888+xdu3U76OCDJz73Qp++fadMfR/pJ//2t+PGj3924nOnnnZaTSp1zJAh5553AfSbhw+/8667bIlrPDZ+wrPDTjyxc5edTjn11H/+36M9evbWQrGevfo8/M//O+74YV123PngQw55483JsBcVJyuram4dMWLAgYP22Xf/c887//MvvoJOkz59+993/wNHHvXrrbbeZlFFZSqdvXn4rb379EPOFX+8csGCBejNvdjtOMDi0qP2ErcULoIFggVWygIFhK36+2f02sost9wUCLMXg+yoixxzOl1DKJ0LUZYxvPFofvxxAWdNf/jhh+eff/7BBx989tln41sxKQMVP/nkE1ZXMP08/vjj8XGOO+64o48+mhNe582b9+233yJ/6tT3Tj/9dFyhq666arPNNrvgggs+++wzOgVUKVx00UXdunVDbGVlJadVww/92muvHTFiBGdW03Dq1Kknn3xyZWU1atDpZZdd1qVLlxtvvLF586bXXHPN3/72Nw6vhoFzsPH1XHObhHI7QDYWcMANIaRggWCBAlig0SeJcTvS0EJQYIRGL8AF0HDJgnmOjbZToWuYtdl+Em6mVj+S4ri8/vrrs2bPfu655zbbbFMktGjR4sILLzRARE5xE4CmbdvNQR9gq2fPnptuugl0RBOSh/mpp55q3779Lbfc0qRJycCBA3788UfWYaAXPYJ3J5xwwimnnMxly5YtzzzzzB9+mE/cjQnmDTfcMGjQIOaDu+22G8s4Xn755V69ehDtGjZs2IUXng8/SHr//fdff/31Bx44gF5atWp1ym9PuuSSS5AjwIInwBZGCClYoIAWaHTYwuVBXYZuOm3Hr7qyc0BcNJ0XFwkbgVnQXcyo1hFb+iY//vjjtm3bbrKJ4RFpjz32QCwF8AJ4Aq24AlMUVxIPPeLy4CJNmTIF6OGoaphJ++2336hRo9QWIZ07dwb1EMCCMuDm888/lxxAEMyiaktWbGyxBY4esIU4+GkLfc6cOeyh+Nhjj02ePJkmOHfUfvDBB163gFlm7pCCBQpqgUaHreLiEgtL4XTZiip7w9qWODjsIBQGrIA4FgKKZywmbjsF5p761blNGjVt2rSiosK5bBYUBy/kvsGJcFCDgtwuAEXNgTASzKWlpfBDFJwtXLjQzVgN8hREB7MUiQJ3SDCDONqNmioaoqq6iLpRRLKgb755uw02aI1A8pbrr6eHA2JzLmT9dyQNQx4sECywohZodNhiZTxIwbg3N8ctk7cSc0bmdklzjpxDhNrMDe0FxoZugEY77LADgaqXXnoJXwkUY60WoAAqIZ+JHnJoC1gIwgwrOTg2t/o0RiiKCBQTQJ4wEqJ64IEHmAbKwwI3hVzwUxA2bbPNNkgjpHXAAfsjn2kj4TMRTVcLWpn8bbfdFgX69eu39957uNuKffufr9u0aSPMkjLww0MTCiEFCwQLrLoFCjaWnIOTkwb24F7xVJCtSGuy1eyvZQ8RyRNFHOKaiidTiXi1RdJJuEI8arRSKk3UqyiVMU9JH5Wvv+GmU049naeBu+3ebeDAg0466bdDhx7fv//A119/I5ksthWqeFtuTxyatmu7GV09+sg/v/ryS+hpYNE5S8cOGbLJxhsPKC8fNuwkIl+LFy+mRwNUl4AVOWj8KWZeGY+3atmyxwEHXHbppS+++NL7739AtH7DDTfcc889URUoBI8ATJquv/76BxxwAHEulJk1a/bFF1/M0lamipLs5QfMkp1DHixQEAsUzNvSYBYUyIuRe0FEPMXGW/l5kgMo86lcDN4ggCT04C8uEo8dmUlqwFNOpVOzZ8/+6KOPJI3ngMTI33nnnU033RQQ6dGjB/M4usPVAnqQsNFGG/3mN7+58847iUORM6/EmcJSZWUt8c5ee+21j2bMOPTQQ8Gds846y6GPzf7ojrbIAV9IEkWgneD6SSedBBvBLJy1DTZoBQ+1JMDN9Zu4+eabzz333CFDhuD6bbnllvfccw86wIAcfUM0J/nLgnxtQUiwwM/ZAgV7Ns/I9M6FJmiY9ZZbRmSTRVtvvTVlGIriuQUBXGpgT5/+AZOvW2+9lTFuq1JhWHLAG1vSgAwo++6778COAw88cPvttwMyHn74/1iI8OorL7VpYwtNfacUNPcEDfGJ2PaLAt4QDyKPOeaYsg3K8JjALNDwiSf+RVVVFU8b8dps0uf0tPgX8gEyLll3irRmzZpoaavvSN1BRL68xfnz57dqtb6JcClqkDwt/A0WCBYogAUK5m2BWbgbzA4Z7Yx/RjKfX/7yl48+MWrmzJmMfACoJJkLPzGk0R0HZKutOvTv31/8YJaI3lVxTlASVgqJZLysrOztt99mwQEP+ICwd96ZcsIJJwizhClgjYFjUUKvVYM+lIUp7dq1O+ecc1jTsNfee0+aNOnrr79mTRYMJMMsF6gSp3ItiwebioqSPEx0hQS9oLMhrMM4EZEgOWAWbVWGKNjiXkiKu1lnIQULBAussgUK721Fn52BI8CNBrMf6ujsx7aFwNxQ1yAnZ5AzbYRHFApQgApdAhzPPPPMjBkzCKjvvPPOu+22KwzRHrkk+SZeGjwLFiwaP378zFmzNt9889336Lb1VluDWhIrfrX1zXUZVQP0JImi3HdNASWp9V3TnEsvMxSCBYIFCmWBgsEWCvlHclEUwFcSYElj+TIaztD95lo0gcE8GbefMu6JEMFjBPQoCkgOufPUzHfzkBHtHbpPmvdpL3spwPRPEKm25CT4PRipbZ1LqQonuqFwtDZ6F1E5DankdQuFYIFggeWxAIMOtlzYeHkaLJuHkallBLBJNOOZMjDgHvNBtQ/uFTkZz+w8Zhkb00CHWZTz8XV7YCd0gOgT803KwIv7wGI8JM+g3v0lhTyaGB6hAB+4+cg/oq3R87074SaNVhIVrRIAqSE5lwCf7xFRELlU8m5jVEJUsVAOFggWWCEL2FBnlK1Qm2UwI4taAYTK5Ixe50VZOw8sKmhIC9popSaSLxChrSSQK1FLleJEwgVP55JaoYPHEQGc6OqCKmkIkSbwSwGPL1E6tchXw6X1lALqETYailOaQFEhSoQnpGCBYIFVt0AhJ4mrrk2QECwQLBAs8JMWKJi39ZM9BYZggWCBYIGCWCDAVkHMGIQECwQLrD4LBNhafbYOPQULBAsUxAIBtgpixiAkWCBYYPVZIMDW6rN16ClYIFigIBZYI7DFylJbXBpSsECwQLDASlhgjcDWSugZmgQLBAsEC+QssBKwVb+vpAWZkpphLWduVXysKlOZjqUyMVbMq6EqWTjKfjIslbdcSzdp6xaN1v/daO2ocvWl9Zz1c6991KjmaMel9E+lquV7+uWpDd9X/ZZfuXuVDf23xrJY0sqJCq2CBVazBVZiual+3PXgHeNN68XBLDaaybDNVlEi4+aDcPNKj9vLz5azxxKWM2a0bD2RWOIMxJ80gQa2+vpJ5rWeIWdPb72GFW7Q8g03WVaN7O85lkMBzxsKwQJr0gL1oM/KqcO/1cIR/QPOLjRsRIUo0Mq9g2gvApoz5d4JtG1sQLFkMTkfBgxvyWR1bGED3SNfaIWfQkfqqwHetZHs/RoKuhHlXGEUNOaORKHsmZe8E9gK9n3Rhd6C8k4Wvfvykv2Gq2CBtcsCtUNlufWq/998fvF6QY8C7xOnM7wpzbEUmUSRAy/bONRegOT1arctTYzRGnl52V5sBuEYN5yquNya2HuF/1345RU2K7mkmxWIUPZmXH4jrAqn9FnNna6KwqFtsAAWKNg2gbWY5d4rTsTZFyHG3lgffDB99uw56TRbxBRxUIVeWmbA9u7XZ0B5XzQQStkwZrv5ZWIWHhp7uMtHYLypx/+ib5F7RG3pX9dceQhfbSiMJiSpQU4Z6AzbGf4X/Zx+zqoWDLZkRD/qwC5crTFjxnTsuB0Ho1JrY8P8sATnqnIc4fhxE4C2/v174bwxjdT4IUSfaAC5AEGGNgPNDTc3qYxsEfFf8RXqHlFVVvI+jne1VPD0Rr0pdIiqIczCtiI2atdBeLDAKlqgkLDlx5s71MbF4zOxLbZoN2BAHxwlQEf52Anj23Ja6lYdxo4fxzgpL++trWysuSaQDdyT9vlzublo8Mt3Q4harOVDDj2jHg3acgsk7S/GpRwxKB7gGrBEYchCSfrie0EHZ0WbrIcULLCWW2AFAknLvhPGpAabK9Ty8jCRC49ZxLYyGTsbcUB5r169+owdO3b06Ani5nli7e5ctQJyperqGg6t4EAK9qqnC5IwaynGtZSAwgIm9NNhQsATu9pzMAdVDjssaEh59czU6F0GdChprvG//vXERx/NWEvNF9QKFohYYCVgiyb1tPKejgpyoOgonWFlVs7PUr8dO3b86KMPRz05jv3geYzIRJJ/592HgW0rIcQWKdgJQLvssguHZXTv3v3xx58QA/mXX355/PHDOnbcduLE570C8r20TgoU8HLg5zLlTmWsSdnmzPxvH9ch49YxeNmmEsk96bNRTRlOjguaPfszClF+6S+G6PosuoOYz82RkZIc7+jKyUcfffyBBx6CiEBAhFwbN9IOgJZAcvqSMuTS59lnn5s06S2VxYbrRCHfV8795FJ05TCIBzooKpl0ihGSRYmrr7nmjTfflLmohtObTpeudciCBda8BeoBoMIqxU7NdpJYvh9mgVts2Y6zfCZOfGbUqFEMJ+ZGhnH52Ql+hwaJd0Aefvjhv/zlL9dcc83LL788bNiwCy64YPLkySiJpwaQEebn4HsQUDgCHWkMOvksiPI+oKuy8xBdLb3YjcKMbrTFKwQFPNoymJXgVy05nBdeeOG7774Lm7xIeJBDqF0NYXCzLfME3a3ZNBAecqo8AlJWgs45kpShVFenyBHFJdI4LgjJjmJ9QeGSXPpz5uNjjz3Gw1mIYqNHj9QRBM/5pKLIsJQpIIeOaOsPTIOOrUjIiX4FUciT2iEPFlizFsgPoAJowfjMj/WINH70bgwwHO1oagbKwPJ+I2658dbhN4wccdOgAwfmBzZjMg7AMYHyY8wNocyDDz44dOjQgQMP3GijDU8++cTdd9/9//7vUXjemPTmZVdczrlhnOHKSBOOCG4Y3hQee+xfQ4YM7dJlp2OOOfbNNw3p6Ktfv/K///0fv/rV0Vtvvc3ixZWAxfBbRgw48MB99zvguuuvr6yqUWDuhRdeOOyww2k7aNDBTz75JMP7P//5zwEH9ETIRRdd1LdvP+S7Lh4/4ogj999//9/97veffjrLgYhNBt1k1nAHKOCSG5k8+W0OZ9x5566DBw/GZaMtkERVZWUlMv/+9/t+//vfYyqhyR//eOVNNw3nLkgTJkw49NDD0AR9XnnlNdT79dG/eenll++7//7effq+9/40EP/NSW+d/NtTd9t9z2EnnvzKq6/Lo3zs8SeOO37YHXfcse+++95+++2YiO4EbTinBw48aOdduh46+LBXX3td4Ihxvv/+ew793n33PY844qjXXvs3vaM7gEhDUyWkYIG1wwIFhK36b4hfPAu48CdYbuocEFt/6kcBL/dwpiEtRWF4453pn3qJo/n777+/3Xbb+SacvfjBBx9Qy8n1hxx8CH4WZZrIl2EEkgAFzhY7//zzO3XqdMUVVyCTg10///xz5HNY2ZVXXskp0zfddBN4d8MNN9x7771HH330aaedxgmMOFN09NVX33AY9RZbbMHB1DvssMMf/vCH99+f1qJFi/POOw9Rhx9+OB4fbM899xwQtuuuu3ICI/7jKaecUlGxWCNcvhKawIabxrwS5F20aBHn0e6222708vTTT5uidjq3ndL4ww8/oJ4wC/65c+dyECS1s2bNQTGQGvRBn+OOO27hwoW4nJyYC1aiBudgIxxt6ReDrLfeesceeywn5mIBhLzyyitPPfXUySefDLPcT3JkoiqUP//5z+3bt4f/u+9+kN2GDx+OeblffNjf/va3gC8hRadmyIIF1iILFPJJYr23xbTG6BaQNnChyHIH54YYkhUzmcK/qskWFxuouXFr7okXpdHL8fSuqZHbtGkze84cBPHyEFNOfATE4hEwY/LeCoPwzjvvZAoJQCCzb9++f/zjH/GGNt+8LRJAEEYmyFJZWX3PPfcwVgcMGECfrVq1OvXUU0GWouLixx5/fJtttuHk1wN69Hh69Oi33n57+x1+2btPn+qams5duux/wH7oc/tf/nLwIYece94fKHNq7F577fXa66/36nkAkOFUyukDVjKhQziOYYsWpQcfPIgy90Ur2FIObtPuKSqeFGoQZqpk2tukCfc4/aOPIB151FFbbtmu6667HjNkCE169Nj/7rvvBsWAHm7nrrvu2nDDDUeMGIkNBw48aMaMT0aNeup//ufsoiKbOAPK1Mqk2AplQFhMjdPXvv0WnDWJNYRo/NNyyCGDzzzzTKy32WabHX/88XB27Lg1XdBp9EuBElKwwBq0QKPDFrMwbo8fPefaa3gQWuGSMcm45cVF4IbxBg/4wvCALHNonDRr1oxLolceyhYvXrz++nb+s3CKcchoJMEABWZ8BNpOnTqVASkhxI+uvfZqqmgFpUuXLpw1zeW0adPo8V//+tdrr72G1/bNN98gDeIee+w2f/584kccXs28acGCBXgfgBGJ5vKPEDVlyhQeBXJJK4AAHaZPn951l12OOuoo5mJIJoGY559/7jvvvLPPPvuAWUhADo4MN0uBhghEc/53kzgKpiSGQmcKuHIbbLDBwIEDBw0axFxvv/32A0kBIzpFFPgCD/7UrFmz/vSnPzlK4sMPP0TUOeecDZSDPkCkhDtkt7ghi+Y23njjgw8+uLy8HODbe++9mzdvijJ0ileLTBI+Jpz4a9tss7X7jhrdK7deQwoWWD4LNDpsFReX2Pi0WDJIYW9YE+nJQZMbKvhaMPBuosWI46yVd96Z054xCWwxO+OJIQQugbTPv/iCqR8+FiOfDwnJoAYMGvO4UVVVNQxd16MJEpw5mLBLBiScoBtdc7nJJptsuummABNo2Lx5c2DirbfewRlhusSDS3wuh4oWUwcvhJK0Aj3Jf/GLX+DLOIFxgIDRzjSNKaeDUQtpMYlDbZRxDQ1oHC4YvJoZqMu/kMiNQFTidoRiG2zQisja6NGjJ06ceNppZyDtkUf+2arV+jA7reyWFy6sYO1IWVkZbekFgAPsMDZ3xCxY/1Qol54bbdSahyGjnnzypZdeYra41VZbEWtr1aoFAvV8QHIQhQFR0Jsxp1z4Eyywpi3Q6LDFyniGFiPSRqhbJu/gJ2uh6qSNZ0aUG8n8ew5m2dB1g9kcEBoCTGABgaqjj/41l4sXVxGiPuigg6ADIjTVCMdXMvkOuchLSopxqd58880BA/obJsZijz76GDC03XbbMjjpESLoxojFbenXr98+++wFDwLnzZvXps1GV199DX4KeEGPlZVVN998s6niFEM3guhclZY269ChA/PQM844w+lPLOk7UA+xwBbqwU8vcPLhFp5//nkoSi+88BJq4D0BDUhGc/Dl448/dg4plBizs65du6IPd4fMY48dMnTokKlTPzjssMNeffVVFKa5g0KThy/23nvvnXPOGcLl+fMrUBKZ3CY8MHDh9afAHZWWlh5//FA+U6e+D0DjbJaX94ENfWiIAoIqR6ltLuVDHiywxi1QMOffhWhy0hiyuFdZc7KyNdnqbNw9RCRPFKVjiVQ8mUrEq2uEM0Sm3EoqUCPNzNFGmhvJDoSceYi2EFq+++6/ffHFV9dcfTV+yAnHD6WLIrdwAj68GpuhZWOz53w26KBDXnv9DdCPh4P3P/DAgw/9c+asWdded90FF15oEk2rDMCAECRsUFZGROqySy995eVXP57xyR+vuGKv7t1//OHHNhtt9M3XX7/26quzZ82+5JJL0EfjH0gCqlh4MW0aE7EMsfnbbruNORpB8X/8435iW6wdRREwK+/9mVtHW9Bz+vQPrrvumunTZzz99Bhi6nPmzJEPyEMJeABQJsIjR46cOXP2X/96l4upGyg/+uijLFgbO3bcjz8u+PDDaWzO1a5dO1ASt+uNN97497/fZA7et2/vt96adN11NyDzuede2G+/ff76179wrzTHtuiJ/rifPFS9996/c8nTAGB07JhxP/4w/6Pp0zFIh/ZbZHiIyfKLNN+KwTwNQV3zjvOQ576KkAULrBUWKJi35SYUhiEMQoXG5YMw70ix8VZ+5mfYYeiBs8PYtn/VSTQh8Rd/AR+BMc8/+1CYx4EUO+20E4/MeIR/9dVXM5sjiEPueXCX6BKwoAXP44hMffvtt8g58cQTeHJ3yy23cMkEiqeHv/wlrlYMfZgb6vElPd544408gDvhhBMYnyDCfffdV1bWEjwCgI477jjEHjt0KMFvvDndFM/sLr/88kMPPRQQIWhN5OvSSy8l+MXcECV79Njf3YrdDslsYfBRRDiJwDl93XXX3dwaDYcMOQbYplP8LG5z//33x5NieRpP9wg2MTmlRyCGjoiXuTB5gvkyXXfuvD0yjzzyyBdffBG3jkVtu+22K09FaUgXqmKlBSjOJBEhgBdEzIWcDh06cImzxsNZx5PB7eL2t912W6wHvPJdyPJorhRgC+uFtLZZQFHwAmgV/X1rtoJQVrdnk0U8racMQ1HcQsKMBy4d0CTwQfAsbr31VoaNrUplb5s8AyONUSTNGNgUCJC3a7e5lyCZ9IVAmpNAFjfYoNgEDU6A6fvvfyRoJdcGutAHRNB4tmYW8q+pqKgAsDRFggID7g8KNGlS4lsJRqmtqKgkjG0tHSf4SADO3RaE3A26Ssu8wuDCokU8T2ihXuCnoCCdLMYUGKxp2dIYSBKo8ty581i2BpvoVFF20SsLHUoU4TZAWfelLnSz0bK1zz+1AG1btbJbdphlBnF9Wd9eZ+zpy65pyIIF1rwFCgZb3ApAw+wQpKDMAODDxjWPPjHKHC5gIJMpSZpzxzAgUeAf9q226gColZf3g6BRSrVwDR4KUZk0wVHSQzShHhQlDV0kaKDmyfaXKoGa6zM3wnN95ZFODDCjplaNw8BHWnkJvhfJ9315yZ4TBg+7qCp+7tdzQvHMvqDuvFjxYAeZVEJ87pFXraDTEHT2aovTC+fSw66qfENfELMsn29uTyH8vYgY8mCBNWuBgsGW/61Hf+I2kNzLNIwlDQlyEpdKFgJzgKXmypHAUImCFyNfl8pzjR0COmk5j8Dr4EENCgxcynHTJUJ8QaJ0SU6/XjhQy/yOS+hRZXSD/jZ9reeUtGgT30ueaASMIITyEnSb8Kjg1aaAYspp6LumLKKXoCrP6ekqiA4PXfAPAP+cmB6R5Pnh8V9BpD4UgwXWCgvUjtJVVEcjASEABMND0rznxaUAgbHqPw5SchDGgKEVQiggQZe0guLa5maXXjJE8YuBnJEGkYbiJydBJwmzgCFdMreiQHOY1YpLmIVZksAlmKUytRRIaiVmyZQOMFMQHFAmwawCdArKRSGnN+qpwT7SCiJNPFKooC5ERwJEyiTo9CWZEClIQwpqIg1FR7IUI4fZ9W4rM4RZEKGQYBYbZXVBLrrPKYQULLBmLWADgJFSKCX43Wv6hkDkkmtIgAc8ojJUgEYYhRLuFeOE0FWkc0aaBpX0oaxLxEogl5RFRLKpHvGMoDBiEULyTaSGcoRQJeEEqimInxwGmvhaz0/BE/2QptMoUVohjQKi1DUMJJqTIKpWXcgmlNEdFqrqgCMU8VBQQhQFRPlLmkttUehatRSgSFXXhV2KWZyeH2KUorJURRQ9+uaSqXzpJoESLLCaLWBDC6woVK/IQpTGg8rkjAE/QPKgYb4GSYPED2M1ga6CH6UaMCJShk4T2kJRX+L0Q45LscGgKi8w2iNVqlWPflhquOIBeU0okAAXdSdQEBHJ0p9LNVHXSKZKiSp1pCp0UC10GLy5xKNL8aih6JR9Q2koinjISUhTQbepMrluDTmeTllEWVJdRJVRF6Irl2JeZigEC6xZC+TG9ppVIvQeLBAsECyw/BYomLe1/F0GzmCBYIFggVWxQICtVbFeaBssECywBiwQYGsNGD10GSwQLLAqFgiwtSrWC22DBYIF1oAFAmytAaOHLoMFggVWxQJrBLZYNFTPuqFVuY3QNlggWODnY4E1Als/H/OGOw0WCBYovAVWArbq95X8wkt0tM0XbDG8faoylekYpwzyEokaqpLF3OwsylJ5y1nTqGWNep/Ecda9Va3nVK6+1EQUytElkaqqKyJ3Xb/+DTCvBnLj6hM1iy8vwz7R71FstFoGfz0G8t89hSVS/gfgfwmRWt6R5KpOR3UuI+wFLNZvf9lh6Tz/My6gAkHUCltgJZab8jWT6sE7fmRaq83P1XZfZputogTncombV3rsJR93DmAsYb9ofhMs3WZUsKewyyWzQfnWrUv6Nft14dBqu3Y6+MtcgyX+/LT8Jdgb/WJ16LO0xX7ytvTt/CRbPQxRtMot3ReX7jTaop5fkf8lLPNLjApZxXKD9vea0IGUcRR1V4/mq6hHaL78FiiY9flGhSP6B4qds9gBBj1AK/cOIi8jApHAHSdV2H7KbBKVSBaT8+E3Ye++cHBN9Be/5E0gX2MP94qO1Bcs0MWoWpV97ZIydIVWBbvr+uSvKK1x9ZFZnMFyb19FDbW0rtTqG9TrRDK7XNqlmeun0I//1M9RD1Wd0rv/Qv03Xg93IUn12x99+E1Kh2VbrJC6BFnLZ4GCeVt8wXrTjYLbJZk3pTknOZNwu2uy8TLvIPMDcTuammpptzudV9KGFFt00Ta3M+ByIYt+T1GQghK99PJ/tgUZxA+85TGOmgBV2rfHvpnCWPWnvS115H9La8m3Jq0AMvdeZ4Pe2Vqi7c9BjYLBloxlmMU7vfYasxHGjRv/wQfTZ8+ew0k0yWQRO8bohV54evfrM6C8LzzCJwMsjsCwPQwaBCz8Kn5AvEZNTjIHzQ0nBhhlf4nMte13b7ZYQ0kmWv7O4YdZ6IYZKWPY5W++Kpx8j/w8fNdool/LqshclbYeuLHDGldmVW5k3WtbsL3kZRr95iiDXbhaY8aM6dhxu969e0MxWDFcSjzxxBPsrT5+3IREPNm/fy9GBtNIjQ1C9InodjYRezOaGD7AFAV+QybNYRY/KTkFXIpd9EjTn3WRbwSDeJuo4L+mpU3jUQMLk2DwbZdmLixF36P+yfFfa2G7WCFp6MO9o4nQkzJJNlkhOYG54BYoJGzpB4eKBKlIFo/PxLbYot2AAX0oMASUj50wvu2WW2yxVYex48fxOygv7609V6x5fvP4eu9Te4G63IaTfk+gGd0J6zTkGvptCdVsNvpzSpraeJyKolK9ZtCXyOCkIGZyEevlLyBR4SThApDBFx3Z3KyA/SyXKIMoB1LCLG2B7c24XCICU6NZoGD+v75j9HSFWn11IoPHLGJbHPHHj3JAea9evfpweNfo0RPEzfNE/mmrbblkqbq6Zvbs2eyG7iaJ9JLbsYsRxZnMnI7BT8p+aOHfwyXtxmmPOqcaMriAfSgsw2UQYMmMjz/++IwZM4QmS0ptlCvNEPlCkc56CE5ymzHj40bpaTmE8nPyVvr44085upxGDf88l0NiYCmcBVYCtmhSTyv/D5EK+U3r8LxsPY78LKndsWPHjz76cNST49hllMeITCTdvE+TkdxufK5JDsJoywlAHBfIwfQcxvXYY/YDUvrXv0ZxggYnaHXvvvcxxxz7448/QtfIJDBBWWPA/9ooiM74zYkwfiuKMnHi85Mnv80/rb5W64kkR5yqyiOAXamW4U1ZeZSisvqVbpKjXlQrDUXXMUVeZ4jSjaNYn3pqtGpdp9a1T+KJyqEhn6uvvpY7ksvAOPRfk/qluRSmIH7u1w/X6667jtMYden5fcE1yebvIqeIV0B0ZCr5XpZtH5iBC4QUFRVfdfXVr//737pf3Z2XBpsoOenuj3pE/kMPPcS/ZKrC4LJ5dF2YiKJLH5VpogJ59L6mTJ16+RVXsHSHh0r5G8zfWMSA6jHkq8EC9QBQYXtlp2Y7SSzfD7PALbZsN3PmzIkTn+FEd340bPVuGJefvDFI9NOhoBHCUYAcIMgQeuGFF0444YTzzz9/8uS3aDJlynt/+MMfOHxw0qRJiPr000+vuuoqhiWJhm6WYc+wkUbv/OL5wVFQwAKXTbcJEVHUinLPPffw76o8RKr4oL9GMnI0bBgwnh8hXEpVoIEKDxBUUQatVKt+NUjoEcmaREtDmJFpdrATJO1hqrQSHd3ohfOor7nmGmo1kj2DBpicUG4QTskn59NQol+qMBRKeq3g537dl2Kuq4yp29ZdUFZBTZDAXXDErPrlFijIpLo737vMsmz76OtGB4SQc4kC3C8CwVsvitPhKHO/0En6UijoW6MjTn589913rc7doH4P/r4g+lvjLrxijp1+7cdDjjT/jUhtVPJ9wSB+ciTA4C9DYTVYIA8nBeiKH1Gtk+Ll8ctwXyr/VqX5KfLNDyzvN+KWG28dfsPIETcNOnCgfqzutx4H4MAI/SZoxQhhTD744INDhw7l2PrNNtvkxBOH7bHHHo899hi/kx/nzz/jzDMPOeSQ9ddfb/vtfwkDp5bysJKuNSb5PSF84sSJBx986C67dOWo1FdeeY3fF/jwzX/mXnTxpbvtvuehgwf/7Z7/BTRT6ezhRxz12uuv33f//T179Xl3yntvv/NOz169Fi5caMibiT3xxJPHHnssdwM+9urV+9lnnzvssMO3377zOeec8+mns/ARUBjN3c2aC6P7gkJbvMJf/eroHXfcediwk954YxLKMzJBn+HDhw84cNA+++7PodlffvU1uhGn69uvnMO0Txh24i5ddy0fMPCtt9+GfsONN/759tu//uabHj16gdHILC8fcO+9/4uPyfMNjl9E2s03D+/ff8ABBxxw4YUXf/HFF9iBjtz9UqwdZtGvBkN9/PHHzNbHj39m8GFHdO6y0ymnnv7pzNm0YgRneADCKrtEoiaV+X9334MyO+3c9Ygjf/Xe+x8QheQb7dd/wEMP/fPUU0/l1vgiJr/1tlwSjHnjTcMHHXTQAT16Xn7Fnyor7UsRHNRnnwz/VBx99DE779z16N8MmTTZ7tc+7gfAfZ199tncqdTmxjnadsKEZ/lhcLTleeddsPvue+y9976XXHIZRpgz5/N99zsgFk9efMllffr2Rxn0fOzxJ3599DF81+edf+Enn85CMneE5nf9v78dM2Rop06dcNKxg74yOr3jjjv79OnXZcedTzzpZM45lyZ8j4888hg25+Tdiy++VP9y6F74l0m/WG/YUGhsCxQQtupXlW+UBVwgCf/288tgXPPg0P9bxcs9OiBaFH49YIR+DRJHc8Bou+2207+3sPE740RYYGHvvbuffvpp8kQYnzgjsOl4C9pKyOeff37iiSfutddenHq/zTbbAH+cSk+YjJHG9OfCCy/s2bMnh10z8UTOKaecwqH2/C7PO++8Dh06cLwrx9PLSwJl+HETXEMyP1Pov//972nLEdmc9kwX8+cv0G9X/YKY3AtlCuPGjePAatS+8sorkfab3/xmzpzPkEO/eJGDBw8+44wz8A4475rjXaGDI5dccsmuu+6KLwmI33zzzQySAQMMjziYGmeTKuwAG84XN4Wc5s2bSRrnaZ922mlvvvkmNwhYeDsjdukkWK+srMRK3A7yr7jiCu7x5JNPxkri1+08++yz1157Lf8w/PGPf6TVr371K/1jROTroosuQh+0Qg6HY9MjyHLDDTfcf//9KDNs2DACZNgZoqChIfsQOuDM7ebNmx911FGzZs3hC6UjdMDb4lzxefPmUU6lcJ9j2Iq+8IYw/uTJk1EM5UePHs253K1bt+aQcL4guuZLRBng+Nxzz+Vgc1wwLMatLViwCFGcXo6fznHcNOdoXih0h4b8izhixAjU5l+Uuf+fvTMB8LHq/vjMWAtZS4tlxlhSlhAtCIPBWLK9FSn1ki2JypJCKhUlKW9FIUnaZAkxlhLKTpYwxdi3CtmXGfP/3Pv9zfUYo7/0E/Lcpus85557zrnnufc8597n/p77229PPvkk/pGi3bt30yKq16tXj0koMC3SHeeeUt1P/6gF6EZBSkRVJrAiscslkcApKenR9h0nfz0VgCctuOPHj5oSc7ZVgGDS5GmPtu909Jgpprc5DoaJ3Syza9dvBQoUnDPne4tJYgAPHTqcoAD6o8cSDGf790rfVyMKFLTd3WzyNkrAKzGRXhsZWWjjpi3EC0hZuGjZH/sOfDd7LsTbd+xCSeKCl17uy7NXfHja9+j5HDD42XO+zx9e4MChg4lJJ6D8aNTo2+8oT9GyH1flDy/47uChwOA3b9lWILLQlKnTzKVRxyR0p7sDoMu99zZp1669kBxn3a1b91mzZh84cCgiIvLzz8egGHS/rIuHSey0GcD58kc8/0IfAHSY8NUk8Dt2/srl2+8MvrN8RfEhp10vvviSNVLSvn0HuBw9+lPwpHXr4osWvXn69JlIv7XsbSM/+lhkMqloBJOvXLkyPLzAe+8NpS1IJB5xzSlb7vYRH36E6A0bN69Y+RMAf8ShkQULr1n7MzBmfP75F2XvCRMmFrnxpl9/233g4GHwxDhq2tTY6QULFt69e6/kOun2dp+0D9JhuPeP/d2efubbWbOBS5cpi81hcu99Tfu92h/dQEIWHhEp5ty1Tk88BfLY8cRNm7eujfsFGPqChYpgN+ghbtCwMZEXeC53/fo7mqMPMG2UkZPtkMRUFyv16fNy5cpRzEOhoassWfojTL4YM7ZQ4RvFn9t6zz336Ya6tngN622mD58nC5z3BwW9ATfMc4n4SM8lAi4ubezNk5nnJ+sXZgpDvEMj7fzAOG49yogvgAl8LMasXwDzeORZx3MYJACx0uDBg99+++38+fOCUYIVD8/ixYvnzJnz7rvvZjm/SpWqlStXhgMxAswHDRpEb0Oljz/+GAeHnsA8V4HhoDiF0I/RRZzIfxDD0Bax8JGWCA5CAoJrr702PDw8Li6uWvUoJlS0gLr82eYYYN68eTzAqUiUd8UVGYi5kL5kyRICw9tuuw0ympA/f/4Ak2pRMC9RogR8kMYEEGJijWuuyaV24SNUBTzRJfyhJPxEz0qVKkk6rK677rrVq1dXrVpFtU7PqS4kAOmOO+4AwV9EBLrk5+VjdHQ1bIhBUC9fvjyLFi0ZOPCtPXv2EPxS8eDBg+CpWLJkSfHhncnhw4d5pcsleN5gLlu2DK3AYLr169eXLl3KqhdYMoOztJV9pA7zfWIoGqgYB1bAhJz2bkqOyakLvk6dOoSihIfcXCLfiIgIiuhO3EF7s8zOQbRFDZYOuJWqT8xVvXpVCOgbKID50Bbp6k683n7//fd5yVMrJqZChQoKbGFIQwoVihR/bgq32zbfGB+JqCfmfv7PWOC8TxLTpUvPDea20tFoUmCLg7yTWZZOS6eEgGetaXCoWQ1VMsRJIbgtnNS2bdvUMXgGbtq82c4ZjcMiff/9PKZgTAG0qZVR7ZwLve3aa69hjsaMicFDHhMTs88m+hnu7Prrr8+aNWvjxo2ZHoLRyKFDSzSzW8CA2klmbohitsj0UaYzoqfX4oBYZ8FnJRKWsaBinSk56fjxwM5vWKVPb0YOTPBHiGOmkzFjRjBcwgRBmIJLKQBA0pSZRtkr3gOa4WrbaMhUHTVw5ehgyuwcDYZU1DKfrZh6hg5KVOS0VzTkDztnyHAFAx7Yush0cBs27ENCjIULF2fKlIU4zo50czfRHQ4QkFBe2jILo3ru3NflyJHr6quvvummm1hVzJYtG7pBqdbBXMnZJ3Cd/I+dsbGyaZ55dBLuqXSDCdqCR7e2bdt89NFHdIYhQ4Zw93l1o06ClfgDRg3C83z5wvPmzZ8zJ7rkrl27LsuRlowDbs0TkbshmRADlC17Kx2GfjJ9+nSWMp944gmQtItOqLuAApkzZ5ZnBCbRInUMc+Gnf8QC5z3aYmc8d5f7a/qK3SZvIDq+GYPGF9hOSVvpPfy+56RfoJrto6HFihWLjY1t1qyp7YgJM2bMqF+/Pp2YMcAvh+hbbdq0eeih5hBDwMiFF2OJnP7NahH8W7T4L38rV65m/PBsZyAxDFi/wPXAhKVcPAg+BY+DSPtoZagwejPAJz4+vtjNxWCO65RboS40S5cujYgwwd2BAwdZ3sLx4bNYxUO8He1GDWqxcseqDcsxdevWBsPYIAxhnYtFNBRbsWJFpcqV0eGPP/YhiIUqFEcHOSDoEcSlHDGXijppI2QgNaqBWaPBSbFekzNnRUpZmSL+YjxT5UyJpsGZxKgDRsPIggWw6v79h4hGMSlscYtIBPnZZ5+xnvXCC71RdcmS5azsoDytozpDGgISxOiD9yxY8HqQdevWveOOsjAh9NmzezduS5rQNBpFzqXXPjG1a3NJYi0MzW++uShkSIEDtwmVEA38++97EAqZmlmqVKnbby/HQ4vlrREjRjRt2gQamoPaUKVLlxaTEjq1a9eaS4r27Nmn+B0FRAMv9SV8IzeOgJFg88knn3jiySeGDRvO6iGLd7QLayMXDvDBYiTR23th9Ta6++kfskDQoi37LApw4zayAk/8RPh8POlYUqh9iUgeljYxJCwhNE1CWOgxAn/TRsYMS1EGSkhk5piWLmL7h0UZdEiHDu3nzp1N6L5165YXX+idcPzofx9uzrb4nTt23XfvvWxerVKl0sKFi3hDN3/BQqodOXqcN0S8JwIeO25c6TJl+Gnk/v0HVq9eBfEN119/a5ky11x9dcfHH1/NQF+1+oFmzVo98ggLJ2nCQiMLFJj3ww9Llyw6dvR4oYIFkPLO24PXrIljPxejglFEF7cT3BO9evX47rs5bMJgwGTKlInZBD6LhvAqEN9FjnT92ZeVwz8e/Slv6F4fMKBL1660OXuObOUrVOj13HOzZ89etWo1S9rZs2fnJSntZYQw8PTwZ3hYaxgTMQXevfu3SZO+JpzB1ThfxkDKmjVLlSpVevXqxXsGVGIhOVeuXKgENwa/YWiVkeroRtDKn5D2dWHIi336fPvtd6xzdezYIXPmK2+7rSw1EhJ4A2g2rxC0LlgwD9/x448revfu5blr5s0vBCRUNY4hKSlH9qx3VSzf+aknFi9aEr8+vlfPnsy2mFTaQtknjeyj/N777hs2fDjvi/ntav/+r+MmaD4M5drweuanYLGxX389dd269Szby5UzqWdu2L59e94e8kQhmmYHH8RULFiwwOTJE+PifsEyDRrcPXDggPHj2R+z4dNPPytbtsyiRQus6+F5afTGDhs2bqzfoNG8+QuxT4+ePatERa1YuWrHjp1bt27lzhKVo4kVatpn74gJMAHwWVIGPn76Ry1AFwlW4kbaJ3dgNRq2jz32+OTYGUcSklhs5w9PpT9ghu7xhCQW7Ds83glYf2YsmRFrpigARBDkPBXfe+89Xgbx5KxYsSLvjFQ6ZMj7rPWytsoCMEut/LEWy5ouS8K87e7Zi/2BSYePHOv13PMsclNU8pbSLDAbAUlJeIpGjf5TuPCNcGjW7MHNm7eCxPOypbNy5Sjwy5YtB8PbfV6EI6JS5ajOXbqVr3AXGq76aQ2Y94cOL1a8JELZFjBn7g+uCa4hACwVk/P/GwPfuu32O6mFDp9+9gUY8PsPHGrdph1rvejGyrHWvFlRpjnjxn8FATDr/ZQikSq448b/uRfdeEOPeQoVKvLVV5PQmT8u8WXt23fInz8CgsaN78F5oT94XiOwJC9N4On9gyd/yKUV77w7hBcdALVi6nz/w3xpSN1RH39CFWiqRFVjLbxwkaK0BTIW5lEP5fEmEoT7QPRPqMpi9h/7USYigqdAwWrVouey78Qm9IEbNiSXCOWvDxiILOyDDp98+rlouIn4euDfd++l4dgBgr79XgMYO24C+AULF1euUhUdsBjvUnjxApI/arFRA2Jg+L/62uvcRHTmfn0wYiQYFICJlu2hYd0dYtl867YdzR5oDjEtZWPKD/MWQMCSfJlby9FeYPoeLx8ffPBBHJYaRXcV4Of/mAWCtpqIxorecbqKugHY3Z6UJi2PQWAI0iZvbrI0ZoV77drVTGcGDhxoHl/sSmWhIZkP3ULPW4g1O9u+fTurUYQ8FJkIwi66m+eyYW6idwfQo2xQbzSxyKS9e/fmyJEdGCoRQ8/0EJ2vuCIjMFV4eIrDkSNHM2bMYJ/JJmJiHTpQ14pYsmTZPffcQ5SUO3dudkVcddVVMOHJzJqImdRYkcyS8LbkMGze/AH7lMaz7IcYjMITABJNo98zcyGnOhgGhlpn4yzTPgCaDB6GbGsgd6pKSRiqUdpCwcK/5WME2aW2kEWLFhNJqVfJgLpfrNznyZOHLVc0hwCNmIiFG6RLQx4frDEhQtzYwsZMkGmvY47RmDNBLQ25X1IeG+j2sZCYLZtpMp6LtXCQwApeAKiFdOJEAh9kYZ/s2bOq8yhnZYq2qmm4QjTPlOkKLm1dk6MAWjEzVZMNyia40UDq6raSc6dy5MjmmKtR5CLQCxm1Gv5Hj/LEPMb7AYmGG1xRUpfAlCJU/ZBWSKif/2MWCNraljouQ5IRpVHEPWYVacz4CfHx8Qqg0qcx4jR4AOjukZER7AYSvfFZnqSho7qcLEYAAEAASURBVI6u8Z8vXz7VlTuDJzTqiPQcxPE0RLo6ohVkx61ZVg/NmdP4LHU7181wFhJNEUNPwvEPjAF6Kt3UlIaEUFdS4AyZlJEODDNqUcreom+++YbenCF9ehSTU8AmwA8++AAS0SFr1qtQAJ4kABJ4hiIMGe0AapFtlPEFlsBoBTfEkQDwG6qrIa3Goi3+BUo0Vym5mkmOeqy+Mc+CPyrBWepBz/yLpRwxZ5DLxYAnwVkDVW1HHTyaisCIOY2iZfJQMBEglcLslBmGXGI0Hk5ff/21qiNdCqAJ70x5rwceWRhTZkd5Y/kkFqcCPguJTIQhAyCpFAAF0IocWILUXrhxKQLpg8/iUgka6Y8I6pLLF7squCTsDLHjporJHSwRAppAk4VXcwT7+T9ggeBHW+q7Ut30JNstdPvpbep26jTQmCUwO8B045XDgQ6th5gw3gCEWgw/9RjROIkQUyokAJckjVKHBwMBDMlJ4MXcC6iuqwKgJEEEXyyrs6GRvuvGKgSnP4GdFABpIonSwZtT3RE7PEjoU1y6xkolcqyBy9MlxKKHG7qRg8cCKuXSwcKQs6mSH7SzR4SVb9ccUXpzsYXeSjBWPR1W68TZq6e3LjydFLlRLqmSQjeCUBrlvUFOLpTCk6vtYODgVAJ2FR0ewKnhYGEcZ/Ak8RcHLh0NsEMauuQib0uF9/PzbYGguS0UpaspEvF2QRwJnSp54NAJTIvktsDrgzNgXM9TL3GXhtomL89kXKBLpSjSZQok/Ztu7Xq263/eTglb8MJIhIO93FKFHR84eAngQ5E4k1MkDGMVPAmVUvR70UhVVQH2+iaQqqJc4mB1JuWtnEAprLyUgmGo5C7hCTeSYw4BpeROMWCRgfciHRMB6hXSXwqnaEsKPl5reDlARgJDkjgANBReeopAGEfmilx127JAGAtSTNQWYMfWaeIFEA0lt09sXZGE+vn5tgB3x9wy/fP3hXk7h+5lijvqHJa82GmlgS7oOo1UEtuArsldikuS63xQ6hJAbN2lMOR6wtPnvP1SzMkdK2FOH1di6CgdILwT5/BIdDCA+roGG0UpkqsOXsRewEsMJZdo65BgqCInKLzXAsBqsmOrirp0zQSAjCS800ceR0LJIaC6Lr06iKfDCxClqohAGFfRdQCvbq6uyLz6eGHqQgBzNKftXp7CI8tLr0uRkcssIIVxCiBdpfCklEQRGFIKmEunv4pStBSkn86fBYLmtnTL1QNczv2mJ3hDLToAQ8+NO917129cO8XNXQrwkqUg8HY4Nxo1a0tRF0r4uHHOJYk+Rw6lOqiT65UoJGSORrDLXXU16nRKCECS1MXFXLmzA8wdf6cGVYCltpCqJbyj9w4kb10IvEXOPlR3dcVfdpCGEgHeS+YkehWABj5eMifdawoRnK7J6RXBkLxW4lKqOq2cwk6WF/BKSUEJB1idzs1bXbCEenPwXJKrui4drFp+/g9YIGhu6x/Q1RfhW8C3gG8BLBBYrPVt4VvAt4BvgUvFAr7bulTulK+nbwHfAgEL+G7L7wq+BXwLXGIW8N3WJXbDfHV9C/gW8N2W3wd8C/gWuMQscEHcFlsuza5LP/kW8C3gW+AcLHBB3NY56OlX8S3gW8C3QMAC5+C2Uo+V2ODnjGo/vBT42tTRE0cSQ/gFPaWqqEI2GfMlTz4qb3K28GkXn93K59icArBJkmvlkqUqfEJLnC1gqrCf8JSaF/tF6vYMltayhtdif87Zex+TLWxu0J/XOqUUWvd3SsG5tfTsa4ny9PwUJVJcpLBMcj/8K+1NwTHl5V/Vx4wI9WqU0e37a/ZPqcC/8PoctptyG0ip+DuMqx3D3HO+QnMi0fysny/9ipq98Rx/F/iQivluXeDnEdwYzqO2eSo8jajTku5i8u5kwz9ZtOGQDJ9W7SJFnNGewdXXmcUBf86f8ex+4/LnlClLvUP+5M+QoDq3lp59LVGmVCfVvuolkkG8ZvHCXspzgk/X6s/7uaFPVuDPKc9JnX9FpaDZBb8jP6LHF1+h0adU8Fb80XX4WIh5ZvNvmDnggG+fhKVJR84fN8n8rEQfuzyDWeEPGYUEXAiSLC5hZHjxgecQ85O65Pt9Bi4XI5pbELS7cHr7XPQkiylclSVPJwZDkaro908yqWqlSp8Kkrvt/lIp/quos7ePKE/P/0yiOgw5LYVO7RX8Z9X+Qtlf1gfe9GerjrkdQVXmL+h9MZMGLdrCuO5HZPwKUR9Wxz2F2U/f8uFlfsXMDdRpN1iEryG53yqa+8T/fNEX3+c+CnEWZlOfc4RcGlbuF4+u4LIHdHdSmOtMVhEZrsr7PZxgWFVxB73g4k1naaLz2YBLwErns/lnxTtobkvSGB6mf5sf1hoEH3HnlAq+Ec6JTWnSpOW3zZp3QFO9ZnTtmBrQqBcbh8URGMaTnbFb8/whFFAUQPfS735hhVCSG2PAcqBS6TLPMZQMgqE071N+JrNAT5G5iTb0IP/XG9N9cEme+sL2H+xPwv66BYK9j5Az3bjLCh+0r5vKarI1MN2eUIsPWhYuXFRHgRkvY/xS2Pjx482hBlOncchWrVrVeLgwjdTYYIk+7AzRFqMJn4azsrf1FJ9FXZJusBVthpyfnAVw9AxFbg1WAqnclaYAdAc1dEXpDJuC8l9zqa/L0lg9+f7cPue71dhftwBBeCs95t0j+XxLv1T4B9NtuceUPT/Frsebk0Hz1q4dTaDEkFE+ZVpsnvz58kVGTIk1pyfExFTXrM5UT/7OUarm09d1bW6GH/TcVNfJ3M0G+NePtFTtkyoSa7j74izzJ09vEWNVAJnUyyFVEZc0Us10vYjICx+hhl/AdqkD40gZGhyRnSFD4GzaC6jSRSX6jDOyv6olhta9t8DJ2rxM5ML5LNa2eLlLz6gdU61atWg+Bzx58jRRc5OYz5yseSrEkc6cP8wH1O3HvxES+JI3URhn5/32226CO1fjgnc7p8kFB+baZOxlZ4uyzJ88veWwIAbgyEIOGWNS6Ub1BW9O0BVYuHDhd999hx/XiwgiL0xE84Mu6OwZIl23iVFDr+ZU7dmz55599cuB8hzcFlVSqeU8hQAFUFgw8QT7UAJxlgzKcadxcWsmfDWVb7HzDpCJJJ3E/nG3zE4IkXkAcwIQZ7VzWAYnCY4bN0H3FQKOBbyzfIU77ryzbNmynOLJMWKqCwEd0co13MSSnkgYGIDNeRmiDeQ4RKAZM77h1HhXBYDHr7001N7OTNDnLqWq+r1yL0aw9FEdVZSfVanTyko0mjgv7KTs3Pnrxx9/sm/fAaeJilQXfcB7+VDK3/jxX3322RfcFBLexyktuVSRwuIJPe11Tqpv375YWJeO3gG2ijlczsl1AHyEB1ByUgRIDcHKT7GPeT0T+EumD/CBodoo/rSaP2GsdK92poq3KMDC8w/UEyd9/dGo0XRpTcdUiK3EKDk3aL3odvcFjFMGWP0nRamzg/e+qKLaC2wvjZnAYBYOQzNLw+qrnNCRNuyLL77geF3v/bWVTlZ0l5cPkIoDCm7jzcIBJ4kly2EWmC9/3vj4+Jkzp0+YMIFOybte4+OS16Pc0AJQp+GQ9Hfeeadfv37ffvstpyVznOqiRYtQcteuXU2bNm3cuDFn0vDA5JQge3odt948rAgoYC5uSFcPA9ATDIlSif5EEUmHxIwcOZIQg0tKNR7QXyPZ8LWU4AF0WgyUXEpV+j0F6v1gKAKmL6oUfSjVIEQ6cs2mNjN3DrgSeMrXowl1FaUCsKmDnESwyeGmnAkGLA7kVrppgk6gkdquVAxt7ZSZNMTCKOm0gp722psSmGhjSTVbrQAWoCowRU9O65Jc1ACgUfBR65xUmcXZRzwlWiJ0v5y/UEVap4q6FGfJgr9aTcOFgQbdgPEdVFQVNJFDoUBCyWk1SZcc/MNJ1LI2GBJFYkUbDTvbGeAJiEQoxZwc5vxRBJ67BiaZjxFOEUKkp2VjMKRk+5j+KYlqNRYAoDkQ8EcV0UMjPHVBSrrlE5jFG6aXWUp2J0FoNjfb3O8USfeGIg5s5j5y5+vG1HzzjdcGDnh10Jv969Wpq15i72UoDg4fwU2CCXeLTkOf4Lzihx56iCOIr7su9yOPtLjrrrsmTJhIX+S95Ouvv84JshzXnCfvDdWjozmVj1FNderCgR4PWw6Uvrt+w1KlyzRs2JDT+jikkyfYwUNHBr45iKNMo6pWfbHPS1yi3733NZk9Z86ojz+uWi166bLlK1aurFqtGsfwGc97woQtzZs3p9OsX7++WrXqM2Z807jxf26+uXinTp048ZhQRt1Lomm12oUy1CVCbNLk/pIlS7Vs2WrBgkVoR/+jCQMGDKhdpx7HiD7dvfu27TtQmkd6jZoxoz/5rPlD/+UsWEp/XL4c/FcTJz/WoQNHKt57771duz4Nhzp16gwdOvyBBx6IjCx06NBhuL3++oBatWpXqVKle/dnObfR2jAQs6S4KbrUsOT4QmbrsbHTGzW+h9NV27Zrz+nZxnxonmReluAVMNr7Q4dzkC3Hpt5zb5OVq1YTnGCxmrVqcwJuu3btaBqHLS5eshQk+1wIGV7rP6De3XdXiar6XO8XONsRfhjE3Ro5ERSQVxo+fHj16Jowb9K0GYetQkwDe/Xqzf196qkuMJ8/fwGHWvbs2bNixUoVKtzFyUlY8vPPv9AYXrx46WOPPXbLLaXvuee+L774Ek+hwT9//sKOHTsRiderV59ANfnZGPrBBx+gLfH7yy+/zAGaxlOfCKGNqKeEAk43utnQYR/UrlMH/k2aNF269EeYQ/D888+//HLfAQPeqFixYkxMbc7cFX7MmLEPPPDg2LHjsWr58uV79HzuwMFD9AHSL7+s/+9/W3JQcY0atYYPH5H8wjDwbXvsw2GOXbp0u+2226Kionr06HXgwCFqpeEBfOLESy/35YTg6Oiao0aNAql7p85mWF9mKYhuK3XL0Q84ZZ7nBE8mbG3i31DzmFLixz06ok4YejN9yHszqL5q1aqiRYvqKUc3LVKkyOrVq3m4cWxi7dq1WYtgOsg2CyKymJgYTs2CM7XEZMuWLY888gi956233uJQa9wfbogh8cYbbwwbNoxTWgnfCK+effZZFGjbti0n0d55551du3aNjIzEA27evFlREl6GLkW8A3MCqE2bNhH0Va1a9YUXXuAIQkTs27cfoZRKLqNRIxOAY1+ffvpp1H7xxRfh1qxZs02bNkP50ksvoXOjRo0Ycj/++GOrVq10OCt+pEePHnfccUe3bt04I5YzkOn0jDEqwo3j41Gb6pDBsFixYrTlyiuvEDeOQXv00UdZr8GV4CycnaE/PcGNoXLkyBGsRHPwd71796aNrVu35ixV0as5M2bMQA0m6YxVajVp0oQbgRlZ+XrmmWduvfVWVIVP//79kYi2r776KqMLZVq2bIl5u3fvDhKD2A4QuPemY9holGAZ5TnxDOYIbdGiBc8qADwvp5Fzv7g7efPm5aZwIDmlPCcGDRo0c+bM3bt34yni4n5BCjelV69eeKguXbrYZQQTnGIEjoyFLXgC1a+/ngLbL74Yg3plypSBnns3ZswYG00rPDRyUZJcxgFAEN6NrgUHLv/73//yhKDtnIyJepi6c+fOmA4PO3r0pxDQT+bNm8dN4SFH72JKwd2k/2ABZgOwfffdd+vXr9+nT5/58+fDhwRSbogpBcjXXnuNLjFx4sTBgweLgIZv27aNXhQeHk7F5cuXU4WK6nKGxeWW6H1BStzLQNBL0KxD0h9t33Hy11O5ZHiAO378qCnhZz8sSRBZJSVNmjzt0fadjh4zxfQ8xwGVbJWkXbt+40D2OXO+NxQ2vf/+MGIcQDtyODn98wKR5pj1h//bkgcyeHqhKCEgiCAY2bhp2/GEJKQsXLSMwOqPfQc4gV2Hpx89lhA7bQbVd/36OxI4SP3ZHr2MMolJs+fMyx9e8MChgyyeoC0rIBz4TtGyH1eBf3fwUGDwnHdP9SlTp5lL0yaT0JaxB4AO997bpF279kIeOnSkW7fus2bN5kEaERH5+edjdET7L+viYYIm1MmXP+L5F/rAGZgD351ui5cs45B3zqw3ApKSwsML9OnzMgCCaDjNZNjYkqR16+KLFr15+vSZSH+qc9dH23cQnlxWdQCXnFYNq/feG4pEWr1u/QbXnLLlbh/x4UeosWHj5hUrfwLg78flK1FjzdqfgTnF/vnnX9SNIAQucuNNv/62+8DBw+C/HDteTZsaO71gwcK7d++VDoxPJ12Ybdt2rFkTp/YuX7Eqb77wtXHrYd6iZZuateqiEvD2Hbs43R6eTsnwiMjBQ96niLCuUuUohAJT+lTnp++u3xj41ddeL1/hLu41MH+vDxj4wYiRqFS/QaPHOz4htn/s31fm1nL0HEl3umEWEurRl/DpRJdighGQq7ZTq0TJUnv/2K+iLl2fJvaEP6EZNFiJrkXR2HETIwoUxix79u7DDl9+OU7mWrnypx07dgG7roI43lI93f1ZMcTmssOTT3UrW+5OcUMcd2f4Bx+iP0lKGugyS8HcAJGqx2fhAzyPBaZNxBoWNnN1HjM8SfBg7J4nYgLPkxPjgxYfPUk4OJpLgg4e4xSSE7RnzWrOgrbEoYQ8BDIrVy4fMWIEYcjEiRMkBWIeccWLF8+ZMydPcuaYPBIrV66cPn3Y0qVrYML2scWLF8Nn586d9Fee7Tlz5jCKGR3MsxE+PNNwpsSJ/EcXIV6gCBqKiOC04//aa6/lGRgXF1etehQTKimJnrY5RmGevW+++SYVeRnKqdGESHBYsmQJbySYDkCGLI6GDjCpFgVzzmqmIgn9IWYVL1euHGiCnpqxoggAoRZ14bBmzRpKK1WqJOmwuu6664hJq1atYriklmArNACJ4A4EfxER6JIfhtHR1TAFFkBEvnx5eFMxcOBbHG1L8EtFQlHwVCxZsqT4EA+ySLRjxw4uwTOP4xUYWoHBdOvXry9dupS9KYHZtGqRX3311biGt94aRPS0YsUK7jiTfZhjbWIiCKi1YcMGbhmBsOVglLzhhhvwKZChKi9qrrgio5Ubwi3+/PPP2TSAnkzfMmXKJA4dO3awPuIEgS1BNwbkuZAlcxYajrhkY0BrlKfhJACaj6Bt25fwUojpJC4ezKFDZu6G/bl9V12VGZXo28girkRJanEHb7zxRiYEqFeuXDkaQve4/XbIbyMsJbpkoYMO6Q7KpgoMsRLrGHjhn376idLo6OhChSJgjsRSpUrBDRhx9HZr/BPE80bdyzKd95anS5eemyfrY2EeEMbO8k7WNajz0YcMPvSU9QVq0YmzZMlChGxKbQ9mgsZgJsRguNIRr746e8mSxZs1u5/XXnQORhcdDkp6AqXXXnsNczQmCwweckL9/fsP4gTpWLgbPFq2bNmYgdJdMmXKgmpp0rAgbarjYBlyAHQayeVS3Uv8mY2qr+N2cUB0ZXwWP2ni4Qm9Wglw/LjZMUhFMOnTm903wPQ3mDCrypjRDDYuYQIZprB1jSnEAc70ZsE0OW3a9HguM+TMqq1xo9KBilBaQaYIAgYVQwg+f5LQQYmKGTJksDzNncqQ4QpkcYkpMAjchg37kGWjhQsXYyXiOI1oy9n4IAhI6IBQLrEw1XPnvi5Hjly4JF6VYF7sjKqilErQ2BsVwkoTr1Z4ZYlJS5S4xTYzLZTSTVUoorHM+LhEMSru2fNHunQZuMSboLx4gkcHmoPmzLipouqItmYxyxRQqrGoA3369BkpIgFzZ8SHXDW5WSxC3XcfbV9I24sVK0E3gL9VPgmfSF2Ys4KBhhRhBERwL1Qd6eAxJfpA9u7gwS+/8gp9j/km7uzHH1dInJREJssUH374UfHiJT/44MPq1Wt8+ukY+OtZhXp0LcvHtMKsmTBkYHpZppP36Tw1n53x2BbrYnd8loYsFyBZ8uJOcxe5bfYHizaqMZQmoQ80DHliCh5QXII7evTYzJkzWemg0siRo1g7EBmUrEZxOwmdLKVhQF36LvxbtHho2LD3eBiy3vHdd9+xAwOd2DDx2GPtO3Z8nHUE1k0IMXBQ6nbqxxoM8fHxEoHrpBSYHomgpUuXqrcdOHCQJRJ8n36GKWeqIrRi5Q5xPOHBcEl3J8r76ac1aItiBBeS9ccf+xDE6htqoxsDA3r6KIJ0CR4fZweAGXiwAm9LzYBEBE6KpzRVqMjK1Lp161AJyjMlDAQH2gJPYGkI8f79h1ixYo1PEnHx8OcFPOtZH374QefOnViXgR7lpQNuAgL+UI+7yYilLsi6det26NCuQwdeJHRg9YdblkIT7iAcUHjcuHEs8H300YedOz9Vr149NVnEyb4jpECBAmB4p4xWNHDSpCkopttBJELUDCtruhBMyq288sr0dBvw8AdPmj179nffzc6YMT2lhLq6HURJrBNhB4lL/tfYVtXwQrSdt9WjRo184olO+F8ajoYoDwF8RIYI+gMRLtEQBDyQCN7hiVnQBwChLF1g6gYN7n7rrYEE4BDTIako9aBBpb17991xR7nnnus5d+4cVhJZ2wKphwEEdC37Z56C1GLIBB72lF1mKWhui/6B5WU9egEr8DwMwkKTjicdS6J38rgjD0ubGBKWEJomISz0GAtQhpoxQ88yUEIiM8e0dH3XaQw2JKRDh/Zz585m+XPHjm19+vBa6lCLFg+DL1Wq5LffzuzX77XNm7ewJM/CLS+Qbrv99iNHjz/Y/OH33h8K17HjxpUuU2bq1Nj9+w+sXr2Kna7h+fPnzJGt/J13Pter14L5C+LXx/d49lku9/2xB7ULRORfuGDeksWLjx09XrhQJPq/8/ZgVl54HckklB5JR6TPoHavXj2++27O8uUrWczmqcuyNG8eaAjvpMIIA4kI8LP2r2GjRsOGD/949Ke8oXt9wIAuXbvS5uzoUKFCr+eeYzix3Yy5Q/bs2Zns0C7GKoMBe9JHsQYujDVBRhQvUhHNe1U2cHHJGLCUprtny5a1SpUqrDETs6DSk08+mStXLlSCG2MMDoSA+kP7Y6woG2sbq/NnXxeGvNinz7fffsckiMlU5sxX3nZbWQoTEojXzIt/gtYFC+bhzggQevfu5blr5s0vBCT0MUMwKSlH9qx3VSzfrWvnRQsXr1+3HjszgSJQgoZypKODpKMStromd+7FS5aw1rNmzdru3btZj2BcM2y5XwmJJublnQOvC4YNG9awYaNmzR5ilZ2FAlwkRawHMU985ZV+P/8SN37C+DfffKNhw/roUrt2LZ4ELGD//PMvEydOZoEcV4ICuEj48L6Phwdr7T//vNbeUDgZazizCEiTNs1111+PS+IerV7909NPd+XxwPMMPvRSnoLYnHcCEydO4p0PnLlr1qmlxVPzzhG/SRWMiQE3bFhPhDVgwMCdu36L37Dh199+K3LjjUicMjWWN90sfiExukaNVo+03LJ545bNG3bt3Fr0xoKMoqQTx3jeAdA/zYMfqyQeN2+4cGSe8NA04PJJjJBgJTqufXIHVqNhy+6EybEzjiQksdjOH55Kf8AMXZbJWbDv8HgnYP2ZvmLX5sWILsIlz1V8Fg9VHrkMgEmTJhkim5gAsnuARUoWg6tVr8GiNWurh48cYy25Z6/e8ATu9dzzLHIXLFSE/QQsMKsij7XWrduyjM1f5cpRc+f+IDxj/q67KhcpUnTJkmW05dNPP2fZFf4s+nbu0o0lXjRc9dMaMO8PHV6seEkWp9kWMGfuD64JriEADFFy/n9j4Fu8vaYWOnz62RdaAN5/4FDrNu14OYBuDRo21po3a7qsZ+t1AbK2bN3OUjQSxZa36YUL3/jwwy1YMURJRqPUZrQwNWvfvkP+/BEQNG58Dw2hiCZ07db9sQ4dJREm8BQrKQYeubTinXeHsPsBgE0h3/8wX/S8ghj18SdQQlMlqhorzShDWyBjyRlVUf7rr6dKEO8KEI0vQBnCvbZtH+VdSnh4ASY7+HfpiT6SSy5NYCLm8OTvrUFvw3PhoiUo0Kp1W9oL5dHjx1Rr3vyFSP/f20M2b9lRrXqttwa9C54/XlxEVa1eoGBk8ZIlWImX8vAfP2Ei+yqwJ5Z/sc/LPM8Mt2MJvHUBiaCWj7TmlQWL66ihWt4cYqlXuUpVpx43a9HipVKPrtum7aOw4q/7Mz3Ef9jwEfRJlqioglw2svDSRmwpogPAATz7QvQagfV1NPn5l/WIw/I8fgi6Sffffz/rIThBpgJErDIgOQu1//vf/3RJqcNfVkAgGP77bhqr8fwRH551egKzkJmUJi2zBvAQpE3e3MQljolgYe3a1UxnBg4caB6t7Erl6ZHMR2GCGGruxivnPHnyKBY7Kcssc+wloMiaNYuVwmOQxe+EdOnMLAZNLDKJFZAcObIDmzDQLu0D2wH2h1sZFZ4qiONXYFySiAhYh1ZdtQ+Pxto/UVLu3Ll5233VVVehDE9yfCjhGK6CWgT2eFty4ObNH4AVI5aIA2IwMg4ACVmEVCzhkVMdjCwjeyr2xFAgkQKgjkpIwvyFZRzowRCXSXltoWDh3/IxgmgERQsWLNSyPYaiCOZiyFQFk7KJieYQoLHWy/ZLpEhDprTMVtVqmsVeBGaCTHsdc0RjY6jRTfdLykMMB+4C0yXLkDX1TTNmzDB87QZ03T4u0eShhx6EIWtVGIeGOOYwMXomJaRLa+ahdBLmwsRQNGft2l/Y+zJkyJCoqEpcwhVNDh85iHphIcyvDXvpAD65UYHOADFF6AmeMJmf7kO8Zcu26dOn0wSku+YgnTuCejCh7TQE9YBl7TZt2rJy9+KLz/MIZAELkbodrIV99NFHM2ZMYxbLczdLZvNOQDYEQNu9e//QOyUhybEz1dV2hPKKgP7AndLNkmHBQ0NOkpKW28lBx+Xlk0wXDErCpvaum51+9Axsyx/LsWPGT4iPj2f40VHSpzHivKaPjIxgDi96LW85ZUwXT95Ew/gn8U4HEcY12FuoEcJdx+/QES0xKzum32tooYD6KCrlzGl8lr3jdFmjAiMfPHXpiKrlupF+uarq8KOuGwNQogms1KWyZzfvNCnFpX7zzTdmBpE+PY2VhtgE+MEHH4AzsrJmvUo8nSbgaQ4MaQsAxLSapKZBBpKcBCvwAPAxEwXjGc2cVJzVLpA4LMEqAkNiosUmL6JUOMAHR4lENKSIT3HYRT0zQmCYLZvxqkqYxc7XTOuQzB/jVkVgZCuUoWUaV3AQ4AY2dyFdusxQIIq3hLgt7IPRYaIGogO1CCsQjSWlOT0FuclMQsNCjQVs00M6duzIHBlN58yZwxSYF4swF380yZzJqBd4ctoqMATPepM4i9jQ2EX0wHOOa7tHjL1RKCP7CNBNlHoQoxKUkKj5NMHeOGboxmhOeWCKoKEX8Yc+KrJ40xBaKg6oQVJ7DWQTCuDUqK9uIBNRAl7mBQApgkCdy++f4EdbMq4syZ1m8YLbxh3iVnHPyEm6YQAu9lEXUQ4HDTAIhDG9wCbwjr8r4kaSREwOLBoISFQhF55cgxaA5MhU3XUFAdQSXsSOnuCLt/vspdTLO6cPYxIMl055+MCBBCBNgOEjzt4cpCN2eDCMH4qco6GIS/hTRA5MEtJxVnXVJYfAUXJJKTy91X/77Td+0M7Ug5CBIjVHBN5cbCUOWDwBvLB0MDolJ2ccUYrAkYGEkEsAckcM0quhSkGy651NFdiZsKty5co4BdqHRdWdqCJW6OZlJW4UqdTlopcC5FSxJCbTJXwQnaKlTrFZs2ZRxKqFa4WKiGp5RcO7BQly/AHUEMfBdUXhvTo7ntRyFQF4sLknmWrZ8ssuC5rbwnLuNrgbA5KOSd9KHmLcOWPi5H5GQG8uSVQhV0fhfrtLW2iyP79JXomCvRiqu0BGDMVNnQOMV6J6hvqQY+IAiFOFHUOxUl93siRCdckhxkGQk6D09ldHAx+S66YIFQYC0TgRMKHIm4tGGGCmq/hTaLz40+kpdVWcODUWvErJnVxgkVHqRabgLA7KqaLkHDFaeZtPXZK4AUhnCMB49Dc8aI3zWRBQ6nRQRae5qyiMxDl9RKxHDmydwaWncqeJA8A7oSkYwhmJEuroT6dx2kqEI6CKnivgvTQicAylp7sUk8shp8k0M2huy/UDmMrEyp0pncOSFzutNNBHU9wJsRXS5fAE76IGsXIdDoAi9RspQw4GslN7/0mJkuLtainU0CVkpj8mr84AOJWApZUpPhUWc+XQnJ68srxk4EnQu+5LE2DOpci8LYVScmUNXaZospc5bL0Wg6dj61g55wIxSAgEkEsWgEsQAIN3AOLAuFoUOQVE4+i5pJQExlUXEoyS6joOIL0EwCRkqfmUutZRxTEXLIYSByyejoPqUuo6mCNwVcTB1dUlHACgEb1yFTk4xR0ET3IBVAqG7v5CIzMCSAcnRfwvtzxobot75kwpK8vEoL2hFj2Tm2v7pzG1Opm7K8764uYuARzGAd5ScVCRI3CPUCidiBQ03ksvTBU3ALyCHHOQXnpgMOpSqng6paqAd10QQIo5O8BBTCBLQXkmNZwmqSqsWrBybAF06ZCicTaU3BQWc3wA4OCIhXc8demIJdSLdBVVBZ0ZtEiE5nQmXmLHxDWTWiRquYopdOaSWl5ri4ljq0uqCxC3FEyEVA6ZK3VMVN0RpMqEiin4eCWmWkX8nbgU/FXdlery8smD5rYuH5P5LfUt4FvgwlogeW3pwmrhS/ct4FvAt8BZW8B3W2dtKp/Qt4BvgYvDAr7bujjug6+FbwHfAmdtAd9tnbWpfELfAr4FLg4L+G7r4rgPvha+BXwLnLUFLojb4rW0eTPtJ98CvgV8C5yDBS6I2zoHPf0qvgV8C/gWCFjgHNxW6rESmwCdUe2Hl+y3B/hlyYkjiSEcaUCpKqqQzZx8co+vPpqcrXQkqtvMsTkFYMcw18oli0/CnORpaR0frtiJJ56ncLG/QHIYCBxDAWCoSIIm1equbrAAWSCFxDOITt3y56ZJChFqOKz4JZCXYbKpzd3xk2+Bi8QC57Dd1Axp9h6f3gC6fmDHsHFFfMzMfKyWb4SImr3xfLXEfAjGXJtc250ZsZxHbfNUeBri05KGHJu9PSUp6zplHI0Xg5Py/qJCNCl0SHHp+AQbMPaxP3gKNMH9tPM0QWe0/GmUZ4tItmRgm7iqCQnsto+fLTufzrfAP2KBlKP9nIUyyNXL9XzmKzR8qglueCv+cFT8UN8EU/wbxi+EGadQpCPnj3HCLzD4np6J0M6Q4K/hhMdBkJUFf/eXspolOAUpjPik8FnwlJOS8uQk6N0APoVRUC/s51ACvxNGB3jrwzipCVFjUysJHg4dSLTdNV+Y4EnwOfkW+LsWOIeRmfozn87tfvzFrxD1YXW8QVha67zsN62AdNoNWvPxIvdbRS7tj2jtN2fdRyHOomm4FUbXWRCmJKEiSQoDaIi6HGohU1b7R66xJNL5He95lXZ6A8GQnE2Qfm62Pa9q+8x9C2CBoH0m8KTPsn6Ek2iIrfhiJF9537hxU2IiX2VIy2+bNRoZD9VrRteOqYEGxqvZpSgmkJwEa69Sz9x49g6w1EmTsVCmGHvCCJmiVDNH5SJwvjiZ33n5l8gOs6AM3JErS54XSR6m3rY70ZQL7+zDJfp4iT08fNC3wIWxQNDcltRXdwfGdxFqff3114ULF61evToY0/vNwT1hHF3DRzVjp07DtdWqVY3gjWmkxipL9HwkN1VLuPED4GAnDowVekrkJaSXGxiqpCAWhpyZI35KHySABpWklZfD+YCRIsVgjmdnkujadT7Eiae3aWoseMn1Omsv2flTxufsW+AvWSCYbst1dxapSGY93pwMmrd27Wi75KyF55Ap02Lz5M+XLzJiSqw5PSEmprrmeab6n82M+J4cUyflxrVB75lJ4YzAnRJbpRj8yCKpFoBR0b4WYGRCqZAHWAAY1xxRnu8clRCq02j+SdGSq9bRdi7luFGGBIYij53Ptxl8/r4F/n8LpB7a/P/1TqOgu+vJbIGTxTgvLljGkudiFHCKFAOjdgwnRUXzOeDJk6eJmveJOJWTNU+FONKZ85049wHPhQiSdywle6Ez7lpQFXKOveOoVwYkrkFMgB03RumECRP4rq4cB/hTtQj+FSL4xDMSpRICwPwzMY5ah1wScmk7J1ZwpDNfnQajUjRxE9jgN97n6FvgnCxwDm6LKqnUUtdHBwEKoLhMPGGORJXPkoZ8CDwubs2Er6YSWfAakYkkzsH+EW6YaZrIPEAIJwBxrjqTTT7dPXbseL2dxKPwR3zACTFVq1bljKYJEyaqNkNOYQIACYZ2HIZyEFb37s/u2LELjHUNOC8jmlIcoiVL07fvqxxtzRKTatk3fWbCy6XlFLJ9+87Roz+FFRiSigAk2qltMaaWNFHuLZVixFh9+ry8bNly8/rCfDUwYEDJFU8nwnI76Uk//viT+PiNIEkYgVyUaguXKCyJzhoghWGbhbtlQuKe+K58t27dd+/eKzVkGUq9lFz6ybfAhbVAKg4ouAqZ0004SSxZDrPAfPnzxsfHz5w5nbiG4cTHb42PS16VYuhqPNsxbIY9ZxG/8847L7300vfff//www9znOqyZT/aAWk8BcHXCy+8YM+qMq/euCRnmCkWc+ON8UwRPEmMWGjsmFQYaByBDsJBT1SirtwuNIC2bqABSCRY69Gjh7Zl4lwUToJXG+EPNxKtAGaBH254CumjUi5J6EYuidDDB3eDXIRKrvUdxhNJhJwR+lBKAs/ZopxEDcClDiuCEpXUFkOkJUWriTV1wDjguS9oKFNYNQLrazxLWF9DK6RIGbk8y8zPfAtcFBZIdidBUIbBY8ZPikSnt26IbabmaGpGQ92Ymm++8drAAa8OerN/vTp1GTNUsUM0FAfnogA37Dlj6qGHHqoVE3NN7qtbtGzJYc5jxoxhRMk/jJ8w+aNRowe+8VZIkvERkk5dkuD169d36NCxbNmy9erVnz9/PtgMnErPP6EhY74cd1+T+2HYsdOTHBkNztRhQYetsnYP2eIlSzmBtcytt7Z8pNXMb2ZRZWpsbOs2bSCr36DB092f5TwsTgDlzFHUq1otmjM7Dx48LLnymEyHLUucgkEvXLiYI29vuaV0/foNOTsWLwYejyb3QUs7dHhcHhODcKLygAFv4IlwTG+//W7NmjVLlSrTomWrTZu3bNq8NaZ27aPHjvXs1atGzZrGuCdCliz9sW279qVKl+a80u9mz7FtCenRo1f//gO6dOlWtuxtP/ww3ypjHB/R2ZAh79euXRdlOIqVw1lpOaEf9+vHH39s2rRZ6dJlOAF3+/YdcrhGez/5Frg4LBBEt5V6g0zgE0YcZLab2ge+meFpZFKBn7YoTBCGYawowPGi+qpVq4oWLaqIg8sbb+To45+gZ+xxYGr37t27dOkSHp4H5nYtGbycj4ksDh061KpVKw6AevrppzkQlAN+KbWeMYTjlDnCvmTJkuSsmrVp0+bgwUNUQQcFQRs3bm7RogUScR9ZsmRp27btmjVxJUqUeOCBByBo375948aNoe/bt+8HH3zQpEkTIsGxY8cSAeGo+aPIKiKPbCKX9es3PPLII+jMGe6cq45KHCuthuMaIOYM2u3btyvIojowxy/CisWvAQMGPPbYY/369ePAwSeffDJ79uzk2IqDwuADE86XRQFah7bZsmVr2bIl2sJq586dHGKMUMjCw8OlEvQTJ07kwFQa+Prrr+/atYsjCCnCgGhCizi88tFHH507d27Pnj1dQwD85FvgYrBAMN8kptoejv80ePOaLNmh2EkQl3iydByogxc5zrxG7/LwNSePlqIe6yzkHP+rwUyEde2113KQNZfAgwYNuv766xmiJmCDnQmVTMb/JMbwggULcElTp06LjIxg/HPYb6/nnkcXSkeMGNmo0X86d+7CvPXOOytwXOjixUsrVSoPGcxJY8aMzZXrmv79+195ZUaW1ZjYjhs3rlu3LnfccQeurVKlStdffy2x1fDhwxn5devWQTTnVD/art2zzz7LkZ/wYUInPeHGFA/vw2QWJ5Ip0xWcrozrwafg3ng1QHyH1oJZVeMgeOrSmAQm0WGhq9esuf6GGwjocPEEU1u2bOH45erVq+FScaOVK1fG4xCBXnPNNa+99hrMa9Wqhadmo0nXrp3xsLhmhGp2ae1jPOnKlSvRVp63dOnStA57cieIWJ955pnGjRsS4h0+fHjo0KEAemYYo/jJt8BFYIHz7ra0VMwAS0wMHKzESyouGaIMNmZjYeacZ+NH7LgyaJkFGgAcDTkLSQwqRQq87WLwcxkX9wthztChw7VrAnrPfFP+K2T16tWcFx8REQETBJUvX55oAkocJR6Ns0JZyuGSsQqwYsWKu+4qnyFDBolm2OMgCD2kz/Lly1GDyE6XVhw6xAEQZC1cuBCAsAVfyWtBwsOGDRtCySUhzF133fXss93hz0HKahGOo127tmKFE9REDA6a56IjXo9LCMiioqLef/99Jokk4FtuuUUzR4ipCDFkuNRt27bhtsQBt4UPwm3BHGWsbQM2kT+FFdbjVQYHkeKCcW1Wltm8VrBgQWBEcKg4h8gTxsIEg/vJt8BFYoHz7rbSpUtvIg5zmjxhl/mFNQvjAdd0wsxKGF0Q8NtEM/pCOSfeRmfWPPgpBjkTNAakBhvozZu3FilShBBg8ODBHDu+a9evY8aMZ2zjs+YvWHBV1qxVoyrb2oxSs5qeMeOV+A5FWMyqEIcmdtU5jHAjZ86cGvx169YtXrw4FXGLaMUqmZxgjhw57Nw2tEGDBkQl4qycdlCXlCdPnly5ciGO2VmmK68k6smUKRPrcRQx3OETGRmJ/hJqa52MX6z7DjhctJR7MBYLY6WJIDQdssqVKzt16lReoX7zzTdDhgypU6cO7gm3IuYQwPzgwYPoiUFAUpHmSFuki6c1kWmUQqdy5W6dNm0arhnOBK3wZB5KE6ibOXPg9Hk4gzF+0ThGP/kWuFgscN7dFjvj6fR0exMr2W3yBsKLMBdMY4Y9PsI+yXma47PM+GDkkFONigyZYsWKxcbG3t+sKeijRxNmzpxZt25tKhEIMKIYwNa/mNhk0qRJLP1UqVyZimwsZbiy2YIZJSs7zNrgScREFYZ3pkwZ2DARHR3doUM72EL/2297OU0eGgjs2A5hXxlx0+OPPwaStH//QVyecbk24d1AhoeHE6bVqFHj9ttvRyXcx+7ff8eFUfTAA/db7wO94U9iVW727NnMFllB4vIb1vhDQipVruQ8C6x4geBqoTlBENUPHDh4ww03dO7c6amnOg0f/gEvVZnHMcekyaiEUKyEV2UpvWPHDvAEw/wOtla02cIqnqghJaFneksc+sQTHTt16iiezG2pS+O4KVIYUwCD1CWAn3wLXAwWCFroz1BhHqYmMUgJr5JMkJV0POkYS0nmJSJ5WNrEkLCE0DQJYaHHjjOmSGZhR1BCIjNHwhzzgQd5LnHr0KEDa8ND3x+2fdv2l/q8cPzYkRb/fQgRg999e8H8H+bMmbVgwdwffpiLQ+ndu/fgwe+wNtS336vtHn0M/reUKpUte/bHO3ZcvmLVrO/m9H7+eV4C2BlqSL16dd5553/jxk2Ij98watToW28tvWzZEjSxPvQEYVqdOjFLlizq1+819kbNmjW7YsWKw4YNQyVW09CQbZm//vo74RUTQJzIokWL1q2LZz2+fPk7fv/9V8tErAJjHicSE1Pzl1/iXnnlpbi4tayI865g06ZN+BacCKVwxq/xDoHYB1bvvPMu603gcRmsi+MZly9fuXv3nnW//HJVlizZsmZNlzasQETE1ClTfo6LI3qtGhX147Jlr/Z7bf26+Llz5lSsUGHI4MHcBVbHMDE24W3jxk2b693dYJ59nfp09+4slv24fOVvv+9et3595ixZcubKBaXdDGwiRGt87c8w+0X85FvgIrKAYoeg5PR184A3j2v7T1LSY489Pjl2xpGEpASQvMJL/gOG4nhC0uSvp3Z4vJMZLfaPpWhb3XxGBoB1MfKjR4+/995Q3v1HRETeeWcF3r55aVzFQoVv/HLs+GPHzSht/9jj1aNrsjUB+Id5C6Jr1Cpy40033Vz8w5GjCkQWWrBwMXjoXnq5b/ESt4AhH/nRx2DA31m+ImQiGDtuQlTV6nDOH17gmWd7Hjh4WHg2OlCLfQaI27f/YKvWbaGJLFi4cpWqxFOoR0BHrkRbdAnA3lpW9wn0mDa+8EIfqGB4+x3l2cOB9KPHEro/0wPOBQsVYaMDmzN69HwOgq3bdtzf7EGQEQUKVq9e4/vv58GZup999kWJErcULFhYZh8//qsaNWrlzx9RpEhRdtUeOHAIPO4bzaX24iXL0HPCV5O43L5jV7MHmodHRIKhjd/Nnou52FeBbqyLyf4EtszHiWqTm+L/61vgorDAKXHN3/GmtIYYRBw0JQFmd3tSmsASLwRpQ82yi8gYGEzi1q5dzVSIN/GEJzgNvtLFLEUEDHUmKWLITAiAfZ55897gOIABtrNJ856OPZYiJmdIw0Qhj5RhUzvrTUyRRKP4TvryspKgCViXXlaQgdy7dx/ra1QkLFJ1/DL8TYuSGR45coz5GiIkFDKvnslCTXxJRTY6MCHVVg+a69hSCmfiTdb+WWCyUVggZKNFLI1hEyoaW9kXqdDj2TXLdhi8FZwzZDCLYuiP5xJ/tQX+mB0OuqSxxHdZs5rWkZBC/IvZrWGFMwqf3pZAmf+Pb4ELYYGguS2UZ1AxO3SDhIExffr0MeMn8G6OoYifSp/GLKUxBkgAjJ7IyAjeWzF70igyFkh2W9AwYLw8KcQ1aJVaXs/Q26GO+2DcKslxWAnG6Wg8i7+QGskOI29FXVcFmPHMChRFIKFngdyxoinOWzlnEZDt+UcakpPwLCoBNozka5OJvXJTaKVLCL00qufU8DbQ669TEFBLlI5ePOXCKJUdZHaJsFUCDtq4Oj/5Frg4LBA0t+W6uzdKYhSF2R+juDHPmCFphACYJTAb0ai6c1UMEg1vYVId7VSnlAQxuZfeXUoZqkMDrLEnSm+R0Sk5QQzo5cmliB1b0QoJLP6UklxdAAkSsWi8xCp1+BQiYOVtkWMCoFYAuCrAEDtWrghASHIY6m2Dmsal+LhaXomCvfrDyk++BS4SCwTtEUoXJxSiVRobap6LvLjU0xqH5f68EQTjhPEDEwBNUriklkaOcyJCirnoBbsBBqBFfeFhBUB152JEAFJSNHS5dJzBkGACEmWUxEdSXJE4iD9tp5SKXJKASQjVJcxVBDfwXs3BS7QTwWRQHJxKYgI3iElcOlOLEp5wpogcjGusk0uRay+lIhYTMRcfwXCTFLFyBD7gW+CCW4Cua3pvsPRghGj6BkP4kmvQMiPiw39mXgSO93RAhFe4CZauPMK9QwVaho1GjoauUTTwmxtTxw08UUocsBKsALw6cEl1YcjdlC1Qwf7jCLiCPzTwUfLyV3W0oghKLpXEE1h8hJQnEtI1RDyp69wfGGhkLpB2vwLkxtNxqVIAcROZM7W0pTpkTitg8OJA7vQEIMGWRBWYSDeQALYwcNfEEIyEqsjPfQtccAvQt01y/fVvKqSO7oYKA0OjiAGVHIIwNkyopVziGIQMDNXyKuCGjRcJDB5ijSXVEqVXOmQSDUADBQOIlWqJlZDSQTl8VIvcUQom12gXgSQCu+Q0ASO5MoKrBUPnBcQ8hdpenl5YIpw+FIEh9/J3l4gmeQ3rKlLLC4vGi0wh1KukdPBz3wIXgwWC5rYuhsb4OvgW8C1wOVjAM0+7HJrrt9G3gG+BS98Cvtu69O+h3wLfApeZBXy3dZndcL+5vgUufQv4buvSv4d+C3wLXGYW8N3WZXbD/eb6Frj0LXBB3BY7icxmIj/5FvAt4FvgHCxwQdzWOejpV/Et4FvAt0DAAufgtlKPldi76Ixqzx7UrviQoyeOJIZwJBalqqhCdmPzSyC2ypucXY4kqpPxj4E8KVDK96L4O604UOqhFyiGDvZcJqthIz5V95SmZMSWS4dyZA5wRQBi5cWcDez2ykPsZKXK/2y4+TS+BS4HC5zDdlMN41T8HYON/dlYDd/CV2hOJJpvaZ6w3gFqdsibH/ngekhhJvfs5DanurLnW3XJA1vagWwynL24FMXJZN5/nTInOUi3JM4idPUDv/jxYLw8DJyCT8riIF1jCnTQfnokyhRB4u2z8S3wb7NA0NyW8zuMQH62i50InfAPiTZ4SiOnYzEUEWKE8VkYjh7jG6j85MV8oTmUD/eZ3wE5l5LC1NbdnbE0BfE/5W5OE/uXEZiC3zPKOWIKOVDfc/1lO/oVLicLpBI0/c3ma+AlnjAHLPPJJ33xwX50wPicRD6swKeX06Tls/IIotScomjDH3wWPuzPpTOeXRJlisv/t/qfE6RaKhFOnAPAp0r/l5D6DTZGk98HIPnR1l+yoU98uVkgaEdgaKS5eCEs1JxXymcCV69eu3HjpsREPmCQlk+y6LfEjMzqNaNrx9TA3HKcpiKfm/d+FCLFrbBRmKaK+As4eMtTXFJ0OsZL/3dgSQ8Wf/k+uGFAzZrRTS7s7yjp1/Ut8C+2QNDclmzkBrNCLT6dXrhwUb6eTinD0h7cE8YhVzfffHPs1Gm4tlq1qhFfMVcMeD0zwUwZACqm8bopJwW2XtjdJ3kW5xEc3hGryOG9fE6vlYLs9Lpegr8KoxIMSQAyArCAv8rKp/ctcJlYIJhuy8UIiXaqpw8l58uXt3btaCZ/LFspnzItNk/+fPkiI6bETmWIxsRUl0sy1ZM/Hu+sD4Fxa+aIMjOV9DovaGypoz0JOPckGu+lxVDRTlHPzBDOrhaAFECgkCY2PFWVFJcnVTk7SNURKs5/k9vZyfSpfAtcqhYImttiyHmCBVZqAhbRZ9edz2KbhD3SKm2tmKpUmTJlCnR1YhSOseCVYMKnUz2CcVzWQ1nPZQr5s37EyGCcm2Ibdtmqp1RHhCsVYCsKPKvcCjWUltNJX+bkUuQUdsBZsbZEaEgtFuaZQXMKWcWKFTm+EOZ+wHX2NvQpLzcLpJyRnUX7qZJKLTdiBTjPk3jCfKlZcZaYc+RqXNyaCV9NNZ/xDAllIilXYgfwKW7UuozQ+vXrc+wVJ3RxKDzHnXbo8Pjvv++BPwO7fv2GkZGFbrqpWOHCN3LKFvnIkaOQQkVeAmzYsAlMq1Zt8AxybuBnzDCHaBUoUIC8ePESrVu3/eCDD3l1IIJvvvmGIzl0HqK0TeAgsJCQxUuWRhYsyPFfwJyZWKgQ+hi5EKMY5z/TajVcXzpGEMkJBUYfMXR4AOQq7sOknMHzzDM9tm7dDl6sHL0P+BbwLeC1wCluwlsQLJgv/5qTxOyeLHgyC8yXP++02OnxGzdYZ3EiXRo+f2yl2XHNiFWsYR0JGyPMGOZo+JYtW3IM1/r160eOHHn//fdPnjwZlrD9z3/+07RpU97H4S/IOXsVXtTiM/Zffvkl8LfffstSN8eRyXWiD6HNJ598AsDBXz/99NPbb7/N4YYcqpoxYwY4ILdfv34PPPAAbw9Iihbfeecd1OAgaPwR1WE7evRoTiRKn96cR6uYTrm+dAwxfsp9Sl/6yJdRF82BQYq5VczsIFPDAUhwgNJPvgV8C5xugSC6LU3WUgZiuAwGYUio2eHOpizGY92YmvyxuAR6ypSZkyZNQi2Gbpow47BwUzgj67PM8CYlnjhxTe7cRW+6EbhEyZJ58+W79957f1m3jjNSOXI5d+7ct9xyS7JXNPRyTwQv48aN69q1a9++ffFcVatWhYYiuOEeb7r55ixZMkFcJapKnbp1eWkwbvz4e++9hyNO2ZLBKbPzFyyqUOFOFunwHnv27OOV6BVXXEFbuMyQMSMxUrFixTJnzuR8i3M08lZr1/5bf5x8AAAcNUlEQVTctm3bxx9//P3339+6dSuOtVGjRhxejZck2MQt5suXj+bHx8cPGDDg+++/Dw8Pb9OmjVqNw/J9lrmRfvItcAYLpPQyZyA7dzQj0OzMMmdfmA+cs7qN73KjnR/3ELDAXRgclkasALwMiQjIDWPIli1bBuaaa66xtSjBzZljDfECoucS3wHZzp07GzRowByTNSNEG152/kUMBQCxcaehIeHh+UqVKrVy5UpgCbr77rtHjBgBDaxAErXdcMMN0Kgi56ECWA0NB/gYbwtdYN+/AViowlvhkh566KHGjRsPGTKkXr165cuX79Onz6ZNm3r16gU54WGrVq3WrFnTrVu36OhoPCwV4UwQCuAn3wK+Bc5kgSBGW6mLYLpmCsysh8zMA83WeOsv8GTp0qRJZPge5xQZndqguVXgVGTFRziFuLi4qVOnMUlcsWLVF198cdddd3GQMsMb3/HWoEGDhwxRsMN8berUqURhHM445ssvK951V7bs2WvFxOAdnuvdm5OlmbXBDWKSvBsYfBzrXIsXL7ZqGg2bNGlCfMQy0/XXX4e7w4U9/HCLH374QQ6FJTmcVLHixY2rSkpiqhgVFfW//71FRZwO9XFkxHREggitVKki+KmxsYSEbdu1Bd6xc+ebb75JyDf3++83bNw4Y/p0/CacOdG6d+/eNEEzRyj95FvAt0CqFjjvbovJGoIZ4YmJgcOZCbi4ZHjbUIWz/0LxWdDgQfAmimiMR0ie7oH85ptvZs6cSREuplatWi+/3IdShjc+KCYm5p577oGGAQ8Ba1uwPXLkKCFS8+bNWQvLmzcvZExF77+/ifyOrZsWVoiW3H379il8gw+LUwRWrNl//vnnHTt2mD9/PnET8decOXOI8qzDNSdCvvXWW0wb05rgKOHaa6/FVeEHlQCgRGihQoVsG5Ny5MgRHh5u2xRy9dVXHzx4EEp8MRVRD5i2lCtXjlo4YqqQRGwgP/kW8C1wqgXOu9tKly69GdJmjZywy/zC2kzq7MjkR9YMVFwABCx+8RtFswRmj260bg6PZvwUfuSRRx7p1q0LQRlOijGfOXNmuYmwsLS4AzYNaPGbplm3wuvCGcwKP/jgg+HDh6u9zMuaNm2CW8Ax4RoOHz585ZUZRU+VRYsWMZVjpsmMlhxuLVu2IvZp2/ZRQi1mmldfnR1VmfrhTVAY9SpUqJAt21WoLImSAnP8jZwjNAgC79yxKMWHEvgAS3OKCAYJJ3F2vsOSMf3ct8CZLJAcIZyp/G/j2RnPONTwTvZZZpYIkiUvOycixMCvGU3s4pKJgAxskhnzOAs8F36KoOyJJ56YO3funDnfUwUMbgIi6xdMFfkFciaSt956K4HSvHnzcEm8K8SLbdiwkSJcCVWY6AGrCtsddu3aVaJECd42knAc4GvUqIFrw/HhAZs1awYOvGrBAXfjOMjLiBuc8bM4R9oln2VfAJi2gBElAM1BBDsniON2794LTBGzVKqolriB95NvAd8Cp1sgaNEWw9XGU0aECZv4haEJspKOJx3jpaHWw5NC0xr/ZYpDTtj1LBN/JZnVdOgTEnFAaRPtFxFs0GH8FwCfikhMOBbCB2dC0lSvVvmmooX6v/ZKxQrj7Kp44oaN6xcvWawVdxTIkycPVeZ+P/v111/PkSMbDhJXWK161DW5c42fMJZXe9Z9hOL7mKytW7cOp8Z0kt0VUVFVEMeuT5wX+mTKdEXz5g+89lq/woULlipV3LpIs2DlXA+v/9gPgUvFfxE33X57uWPHE1u0aFGxQoVWrVrqzQINQHlrB7MKxiWc0zHTNC9MQ8qVLZslc+aOnTqxGL/r1x0vvdKH7WWJSWY7BW7O2NFPvgV8C6RmgaC5LVyGmSKZwMK8yCMCsjOkEFasE/jwll2XRwHNDhmUhE6sdlOLpEHKv4xwAhnIkoMOQw6GS8jwTcCdO3fGOxAEsRBOKVsT2LAKAd4Kmp49e0IGXLNmzYTEBD41wbcoyFmc+uyzzzp06ECkg5fp2LEj/ovJJnO9559/vmnT+2CFdEppACESyrAwzxyTV4EUoaHV0/zKh4Q49jfQXsnNmjXrwoULuVy9enWRwoWhUSsQYYmNUbCD6oLE02GiXLly8Iax13PPsSsta7Ys6PbSSy/BkCq+5zJW9pNvgTNYwKyCn6Hor6G9I83EF3b2+cYbbyalSctWcnhBkDbULC0plMCzMETXrl1NyDNw4EAz6WNXKgQWj+vBTUgDvIxmVbqEA6XUJQHLW6lIPIEByCFwfMDIX9BaWowbckoKEJKFLWrhs+R5DdL6LJUKafkbgegMhoRfFRJxaIdX4hJxcl7A4Gk1nIFJrkVoBXb/gf1UoY003xjBeDk/2pKp/Ny3QCoWCJrbgjeDk7HMmAdmnPNHKDRm/AQTcLFMzdpQGhNJmYFOmXUrkZEROLUYdp9aVwKSylAywr3DHnqN5NMBqsg3qYi64kxOkiBvXTlprwNKdiYnHRnKyhPBQf5D6il3/s42wnhAkkNa+OSvAlCAJIdlnJRN0IAk58q4UTuT5ZIEfOYvJYrEz30LXO4WCJrbYhzKO8iJyK54B7ZQeUe79SqBoQ4NbxhVqurePJnDybBL7gwaEo7A663AIN15Oi4hdvGaUwlAHsT4C+c4LIA4kE6ECMjBi7lXhBiKWDlkIFULuSJQFYqgoYgETPJGW5jAvrEweBWrrrn2k28B3wKpWSBobgvm3tEo7wCSaMIbichFuAjFfVyLgQ0xtZwX0Gq3PJEb9s4RqC1cCoNHAAApQA5CRcIbTTxRj1NPfFTq3IqQXqFyJSIQLD2dCK9c6ezketlSC7z8qRpoX4cmmdmxjbPE1mnlA74FfAt4LaBhFTS35R1vGtgpogbnsOTFTis9ueblBrbU9XJ2HkG+INAGs+0gEJQJQxW5Bi6d1wAJ7C5hLmJJEV70jptoVCQ1IHDMVVFMoFGtVOuK0lvk6lIRDiR5UgAVSahgP/ct4FvAa4HAIrEXdW6wG9tUF6wBqVmhRQYYK9SSW2Ekg5VDUTGjlyI3em3FwNwKMi1ywxlYRYKpIlYgqSvm+DhHCR7OXIrM8QcDTA6B1ODS60EcB9FABnNJlyzwJCdUoilCEHjXQDBiC+BNTqiQlpnJvDQ+7FvAt4DXAkGLtrxMfdi3gG8B3wLnzwJBi7bOn4o+Z98CvgV8C3gt4LstrzV82LeAb4FLwAK+27oEbpKvom8B3wJeC/huy2sNH/Yt4FvgErCA77YugZvkq+hbwLeA1wIXxG2xd8FsX/CTbwHfAr4FzsECF8RtnYOefhXfAr4FfAsELHAObiv1WMnt9oSxPVzC/KyHv6MnjiSGcKgD20pVUYXsxuT8xBPK2atJomLyFvFUbo/j7wC35zMV6ksHJQvwnS9vBCprBKURshI7b8XNWjqwET8o/H0mvgX+eQucw3ZTze9S8XcMCW3vZliYry/zmS0+927ng1DziQfzbQNz3Bcbxk2OA9KOcz4XyuhKdRO51yJnQ+Olv0Rg73zZWPU8NRO22oKPCHenLhET+Wr6FjjFAql4n1PKz/pCowJyRUP8NphDubjEW9mPVvGtB1wkDouPMZuvrXMCYViadOT8MYrwWUmcSmh9WqoyNdLIVcpn11Mlu+SQuHr+sIv7FRRNcM38+83hdsBNrhBAsP/job9vWJ/DBbRA0KItFyMY/8VXZU4kcjwi7inMfkKPDy/zi0DcmP2iqWkvZ8u7D11xaX6DxzcQqOs+CmGozpgYfow9xWtnJLpECmgLmsqVODMGUXfns3xvFUSr+qwuoAWC9lFmTfGMz7I/Aw4LNV9k5zOBq1ev3bhxU2Iip4GZk2/0S2NoqteMrh1Tg5Yr3jMVQ/7MZzG2cVL8lNo7sN3vli+gBf++aK/D8rbu73OGg/y72JKDQZwkBoW/z8S3wD9vgaC5LanuxgO+i1CLr7wXLlyUo+opNdNAE4eFjR8//uabb46dOg3XVqtWNUYS08iA1+MzfmeItuCMz2IQGj7JU8WgD/J//gYgUTGjLIAjVuucJf+mSuKjXCJYnkdKsPj/TfX86r4FzsECwXRbzomwSEUy6/EnQvLly1u7djQAU0LlU6bF5smfL19kxJTYqQzRmJjq+kyLqZ78/fjTWwIlI025ZlT2w8pBW5s7XeI/hrGuiiDIOHo8i3fuHCwdsC3OUZ/kR4Dvs4JlWJ/PBbFA0IY9DkUDzgIn26KPsjufxdoWh1EQN9WOqVatWvSUKVMmT54mat4nsrZ1suapkHyWG9Nr1/5M1JYcdZ1Kekld0YRvv/1u6NBhP/+8DlvhvPAvQWwBDmv//v2jR4/m2Edg3abgigiitj4r3wJnY4FzcFtUSaWWe4ALUACFBokn2J8ViLOkUOHChePi1kz4airH1fAakYkkQ9f+EU9xxr0ZtHzfmZwxphyASESc8WwwX7FixQsvvECpHJ0lDMDCEItRqhyMRIDZsWPX6NGfHjp0xHI2eAHwB1BdLyAd3Dhn5Ft6827OWyQ8RU4isEtIER6MRDi5H300qnXr1hxD696NasFO+kAvKbaiNAwo4C0C1s4s6emtgtH27NnDodzbt293Tl8iqOUn3wKXogWCOUlMtf1MTMwhWskzH2aB+fLnnRY7PX7jBkYmKV2atAEfZz0II4qxRy3GHkMOmLoAadOabRPEI+IEBtfG4NclRyO6IiqaF5L2ACGq4ibg79woo7dHjx4VK1ZMn/5aqsBBf8Don8zNnJPIJUUIArDzOKMP4lGJS+EFI9Hhkysa9amuBI9k/MnJMoohbtmyZVFRUW+//T9p6PREHxHAyGoSWNRDkGFt6ZTjsEDqZYX8EVYVIOKAEv4/vgX+LRZIJW4616YRBZhAIEViYNuBxzZTjpU2YU/dmJpvvvHawAGvDnqzf706dRWnWOcSioODWEMOPoLxVgMGDKxTp1758uU7dOi4fftOiqDhHDMG77FjCdWr12DwWycY8ssv66Ojo3fv3g0NcIsWLW+55Zbo6BojRoyEYPLkKa1at8YVNWnatEfPnviDI0ePvfXWoJiYmKioas8//+Lhw2Y72Pr166tUqfrpp5/Xq3d306bNwNCIZD8VUI8TFdGqfv2GZcqU7djxCYI4VMLDLFq0pH37DmXKlLnvviaff/65/GBc3M+VK0dNnDi5UaPGJUrc0qZNm23bdqA81ceNGxcbG1u5cpXFi5ciCDt07tz1hRf6wIq6yB0y5P2WLVvhgDZu3PzII62LFS9ZrXqNl1/pxyHY6P/FmLEtWrYa8eFHd9xZoXKVqtOmz/x21uyatWoXL3HLYx06HjRBpdkUlvyHBOOF/eRb4JK2QBDdVup2YLSzgYthQ8SDC2NVnReHLqbgpy3p05uITxgGJ/Sa7wCYYOzEib59+7799tscK92pU6dVq1Y9/PDDuAw8GtspqAUBXubIkSPUZZxTl0tNuJo3bw7Z4MGDGzVqxIxy7ty5uDCqU7Fdu3aNGzfGKbz++uscPd20aVNmamPHjiUQw1+wDLRx40bk4s7A40qIlWzQYwAuSa+88sq7775bv379Ll26cBj1/fffj1vcsGEjJ2ajDCddly5dGm5jx46XVlu2bLHHXzfFZy1YsABZKM9J1DfddFOVKlU4TDs8PBy2EJcsWXLkyJGHD5tpLEb45JNPePGK0JYtWzLdQ26DBg2GDh06atQoCP744w/aNXPmzGeeeaZo0aJIB+Ak7aeeemry5MkjRoyAxk++Bf5tFmBgBynhSow3IREyJdrA6dH2HSd/PZVLnAu448ePmhLzVitAMGnytEfbdzp6zBTjccTBAmaXFqwYloUL3zhq1GjLOGnduvhOnZ7csmXbl1+OK3bzLUgioCgQWeibb79LsDxXrlodUaDg5i3bfv1td6HCN475chycjyec+Gn12h07f0WrBQuXFixUdOu2XcCHjxwLj4gcO26CaKbGTo+IiPz99z1r1sQVKlSE0ExC7SqWWVwTAPLAgUPh4QVYI7M6JrGa/tRTXTZt2tK//wBCnkOHj4pht6efqV2nHjBaIQj+wERJ3Z/pEV2jFlpx+d8WjzzzbE+Zi0tasevX32kCLZLatG71mjgIFi5asmfvPggga9W6bes27QCGvDc0smDh337fAwGthvjDkaPA8/dIqzaPtu+ADMK0yMhCNArNXRPUND/3LXApWuC8r20xicPTEzXY5ScFVmbCxQSH+AUPRoCVLp2ZudiIBhuePJaViw0bNrCGxfQQAugLFAjv16+fXfcx62VgoBF/4hSSibhsyp49e7ly5QiFpk2bxkpWjRo1cuTIJgIY4oEIdtasWcOSEIHPwoULqbhz504mevHx8aysQVOsWDGxGjLkvS+++AJnKuZEOvv27aPi7bffLmkRERGvvtoXRZYvX162bNmMGdNTkTZWqFCBilgAbnAuUqQIQRPKE/R99tlniuDQH1YoQ3VyGKJ5VFQUaleqVPHbb7+lVpEihXCaHN/NdPLnn39GOgCxFVIyZsyYM2dONS1btmxomD9/fqTQwGuuuWbXrl1qgp/7Fvg3WeC8u6106dIzipgiMm5ZujGr5QxN42rMUhgj1joRRvkJswgeegInRomWugEOHDiAEyFZD2UGtvFZiazQwM0kvANjFZ8CDA3DlUuqI2TIkCEMfkY4UzCmTmyYKF78ZsSxKGarwvwQ8808efJdffXVBHo5cuTAC2TLnv3ggQMoRoIM5VmouuKKK+BMMgTZsrGuL1i+RjNHJKIGBNTCy/CTTAQxIYVSKsEE/UlwBmkgqz85URtMUCZdOuwUyoz42WefZY5JxNegQSMIWHSrVas2/Nk2kjdvfvxzunQZ4HHkyLFMmbIYC/M79VDzayozKQ8z7tsiz/v9NW3wk2+Bf9YC571bszOescpoZYTzm0Prs0yMFMoqVhozzhnDDDPGIS7CElIYWP9mbBNTQMOS1vXXXwvR3r37Jk6cGFOrDjSUwtnsojhxYtOmTZRyuXXrVrk8O6SP1K1bp169Ort378UREPjgtqBn7Qme0MOcy5o1a1aocDuXVPn1119z5cq1ZvVqpwO63Xor61SlAeSkyFmQolXEVtHR1ZxWBHQwXLBwIXxoE/glS5aw2wOfixOBHo8ptwVzm4zCJOtkDYTPMtchIZUrV8ZfT5gwgVWzQYMGwZAdEr///vuMGTOwA7UWLVoEWwCsJx8NDcn4PLMmaDhTpGaaAj/5FvgXWcCMrqAk4gXregwzhiDhVZIJspKOJx3jAwfmJSJ5WNrEkLAEgoKw0GNm9wKJRRjWsAyUkMjM0QxCBh4JDKM9c+bMuIbu3bvNmjVrzZrVXbt27d+//xVXZmCV3yz0m7lVkuZcCxYsWrr0R5bYDdMTJ+Li4u6888433hi4Z88fzPuYWDHJQtC1ua/OkD7t5599snPHrpw5rqpQ/o5ePZ/94ft5cWt/7v3ccxXKl9+/bx/SpYZ8gdWELOBlUC1r1izM4Hr16jFr1mx+dMn694ABA7JkycJLTN5pouGqVavHj/+KcK9hw4a4LJTEg+BT1FLalpbY034ZA0GKJeH/8st9H3+8E8CVV15Zt25dIsSyZcvkzXs9HjNXrhxs042NnUJbPvxw5KxZ3/A2w+iEXc2E+//aOZ+Wrr4gjFNZEkL5FiKIXoCvwFWmuBQX4kKxNtFO8GWkIC50Ie4T6iW4dx0t9GW4iuoz89w733NPSXS5X+PSHH6c5syZmTP3sXl+c/+k4QBloWRJhv4feh4jcq7pCSKix9Idc0oExorAYLTlNdlUhFOY3bYwuFH6Vnz1rYqhbukV/LdB4EeDYJb8CU2wRKbATGVmD3mYxbOtnZ0d3utdX18fHx8/fjwLC0AuWNHXcA9Il7SxsbG2tra4uKju5uXLF3t7e6enpwsLC7wo5O0bb/04iG5lfX0dQtnd3SU+dENDxDvH1dXVi4uLs7Oz+fmn0CVBaI50CZ5IPR0eHhKZrFZWVnhLeHJywiMtWObo6IjbUtiKrLa3t9++faOr4w4x+IJrJH8Ii6AwFO89nVOsVaSvBD2WZEsCpC13Xi9ubm7yPnR5eZl/oL60tEQQnq+TKgMiAj1uSOmwAjoElgy6S5pKWXKi49bAW19VrhOBMSBgjcAgeRJHLRLRYBMV/IcPBz8ezNDmoMRg5t7kU0mKikL6+vXL1dXV/v6+1S1fpWLgekWjbqEPfKlw6hylnhwpYZ3S9C/37P5xbm5O91lxTQj0WXjNzj6i/nHxYr7PUyROp9Q9MT7K/3ZzczM//yQyhzvYxV2soRPLmXxgBOLgSPMlS2a+T+NaaPGM/pyO5aXnVmUEZH8UZV/G6lxmb7744PbH+fk57xMuLy953K5klDz/UofIkZWUPEeDwogjS53Cll9y87sYiUzC8TOqMsllIjAiBAajLa7Z24cJF1DD9AUfP322hosC/f790QN7lAb7MBAgjufPn0Fqr1+/UtkbcC39iddkqWKThmp0X5s1Jr6thj9/VUZJh4CNzMQCyPraXgVPkGCHIvBE9NwsNQVp5nafIPwyC87CQiSOBgGNP+kyO7lEPjKAfw8ODqCtra2t9+/ftfEm9kjiu4gjG0UTP+oSlD/ge0vbkKgItwybciIwLgQGoy1qWOQCeelGDyCsRNueRTXJzAg6sEdg3tHI/bdBWrYyT5iOGZcyiLx0ruZwwR4ZA6VExZKkZJQMBfSYFpRdlMyKYMfcPmTJfvCOy83ls8syAt4ext5LiFYUkH6KT2S5deWmWKkSBHdSQmDIrJzZZSkNBuVZUkqDjFAZlMYpJwKjQGAw2uJq456urHkKRYQlOErGQR+/XAsXDFpWMuKIeiuLTaxXNi/qHWQcLjqrTKNsMTCD3bhjwqxyQRNeIShaNWuXfIgQXQ9LcmMLYy6BgRxCUCSno4ylchB6yAy5ay7TYAtHzdKXl499GCAQnxklAy8JaBhxtJQ5JwJjQYC/vaQ62CN5qkjPoQiq0BQnMuUCN1nRcBzPfZD8DRqvuIKzzKwtY3yRiYZSc5Scm1Fy1p540aJomA5Bjhwav0pBxYkGY0gKAw2MxVnm744ExIxdD2uffaHHXQm4VT0pOMnwRKnlBBK27yrYYqAlTggyUkDfn3AK5+IFeuxipl00yGU+aJR/6NmNC1HO2EQQCRjLXu7IOo5ljkRgdAj4X+fh/hJTDCoPqk7FprJBreYIgChPKlyz8KLYuA+SvTSKo9ldLKy2SjM08i0FmWkmAoNkQslScuSJJoKHmU6J4KGvBJnZGX5K5CYhlnhhwCmaQx9CuRvGcVZ4EYGBPhwlYECqQV5y/G0LFo4RPIVEYKQI5P97R/qDy7QTgf8XgUkz8v9ikFeeCCQCo0IgaWtUP65MNhFIBAZ8JJ9gJgKJQCJwNwhkt3U3OOcpiUAiMBgCSVuDQZmBEoFE4G4Q+Ce0xTdZ9llWjkQgEUgEeiDwT2irR57pkggkAolAg8BgtMV3jyWo1bLc8vcAf31uFbBaduP3WVUBq2WfiF2fKmC17Nr2WVUBq2WfiF2fKmC17Nr2WVUBq2WfiF2fKmC17Nr2WVUBq2WfiF2fKmC17Nr2WVUBq2WfiF2fKmC17Nr+efXX9PHnkGmRCCQCicA0EUjamia6GTsRSASmgEDS1hRAzZCJQCIwTQR+ArwXCwzWKZf0AAAAAElFTkSuQmCC;" vertex="1" parent="1">
          <mxGeometry x="-176.9979310344828" y="595.0044827586207" width="402" height="644" as="geometry" />
        </mxCell>
        <mxCell id="S1er4RFP0g8Am1T3TDDY-16" value="" style="rounded=0;whiteSpace=wrap;html=1;sketch=1;hachureGap=4;jiggle=2;curveFitting=1;fontFamily=Architects Daughter;fontSource=https%3A%2F%2Ffonts.googleapis.com%2Fcss%3Ffamily%3DArchitects%2BDaughter;fontSize=20;fillColor=none;strokeColor=#FF0000;" parent="1" vertex="1">
          <mxGeometry x="-151" y="593" width="189" height="22" as="geometry" />
        </mxCell>
        <mxCell id="S1er4RFP0g8Am1T3TDDY-17" style="edgeStyle=orthogonalEdgeStyle;rounded=0;sketch=1;hachureGap=4;jiggle=2;curveFitting=1;orthogonalLoop=1;jettySize=auto;html=1;fontFamily=Architects Daughter;fontSource=https%3A%2F%2Ffonts.googleapis.com%2Fcss%3Ffamily%3DArchitects%2BDaughter;fontSize=16;fontColor=#FF0000;strokeColor=#FF0000;" parent="1" target="S1er4RFP0g8Am1T3TDDY-18" edge="1">
          <mxGeometry relative="1" as="geometry">
            <mxPoint x="40" y="604" as="sourcePoint" />
          </mxGeometry>
        </mxCell>
        <mxCell id="S1er4RFP0g8Am1T3TDDY-18" value="Examples of the different claims" style="text;html=1;strokeColor=none;fillColor=none;align=left;verticalAlign=middle;whiteSpace=wrap;rounded=0;fontSize=14;fontFamily=Architects Daughter;fontSource=https%3A%2F%2Ffonts.googleapis.com%2Fcss%3Ffamily%3DArchitects%2BDaughter;fontColor=#FF0000;" parent="1" vertex="1">
          <mxGeometry x="165" y="589" width="278" height="30" as="geometry" />
        </mxCell>
        <mxCell id="S1er4RFP0g8Am1T3TDDY-19" value="" style="rounded=0;whiteSpace=wrap;html=1;sketch=1;hachureGap=4;jiggle=2;curveFitting=1;fontFamily=Architects Daughter;fontSource=https%3A%2F%2Ffonts.googleapis.com%2Fcss%3Ffamily%3DArchitects%2BDaughter;fontSize=20;fillColor=none;strokeColor=#FF0000;" parent="1" vertex="1">
          <mxGeometry x="-152" y="631" width="189" height="22" as="geometry" />
        </mxCell>
        <mxCell id="S1er4RFP0g8Am1T3TDDY-20" style="edgeStyle=orthogonalEdgeStyle;rounded=0;sketch=1;hachureGap=4;jiggle=2;curveFitting=1;orthogonalLoop=1;jettySize=auto;html=1;fontFamily=Architects Daughter;fontSource=https%3A%2F%2Ffonts.googleapis.com%2Fcss%3Ffamily%3DArchitects%2BDaughter;fontSize=16;fontColor=#FF0000;strokeColor=#FF0000;" parent="1" target="S1er4RFP0g8Am1T3TDDY-21" edge="1">
          <mxGeometry relative="1" as="geometry">
            <mxPoint x="39" y="642" as="sourcePoint" />
          </mxGeometry>
        </mxCell>
        <mxCell id="S1er4RFP0g8Am1T3TDDY-21" value="Control plane configuration files" style="text;html=1;strokeColor=none;fillColor=none;align=left;verticalAlign=middle;whiteSpace=wrap;rounded=0;fontSize=14;fontFamily=Architects Daughter;fontSource=https%3A%2F%2Ffonts.googleapis.com%2Fcss%3Ffamily%3DArchitects%2BDaughter;fontColor=#FF0000;" parent="1" vertex="1">
          <mxGeometry x="161" y="627" width="270" height="30" as="geometry" />
        </mxCell>
        <mxCell id="aUk0upNt8_hWJUNDJRNM-4" value="" style="rounded=0;whiteSpace=wrap;html=1;sketch=1;hachureGap=4;jiggle=2;curveFitting=1;fontFamily=Architects Daughter;fontSource=https%3A%2F%2Ffonts.googleapis.com%2Fcss%3Ffamily%3DArchitects%2BDaughter;fontSize=20;fillColor=none;strokeColor=#FF0000;" vertex="1" parent="1">
          <mxGeometry x="-148" y="660" width="189" height="22" as="geometry" />
        </mxCell>
        <mxCell id="aUk0upNt8_hWJUNDJRNM-5" style="edgeStyle=orthogonalEdgeStyle;rounded=0;sketch=1;hachureGap=4;jiggle=2;curveFitting=1;orthogonalLoop=1;jettySize=auto;html=1;fontFamily=Architects Daughter;fontSource=https%3A%2F%2Ffonts.googleapis.com%2Fcss%3Ffamily%3DArchitects%2BDaughter;fontSize=16;fontColor=#FF0000;strokeColor=#FF0000;" edge="1" parent="1">
          <mxGeometry relative="1" as="geometry">
            <mxPoint x="43" y="671" as="sourcePoint" />
            <mxPoint x="159" y="671" as="targetPoint" />
          </mxGeometry>
        </mxCell>
        <mxCell id="aUk0upNt8_hWJUNDJRNM-6" value="ArgoCD applications: crossplane resources and claims" style="text;html=1;strokeColor=none;fillColor=none;align=left;verticalAlign=middle;whiteSpace=wrap;rounded=0;fontSize=14;fontFamily=Architects Daughter;fontSource=https%3A%2F%2Ffonts.googleapis.com%2Fcss%3Ffamily%3DArchitects%2BDaughter;fontColor=#FF0000;" vertex="1" parent="1">
          <mxGeometry x="165" y="656" width="382" height="30" as="geometry" />
        </mxCell>
        <mxCell id="aUk0upNt8_hWJUNDJRNM-7" value="" style="rounded=0;whiteSpace=wrap;html=1;sketch=1;hachureGap=4;jiggle=2;curveFitting=1;fontFamily=Architects Daughter;fontSource=https%3A%2F%2Ffonts.googleapis.com%2Fcss%3Ffamily%3DArchitects%2BDaughter;fontSize=20;fillColor=none;strokeColor=#FF0000;" vertex="1" parent="1">
          <mxGeometry x="-148" y="693" width="189" height="22" as="geometry" />
        </mxCell>
        <mxCell id="aUk0upNt8_hWJUNDJRNM-8" style="edgeStyle=orthogonalEdgeStyle;rounded=0;sketch=1;hachureGap=4;jiggle=2;curveFitting=1;orthogonalLoop=1;jettySize=auto;html=1;fontFamily=Architects Daughter;fontSource=https%3A%2F%2Ffonts.googleapis.com%2Fcss%3Ffamily%3DArchitects%2BDaughter;fontSize=16;fontColor=#FF0000;strokeColor=#FF0000;" edge="1" parent="1">
          <mxGeometry relative="1" as="geometry">
            <mxPoint x="43" y="704" as="sourcePoint" />
            <mxPoint x="159" y="704" as="targetPoint" />
          </mxGeometry>
        </mxCell>
        <mxCell id="aUk0upNt8_hWJUNDJRNM-9" value="Crossplane providers configuration files" style="text;html=1;strokeColor=none;fillColor=none;align=left;verticalAlign=middle;whiteSpace=wrap;rounded=0;fontSize=14;fontFamily=Architects Daughter;fontSource=https%3A%2F%2Ffonts.googleapis.com%2Fcss%3Ffamily%3DArchitects%2BDaughter;fontColor=#FF0000;" vertex="1" parent="1">
          <mxGeometry x="165" y="689" width="382" height="30" as="geometry" />
        </mxCell>
        <mxCell id="aUk0upNt8_hWJUNDJRNM-10" value="" style="rounded=0;whiteSpace=wrap;html=1;sketch=1;hachureGap=4;jiggle=2;curveFitting=1;fontFamily=Architects Daughter;fontSource=https%3A%2F%2Ffonts.googleapis.com%2Fcss%3Ffamily%3DArchitects%2BDaughter;fontSize=20;fillColor=none;strokeColor=#FF0000;" vertex="1" parent="1">
          <mxGeometry x="-152" y="757" width="221" height="22" as="geometry" />
        </mxCell>
        <mxCell id="aUk0upNt8_hWJUNDJRNM-11" style="edgeStyle=orthogonalEdgeStyle;rounded=0;sketch=1;hachureGap=4;jiggle=2;curveFitting=1;orthogonalLoop=1;jettySize=auto;html=1;fontFamily=Architects Daughter;fontSource=https%3A%2F%2Ffonts.googleapis.com%2Fcss%3Ffamily%3DArchitects%2BDaughter;fontSize=16;fontColor=#FF0000;strokeColor=#FF0000;" edge="1" parent="1">
          <mxGeometry relative="1" as="geometry">
            <mxPoint x="69" y="768" as="sourcePoint" />
            <mxPoint x="155" y="768" as="targetPoint" />
          </mxGeometry>
        </mxCell>
        <mxCell id="aUk0upNt8_hWJUNDJRNM-12" value="Folder to server as gitops repository for the control plane" style="text;html=1;strokeColor=none;fillColor=none;align=left;verticalAlign=middle;whiteSpace=wrap;rounded=0;fontSize=14;fontFamily=Architects Daughter;fontSource=https%3A%2F%2Ffonts.googleapis.com%2Fcss%3Ffamily%3DArchitects%2BDaughter;fontColor=#FF0000;" vertex="1" parent="1">
          <mxGeometry x="161" y="753" width="421" height="30" as="geometry" />
        </mxCell>
        <mxCell id="aUk0upNt8_hWJUNDJRNM-13" value="" style="rounded=0;whiteSpace=wrap;html=1;sketch=1;hachureGap=4;jiggle=2;curveFitting=1;fontFamily=Architects Daughter;fontSource=https%3A%2F%2Ffonts.googleapis.com%2Fcss%3Ffamily%3DArchitects%2BDaughter;fontSize=20;fillColor=none;strokeColor=#FF0000;" vertex="1" parent="1">
          <mxGeometry x="-146" y="787" width="215" height="22" as="geometry" />
        </mxCell>
        <mxCell id="aUk0upNt8_hWJUNDJRNM-14" style="edgeStyle=orthogonalEdgeStyle;rounded=0;sketch=1;hachureGap=4;jiggle=2;curveFitting=1;orthogonalLoop=1;jettySize=auto;html=1;fontFamily=Architects Daughter;fontSource=https%3A%2F%2Ffonts.googleapis.com%2Fcss%3Ffamily%3DArchitects%2BDaughter;fontSize=16;fontColor=#FF0000;strokeColor=#FF0000;" edge="1" parent="1">
          <mxGeometry relative="1" as="geometry">
            <mxPoint x="70" y="798" as="sourcePoint" />
            <mxPoint x="161" y="798" as="targetPoint" />
          </mxGeometry>
        </mxCell>
        <mxCell id="aUk0upNt8_hWJUNDJRNM-15" value="Folder containing Argocd resources for the platform tools&amp;nbsp;" style="text;html=1;strokeColor=none;fillColor=none;align=left;verticalAlign=middle;whiteSpace=wrap;rounded=0;fontSize=14;fontFamily=Architects Daughter;fontSource=https%3A%2F%2Ffonts.googleapis.com%2Fcss%3Ffamily%3DArchitects%2BDaughter;fontColor=#FF0000;" vertex="1" parent="1">
          <mxGeometry x="167" y="783" width="419" height="30" as="geometry" />
        </mxCell>
        <mxCell id="aUk0upNt8_hWJUNDJRNM-16" value="" style="rounded=0;whiteSpace=wrap;html=1;sketch=1;hachureGap=4;jiggle=2;curveFitting=1;fontFamily=Architects Daughter;fontSource=https%3A%2F%2Ffonts.googleapis.com%2Fcss%3Ffamily%3DArchitects%2BDaughter;fontSize=20;fillColor=none;strokeColor=#FF0000;" vertex="1" parent="1">
          <mxGeometry x="-146" y="821" width="215" height="22" as="geometry" />
        </mxCell>
        <mxCell id="aUk0upNt8_hWJUNDJRNM-17" style="edgeStyle=orthogonalEdgeStyle;rounded=0;sketch=1;hachureGap=4;jiggle=2;curveFitting=1;orthogonalLoop=1;jettySize=auto;html=1;fontFamily=Architects Daughter;fontSource=https%3A%2F%2Ffonts.googleapis.com%2Fcss%3Ffamily%3DArchitects%2BDaughter;fontSize=16;fontColor=#FF0000;strokeColor=#FF0000;" edge="1" parent="1">
          <mxGeometry relative="1" as="geometry">
            <mxPoint x="70" y="832" as="sourcePoint" />
            <mxPoint x="161" y="832" as="targetPoint" />
          </mxGeometry>
        </mxCell>
        <mxCell id="aUk0upNt8_hWJUNDJRNM-18" value="Folder to push claims requested" style="text;html=1;strokeColor=none;fillColor=none;align=left;verticalAlign=middle;whiteSpace=wrap;rounded=0;fontSize=14;fontFamily=Architects Daughter;fontSource=https%3A%2F%2Ffonts.googleapis.com%2Fcss%3Ffamily%3DArchitects%2BDaughter;fontColor=#FF0000;" vertex="1" parent="1">
          <mxGeometry x="167" y="817" width="382" height="30" as="geometry" />
        </mxCell>
        <mxCell id="aUk0upNt8_hWJUNDJRNM-24" value="" style="rounded=0;whiteSpace=wrap;html=1;sketch=1;hachureGap=4;jiggle=2;curveFitting=1;fontFamily=Architects Daughter;fontSource=https%3A%2F%2Ffonts.googleapis.com%2Fcss%3Ffamily%3DArchitects%2BDaughter;fontSize=20;fillColor=none;strokeColor=#FF0000;" vertex="1" parent="1">
          <mxGeometry x="-146" y="854" width="234" height="22" as="geometry" />
        </mxCell>
        <mxCell id="aUk0upNt8_hWJUNDJRNM-25" style="edgeStyle=orthogonalEdgeStyle;rounded=0;sketch=1;hachureGap=4;jiggle=2;curveFitting=1;orthogonalLoop=1;jettySize=auto;html=1;fontFamily=Architects Daughter;fontSource=https%3A%2F%2Ffonts.googleapis.com%2Fcss%3Ffamily%3DArchitects%2BDaughter;fontSize=16;fontColor=#FF0000;strokeColor=#FF0000;" edge="1" parent="1">
          <mxGeometry relative="1" as="geometry">
            <mxPoint x="90" y="865" as="sourcePoint" />
            <mxPoint x="161" y="865" as="targetPoint" />
          </mxGeometry>
        </mxCell>
        <mxCell id="aUk0upNt8_hWJUNDJRNM-26" value="Crossplane resources files (compositions and definitions)" style="text;html=1;strokeColor=none;fillColor=none;align=left;verticalAlign=middle;whiteSpace=wrap;rounded=0;fontSize=14;fontFamily=Architects Daughter;fontSource=https%3A%2F%2Ffonts.googleapis.com%2Fcss%3Ffamily%3DArchitects%2BDaughter;fontColor=#FF0000;" vertex="1" parent="1">
          <mxGeometry x="167" y="850" width="382" height="30" as="geometry" />
        </mxCell>
        <mxCell id="aUk0upNt8_hWJUNDJRNM-31" style="edgeStyle=orthogonalEdgeStyle;rounded=0;sketch=1;hachureGap=4;jiggle=2;curveFitting=1;orthogonalLoop=1;jettySize=auto;html=1;fontFamily=Architects Daughter;fontSource=https%3A%2F%2Ffonts.googleapis.com%2Fcss%3Ffamily%3DArchitects%2BDaughter;fontSize=16;strokeColor=#FF0000;" edge="1" parent="1" source="aUk0upNt8_hWJUNDJRNM-27" target="aUk0upNt8_hWJUNDJRNM-29">
          <mxGeometry relative="1" as="geometry" />
        </mxCell>
        <mxCell id="aUk0upNt8_hWJUNDJRNM-27" value="" style="rounded=0;whiteSpace=wrap;html=1;sketch=1;hachureGap=4;jiggle=2;curveFitting=1;fontFamily=Architects Daughter;fontSource=https%3A%2F%2Ffonts.googleapis.com%2Fcss%3Ffamily%3DArchitects%2BDaughter;fontSize=20;fillColor=none;strokeColor=#FF0000;" vertex="1" parent="1">
          <mxGeometry x="-160" y="1044" width="309" height="123" as="geometry" />
        </mxCell>
        <mxCell id="aUk0upNt8_hWJUNDJRNM-29" value="Scripts to create and delete control plane cluster" style="text;html=1;strokeColor=none;fillColor=none;align=left;verticalAlign=middle;whiteSpace=wrap;rounded=0;fontSize=14;fontFamily=Architects Daughter;fontSource=https%3A%2F%2Ffonts.googleapis.com%2Fcss%3Ffamily%3DArchitects%2BDaughter;fontColor=#FF0000;" vertex="1" parent="1">
          <mxGeometry x="185.5" y="1090.5" width="382" height="30" as="geometry" />
        </mxCell>
        <mxCell id="aUk0upNt8_hWJUNDJRNM-32" value="" style="rounded=0;whiteSpace=wrap;html=1;sketch=1;hachureGap=4;jiggle=2;curveFitting=1;fontFamily=Architects Daughter;fontSource=https%3A%2F%2Ffonts.googleapis.com%2Fcss%3Ffamily%3DArchitects%2BDaughter;fontSize=20;fillColor=none;strokeColor=#FF0000;" vertex="1" parent="1">
          <mxGeometry x="-160" y="1205" width="215" height="22" as="geometry" />
        </mxCell>
        <mxCell id="aUk0upNt8_hWJUNDJRNM-33" style="edgeStyle=orthogonalEdgeStyle;rounded=0;sketch=1;hachureGap=4;jiggle=2;curveFitting=1;orthogonalLoop=1;jettySize=auto;html=1;fontFamily=Architects Daughter;fontSource=https%3A%2F%2Ffonts.googleapis.com%2Fcss%3Ffamily%3DArchitects%2BDaughter;fontSize=16;fontColor=#FF0000;strokeColor=#FF0000;" edge="1" parent="1">
          <mxGeometry relative="1" as="geometry">
            <mxPoint x="56" y="1216" as="sourcePoint" />
            <mxPoint x="147" y="1216" as="targetPoint" />
          </mxGeometry>
        </mxCell>
        <mxCell id="aUk0upNt8_hWJUNDJRNM-34" value="Control plane cluster configuration file" style="text;html=1;strokeColor=none;fillColor=none;align=left;verticalAlign=middle;whiteSpace=wrap;rounded=0;fontSize=14;fontFamily=Architects Daughter;fontSource=https%3A%2F%2Ffonts.googleapis.com%2Fcss%3Ffamily%3DArchitects%2BDaughter;fontColor=#FF0000;" vertex="1" parent="1">
          <mxGeometry x="153" y="1201" width="382" height="30" as="geometry" />
        </mxCell>
        <mxCell id="aUk0upNt8_hWJUNDJRNM-35" value="" style="rounded=0;whiteSpace=wrap;html=1;sketch=1;hachureGap=4;jiggle=2;curveFitting=1;fontFamily=Architects Daughter;fontSource=https%3A%2F%2Ffonts.googleapis.com%2Fcss%3Ffamily%3DArchitects%2BDaughter;fontSize=20;fillColor=none;strokeColor=#FF0000;" vertex="1" parent="1">
          <mxGeometry x="-141" y="917" width="215" height="22" as="geometry" />
        </mxCell>
        <mxCell id="aUk0upNt8_hWJUNDJRNM-36" style="edgeStyle=orthogonalEdgeStyle;rounded=0;sketch=1;hachureGap=4;jiggle=2;curveFitting=1;orthogonalLoop=1;jettySize=auto;html=1;fontFamily=Architects Daughter;fontSource=https%3A%2F%2Ffonts.googleapis.com%2Fcss%3Ffamily%3DArchitects%2BDaughter;fontSize=16;fontColor=#FF0000;strokeColor=#FF0000;" edge="1" parent="1">
          <mxGeometry relative="1" as="geometry">
            <mxPoint x="75" y="928" as="sourcePoint" />
            <mxPoint x="166" y="928" as="targetPoint" />
          </mxGeometry>
        </mxCell>
        <mxCell id="aUk0upNt8_hWJUNDJRNM-37" value="Resources for platform infrastructure (EKS, RDS, VPC,...)" style="text;html=1;strokeColor=none;fillColor=none;align=left;verticalAlign=middle;whiteSpace=wrap;rounded=0;fontSize=14;fontFamily=Architects Daughter;fontSource=https%3A%2F%2Ffonts.googleapis.com%2Fcss%3Ffamily%3DArchitects%2BDaughter;fontColor=#FF0000;" vertex="1" parent="1">
          <mxGeometry x="172" y="913" width="422" height="30" as="geometry" />
        </mxCell>
        <mxCell id="aUk0upNt8_hWJUNDJRNM-38" value="" style="rounded=0;whiteSpace=wrap;html=1;sketch=1;hachureGap=4;jiggle=2;curveFitting=1;fontFamily=Architects Daughter;fontSource=https%3A%2F%2Ffonts.googleapis.com%2Fcss%3Ffamily%3DArchitects%2BDaughter;fontSize=20;fillColor=none;strokeColor=#FF0000;" vertex="1" parent="1">
          <mxGeometry x="-141" y="947" width="215" height="22" as="geometry" />
        </mxCell>
        <mxCell id="aUk0upNt8_hWJUNDJRNM-39" style="edgeStyle=orthogonalEdgeStyle;rounded=0;sketch=1;hachureGap=4;jiggle=2;curveFitting=1;orthogonalLoop=1;jettySize=auto;html=1;fontFamily=Architects Daughter;fontSource=https%3A%2F%2Ffonts.googleapis.com%2Fcss%3Ffamily%3DArchitects%2BDaughter;fontSize=16;fontColor=#FF0000;strokeColor=#FF0000;" edge="1" parent="1">
          <mxGeometry relative="1" as="geometry">
            <mxPoint x="75" y="958" as="sourcePoint" />
            <mxPoint x="166" y="958" as="targetPoint" />
          </mxGeometry>
        </mxCell>
        <mxCell id="aUk0upNt8_hWJUNDJRNM-40" value="Resources for platform CI/CD and example repository" style="text;html=1;strokeColor=none;fillColor=none;align=left;verticalAlign=middle;whiteSpace=wrap;rounded=0;fontSize=14;fontFamily=Architects Daughter;fontSource=https%3A%2F%2Ffonts.googleapis.com%2Fcss%3Ffamily%3DArchitects%2BDaughter;fontColor=#FF0000;" vertex="1" parent="1">
          <mxGeometry x="172" y="943" width="382" height="30" as="geometry" />
        </mxCell>
        <mxCell id="aUk0upNt8_hWJUNDJRNM-41" value="" style="rounded=0;whiteSpace=wrap;html=1;sketch=1;hachureGap=4;jiggle=2;curveFitting=1;fontFamily=Architects Daughter;fontSource=https%3A%2F%2Ffonts.googleapis.com%2Fcss%3Ffamily%3DArchitects%2BDaughter;fontSize=20;fillColor=none;strokeColor=#FF0000;" vertex="1" parent="1">
          <mxGeometry x="-141" y="980" width="215" height="22" as="geometry" />
        </mxCell>
        <mxCell id="aUk0upNt8_hWJUNDJRNM-42" style="edgeStyle=orthogonalEdgeStyle;rounded=0;sketch=1;hachureGap=4;jiggle=2;curveFitting=1;orthogonalLoop=1;jettySize=auto;html=1;fontFamily=Architects Daughter;fontSource=https%3A%2F%2Ffonts.googleapis.com%2Fcss%3Ffamily%3DArchitects%2BDaughter;fontSize=16;fontColor=#FF0000;strokeColor=#FF0000;" edge="1" parent="1">
          <mxGeometry relative="1" as="geometry">
            <mxPoint x="75" y="991" as="sourcePoint" />
            <mxPoint x="166" y="991" as="targetPoint" />
          </mxGeometry>
        </mxCell>
        <mxCell id="aUk0upNt8_hWJUNDJRNM-43" value="Resources for platform tools" style="text;html=1;strokeColor=none;fillColor=none;align=left;verticalAlign=middle;whiteSpace=wrap;rounded=0;fontSize=14;fontFamily=Architects Daughter;fontSource=https%3A%2F%2Ffonts.googleapis.com%2Fcss%3Ffamily%3DArchitects%2BDaughter;fontColor=#FF0000;" vertex="1" parent="1">
          <mxGeometry x="172" y="976" width="382" height="30" as="geometry" />
        </mxCell>
      </root>
    </mxGraphModel>
  </diagram>
</mxfile>
